<?xml version="1.0" encoding="utf-8"?>
<!-- Generator: Adobe Illustrator 24.0.2, SVG Export Plug-In . SVG Version: 6.00 Build 0)  -->
<svg version="1.1" id="Capa_1" xmlns="http://www.w3.org/2000/svg" xmlns:xlink="http://www.w3.org/1999/xlink" x="0px" y="0px"
	 viewBox="0 0 139.99 282.35" style="enable-background:new 0 0 139.99 282.35;" xml:space="preserve">
<style type="text/css">
	.st0{fill:#2B72FF;}
</style>
<path className="st0" d="M57.07,43.11c-0.61-2.15-1.23-2.66-3.03-2.5c-4.07,0.36-6.04-0.87-7.3-4.54c-1.23-3.59-0.29-7.03,2.9-8.69
	c1.97-1.02,2.22-2.11,2.12-4.12c-0.17-3.58,0.6-7.1,2.15-10.38c3.16-6.7,9.91-10.73,17.28-10.35c6.86,0.35,13.37,5.41,15.67,12.26
	c1,2.98,1.6,6.04,1.36,9.2c-0.1,1.41,0.08,2.36,1.65,3.12c5.6,2.7,4.47,9.87,0.68,12.88c-1.09,0.87-2.34,1.28-3.75,0.85
	c-0.86-0.26-1.71-0.52-2.57,0.02c-0.67,0.41-1.46,0.76-1.31,1.72c0.18,1.21,1.18,0.76,1.86,0.73c2.94-0.14,5.79,0.26,8.5,1.41
	c5.96,2.54,6.93,8.5,2.05,12.81c-3.08,2.72-6.9,4.01-10.75,5.2C83.7,63,82.66,63,81.95,64.13c1.34,0.86,2.72,0.71,3.96,0.69
	c3.6-0.06,6.81,1.12,9.8,2.91c8.2,4.91,13.8,11.71,15.97,21.28c2.24,9.84-0.47,18.49-5.51,26.73c-1.56,2.55-3.64,4.72-5.61,6.96
	c0.83,1.11,2.02,1.19,3.03,1.57c8.96,3.36,17.95,6.66,26.91,10.04c1.24,0.47,3.37,0.51,2.94,2.48c-0.37,1.68-2.3,0.95-3.51,1.03
	c-7.23,0.46-14.47,0.8-21.7,1.19c-1.1,0.06-2.19,0.13-3.23,0.19c-0.39,1,0.2,1.63,0.55,2.29c2.69,5.04,3.76,10.45,3.71,16.12
	c-0.13,14.69-2.45,29.05-6.47,43.17c-7.17,25.19-15.02,50.15-23.82,74.82c-0.91,2.56-2.13,4.04-5.17,4.18
	c-2.68,0.12-5.29,0.09-7.96-0.06c-2.57-0.14-3.79-1.31-4.55-3.56c-2.1-6.23-4.28-12.43-6.47-18.63
	c-6.7-19.03-12.2-38.43-17.84-57.79c-3.92-13.46-5.91-27.2-6.26-41.2c-0.15-6.13,0.98-11.97,3.95-17.4
	c0.25-0.47,0.63-0.93,0.42-1.81c-0.76-0.38-1.75-0.25-2.7-0.3c-7.68-0.41-15.36-0.81-23.04-1.21c-0.56-0.03-1.12-0.03-1.67-0.09
	c-0.6-0.06-1.07-0.33-1.16-0.98c-0.08-0.59,0.1-1.17,0.62-1.44c0.78-0.41,1.62-0.73,2.45-1.04c8.87-3.3,17.74-6.59,26.61-9.9
	c1.02-0.38,2.14-0.58,3.13-1.45c-0.18-1.03-1.1-1.57-1.73-2.26c-5.74-6.32-9.05-13.8-10.05-22.19c-0.82-6.88,1.2-13.41,4.64-19.2
	c3.97-6.68,9.99-11.3,17.45-13.84c1.38-0.47,2.82-0.56,4.28-0.6c1.36-0.04,2.82,0.18,4.12-0.58c-0.43-1.27-1.44-1.21-2.23-1.42
	c-2.49-0.65-4.88-1.55-7.17-2.72c-1.19-0.6-2.36-1.28-3.41-2.1c-2.41-1.87-4.01-4.26-3.6-7.46c0.42-3.27,2.74-4.94,5.6-6.03
	c2.1-0.8,4.27-1.22,6.53-1.23C54.87,43.28,56,43.6,57.07,43.11z"/>
</svg>
