<?xml version="1.0" encoding="utf-8"?>
<!-- Generator: Adobe Illustrator 28.3.0, SVG Export Plug-In . SVG Version: 6.00 Build 0)  -->
<svg version="1.1" id="Capa_1" xmlns="http://www.w3.org/2000/svg" xmlns:xlink="http://www.w3.org/1999/xlink" x="0px" y="0px"
	 viewBox="0 0 1524.38 197.95" style="enable-background:new 0 0 1524.38 197.95;" xml:space="preserve">
<style type="text/css">
	.st0{fill:#B2D0E8;}
</style>
<g>
	<path class="st0" d="M4.93,150.51c-6.31-23.53,5.77-41.7,26.59-47.29c19.61-5.26,36.09,3.22,42.23,20.7l-15.69,4.21
		c-4.14-9.47-12.87-13.94-23.01-11.22c-12.17,3.27-17.82,14.64-13.9,29.24c4.21,15.69,15.57,22.35,27.46,19.16
		c9.74-2.61,14.83-10.65,13.69-21.36L78,139.75c3.08,19.03-6.65,34.11-25.71,39.23C28.89,185.25,10.73,172.15,4.93,150.51z"/>
	<path class="st0" d="M85.42,129.31c-4.74-23.75,8.51-41.1,29.79-45.34c23.48-4.68,40.49,9.06,44.76,30.48
		c4.9,24.58-7.71,42.22-29.41,46.55C106.95,165.7,89.91,151.83,85.42,129.31z M143.5,117.73c-2.88-14.42-12.89-22.41-25.52-19.89
		c-12.63,2.52-18.95,13.77-16.08,28.19c3.17,15.93,13.96,23.48,25.91,21.1C140.85,144.53,146.4,132.29,143.5,117.73z"/>
	<path class="st0" d="M179.21,149.81l-11.73-73.27l13.13-2.1l4.24,14.07c3.11-10.71,10.84-17.33,23-19.28l2.77-0.44l2.55,15.9
		l-2.76,0.44c-15.21,2.44-22.89,12.03-20.67,25.86l5.8,36.22L179.21,149.81z"/>
	<path class="st0" d="M265.45,137.05c-15.96,2.14-25.62-4.61-27.58-19.18l-5-37.18l-12.9,1.73l-1.87-13.88l12.9-1.73l-3.38-25.11
		l16.37-2.2l3.38,25.11l19.01-2.55l1.86,13.87l-19.01,2.55l4.85,36.08c0.84,6.24,4.5,9.28,10.6,8.46l8.33-1.12l1.86,13.88
		L265.45,137.05z"/>
	<path class="st0" d="M278.15,97.14c-2.56-24.09,12.2-40.16,33.78-42.46c23.81-2.53,39.51,12.69,41.82,34.41
		c2.65,24.92-11.51,41.35-33.51,43.69C296.3,135.33,280.58,119.97,278.15,97.14z M337.05,90.87c-1.56-14.62-10.81-23.49-23.62-22.13
		c-12.81,1.36-20.12,12-18.57,26.62c1.72,16.15,11.78,24.65,23.89,23.36C331.98,117.32,338.62,105.63,337.05,90.87z"/>
	<path class="st0" d="M364.31,102.44l15.91-1.25c1.18,7.91,8.35,11.56,17.43,10.84c8.37-0.66,12.59-4.22,12.14-9.94
		c-0.45-5.72-5.28-6.47-11.87-8.05l-10.02-2.44c-12.6-3.08-23.54-6.43-24.62-20.11c-1.03-13.12,8.33-22.57,26.06-23.96
		c17.17-1.35,29.61,6.79,32.88,23.39l-15.63,1.23c-1.5-8.31-7.81-11.74-16.32-11.07c-7.26,0.57-11.2,3.97-10.81,9
		c0.45,5.72,6.99,6.75,12.44,8.15l9.16,2.23c15.04,3.73,24.19,7.5,25.23,20.76c1.08,13.68-8.59,22.87-26.73,24.3
		C379.31,127.1,366.56,118.56,364.31,102.44z"/>
	<path class="st0" d="M462.46,104.07l14.26-21.8l-16.28-20.55l7.43-0.38l12.35,15.79l10.58-16.97l7.43-0.38l-14.08,22.03l16.43,20.3
		l-7.51,0.39l-12.34-15.71l-10.75,16.9L462.46,104.07z"/>
	<path class="st0" d="M547,114.93l-1.32-74.19l13.3-0.24l1.44,10.34c4.49-7.36,13.49-12.84,24.55-13.04
		c10.64-0.19,18.85,4.99,22.92,13.46c4.06-7.91,13.47-14.1,25.23-14.31c15.54-0.28,25.67,10.61,25.96,26.56l0.88,49.41l-16.66,0.3
		l-0.86-48.57c-0.15-8.26-5.28-13.49-13.26-13.35c-11.34,0.2-18.35,7.75-18.31,17.55l0.8,44.94l-16.52,0.29L594.3,65.5
		c-0.15-8.26-5.28-13.49-13.26-13.35c-11.34,0.2-18.35,7.75-18.31,17.55l0.8,44.94L547,114.93z"/>
	<path class="st0" d="M671.54,76.33c0.2-24.5,16.42-39.49,37.14-39.32c21,0.17,34.88,14.99,35.1,39.07L743.75,80l-55.72-0.46
		c1.01,13.03,9.06,21.92,21.66,22.02c8.54,0.07,15.01-4.08,17.59-11.48l16.1,0.13c-3.91,15.93-16.45,25.49-33.95,25.34
		C686.76,115.38,671.35,99.01,671.54,76.33z M726.77,68.25c-2.01-10.66-8.54-17.15-18.2-17.23c-9.8-0.08-17.13,6.3-19.74,16.92
		L726.77,68.25z"/>
	<path class="st0" d="M753.02,76.36c0.63-22.95,15.2-38.52,34.93-37.98c10.5,0.29,19.05,4.86,24.04,12l1.09-39.89l16.51,0.45
		l-2.87,104.97l-13.3-0.36l-1.18-13.2c-4.46,9.26-13.85,14.89-25.89,14.56C766.35,116.37,752.38,99.74,753.02,76.36z M811.25,77.82
		c0.4-14.7-7.72-25.14-19.75-25.47c-12.32-0.34-21.14,9.79-21.54,24.62c-0.41,14.97,7.7,25.7,19.88,26.03S810.83,92.93,811.25,77.82
		z"/>
	<path class="st0" d="M843.47,116.66l2.99-74.14l16.51,0.67l-2.99,74.14L843.47,116.66z M844.92,21.72
		c0.24-6.02,5.04-10.45,11.06-10.2c6.16,0.25,10.45,5.05,10.2,11.06s-4.91,10.59-11.07,10.34C849.1,32.68,844.68,27.74,844.92,21.72
		z"/>
	<path class="st0" d="M874.53,79.99c1.27-24.19,18.38-37.73,40.05-36.59c23.91,1.26,37.01,18.77,35.86,40.57
		c-1.31,25.02-17.89,39.01-39.98,37.85C886.42,120.57,873.33,102.92,874.53,79.99z M933.67,83.1c0.77-14.68-6.96-24.9-19.83-25.57
		c-12.86-0.67-21.76,8.67-22.53,23.35c-0.85,16.22,7.74,26.2,19.9,26.84C924.49,108.41,932.89,97.92,933.67,83.1z"/>
	<path class="st0" d="M958.78,98.71l15.92,1.08c0.02,8,6.58,12.65,15.66,13.27c8.38,0.57,13.07-2.34,13.46-8.07
		c0.39-5.73-4.29-7.17-10.57-9.7l-9.56-3.88c-12.02-4.88-22.35-9.79-21.42-23.48c0.89-13.13,11.53-21.11,29.27-19.91
		c17.18,1.16,28.3,11.04,29.12,27.93l-15.64-1.06c-0.27-8.44-6.01-12.75-14.53-13.33c-7.26-0.49-11.66,2.3-12,7.33
		c-0.39,5.73,5.93,7.7,11.12,9.87l8.74,3.54c14.34,5.88,22.83,10.95,21.93,24.22c-0.93,13.69-11.83,21.37-29.99,20.14
		C970.03,125.29,958.66,114.98,958.78,98.71z"/>
	<path class="st0" d="M1055.81,114.35l17.06-19.69l-13.36-22.56l7.41,0.62l10.11,17.31l12.77-15.39l7.41,0.62l-16.93,19.94
		l13.54,22.33l-7.49-0.63l-10.12-17.23l-12.92,15.29L1055.81,114.35z"/>
	<path class="st0" d="M1120.96,135.06l9.8-104.54l16.45,1.54l-9.8,104.54L1120.96,135.06z"/>
	<path class="st0" d="M1152.7,117.29c1.93-17.25,19.44-19.1,33.95-19.28c11.27-0.1,19.53,0.34,20.28-5.5
		c0.61-7.26-4.46-12.57-13.94-13.55c-9.75-1.01-17.26,3.56-19.03,11.12l-16.57-1.72c3.15-15.44,18.2-24.85,37.28-22.87
		c19.91,2.07,29.79,14.07,28.15,29.8l-3.47,33.42c-0.22,2.09,0.78,3.32,3.29,3.58l4.04,0.42l-1.33,12.81l-7.8-0.81
		c-7.52-0.78-11.8-4.32-12.47-10.02c-0.21-0.72-0.38-1.73-0.44-2.58c-5.14,7.49-13.71,11.39-26.24,10.09
		C1161.42,140.44,1151.13,131.06,1152.7,117.29z M1204.56,115.35l1.07-10.3c-3.23,4.03-10.44,4.27-18.34,4.43
		c-9.31,0.16-17.1,0.62-17.9,8.42c-0.66,6.41,4.1,10.7,13.71,11.7C1194.38,130.77,1203.54,125.24,1204.56,115.35z"/>
	<path class="st0" d="M1235.92,146.79l8.49-73.71l13.21,1.52l0.28,14.69c5.88-9.47,15.12-13.76,27.35-12.35l2.78,0.32l-1.84,16
		l-2.78-0.32c-15.3-1.76-25.29,5.4-26.89,19.31l-4.2,36.44L1235.92,146.79z"/>
	<path class="st0" d="M1286.32,156.8l16.39,2.07c-0.88,6.95,5.79,13.43,16.76,14.81c13.06,1.65,20.84-5.27,22.25-16.39l1.31-10.42
		c-5.62,6.49-14.37,9.9-24.93,8.57c-19.72-2.49-31.96-19.55-29.2-41.5c2.79-22.08,18.9-35.72,38.48-33.25
		c11.53,1.45,20.15,8.04,23.7,16.82l2.83-11.21l13.06,1.65l-9,71.39c-2.45,19.45-17.82,30.49-40.18,27.67
		C1297.23,184.43,1284.32,172.64,1286.32,156.8z M1346.29,121.04c1.75-13.89-5.38-24.53-17.32-26.03
		c-11.95-1.51-21.35,7.04-23.12,21.07c-1.75,13.89,5.23,24.51,17.18,26.01C1334.97,143.61,1344.54,134.94,1346.29,121.04z"/>
	<path class="st0" d="M1375.23,125.76c3.35-23.99,21.56-36.01,43.05-33.01c23.71,3.31,35.26,21.88,32.24,43.51
		c-3.46,24.82-21.18,37.33-43.09,34.28C1383.58,167.21,1372.06,148.5,1375.23,125.76z M1433.88,133.94
		c2.03-14.56-4.8-25.41-17.55-27.18c-12.76-1.78-22.43,6.77-24.46,21.33c-2.24,16.08,5.46,26.77,17.52,28.45
		C1422.56,158.37,1431.83,148.63,1433.88,133.94z"/>
	<path class="st0" d="M1457.57,151.61l15.78,2.38c-0.64,7.97,5.52,13.15,14.52,14.51c8.31,1.25,13.22-1.26,14.07-6.94
		c0.86-5.68-3.68-7.49-9.74-10.53l-9.21-4.65c-11.57-5.85-21.47-11.59-19.42-25.16c1.96-13.01,13.23-20.09,30.81-17.44
		c17.03,2.57,27.3,13.32,26.73,30.23l-15.5-2.34c0.42-8.43-4.94-13.21-13.39-14.48c-7.2-1.09-11.81,1.33-12.56,6.32
		c-0.86,5.68,5.28,8.16,10.27,10.75l8.42,4.24c13.8,7.04,21.86,12.78,19.87,25.93c-2.05,13.57-13.54,20.33-31.54,17.61
		C1466.6,179.02,1456.12,167.81,1457.57,151.61z"/>
</g>
</svg>
