<?xml version="1.0" encoding="utf-8"?>
<!-- Generator: Adobe Illustrator 28.3.0, SVG Export Plug-In . SVG Version: 6.00 Build 0)  -->
<svg version="1.1" id="Capa_1" xmlns="http://www.w3.org/2000/svg" xmlns:xlink="http://www.w3.org/1999/xlink" x="0px" y="0px"
	 viewBox="0 0 3529 308.21" style="enable-background:new 0 0 3529 308.21;" xml:space="preserve">
<style type="text/css">
	.st0{fill:#179766;}
</style>
<g>
	<path class="st0" d="M54.87,81.07c3.25-24,21.42-36.09,42.92-33.18c23.72,3.21,35.34,21.74,32.41,43.38
		c-3.36,24.83-21.03,37.41-42.95,34.44C63.38,122.49,51.79,103.82,54.87,81.07z M113.55,89.02c1.97-14.57-4.9-25.39-17.66-27.12
		c-12.76-1.73-22.4,6.85-24.38,21.42c-2.18,16.09,5.56,26.75,17.63,28.38C102.32,113.5,111.56,103.73,113.55,89.02z"/>
	<path class="st0" d="M154.36,119.23l-3.19,12.86l-13.19-1.68l13.29-104.15l16.39,2.09l-5.12,40.13c6.2-6.55,15.53-10.01,25.95-8.69
		c19.44,2.48,31.17,20.07,28.27,42.84c-2.96,23.19-18.76,37.55-38.34,35.05C166.74,136.19,157.76,129.11,154.36,119.23z
		 M199.94,100.48c1.86-14.58-5.04-25.76-16.98-27.29c-12.08-1.54-21.97,7.36-23.79,21.66c-1.93,15.14,5.31,26.93,17.4,28.47
		C188.51,124.85,198.03,115.48,199.94,100.48z"/>
	<path class="st0" d="M224.68,141.36l8.98-73.66l13.2,1.61L247.05,84c5.95-9.43,15.21-13.66,27.44-12.17l2.78,0.34l-1.95,15.98
		l-2.78-0.34c-15.29-1.86-25.32,5.24-27.01,19.13l-4.44,36.41L224.68,141.36z"/>
	<path class="st0" d="M276.43,126.95c2.16-17.23,19.68-18.84,34.2-18.83c11.27,0.05,19.52,0.59,20.35-5.23
		c0.71-7.25-4.3-12.62-13.76-13.73c-9.73-1.14-17.3,3.33-19.17,10.87l-16.55-1.94c3.35-15.39,18.53-24.61,37.58-22.39
		c19.88,2.33,29.6,14.46,27.76,30.17l-3.9,33.37c-0.24,2.09,0.74,3.33,3.24,3.62l4.03,0.47l-1.5,12.79l-7.79-0.91
		c-7.51-0.88-11.74-4.47-12.34-10.18c-0.2-0.73-0.36-1.73-0.4-2.58c-5.24,7.42-13.86,11.21-26.37,9.74
		C284.84,150.2,274.68,140.7,276.43,126.95z M328.31,125.69l1.2-10.29c-3.29,3.99-10.49,4.13-18.39,4.19
		c-9.31,0.04-17.1,0.4-18.01,8.18c-0.75,6.4,3.96,10.75,13.55,11.88C317.92,140.96,327.15,135.56,328.31,125.69z"/>
	<path class="st0" d="M358.28,133.38l15.86,1.77c-0.33,7.99,6.02,12.93,15.06,13.94c8.35,0.93,13.16-1.77,13.79-7.47
		c0.64-5.71-3.97-7.35-10.14-10.15l-9.38-4.29c-11.79-5.4-21.9-10.76-20.38-24.39c1.46-13.08,12.44-20.58,30.11-18.61
		c17.11,1.91,27.79,12.26,27.87,29.18l-15.58-1.74c0.1-8.44-5.45-13-13.94-13.95c-7.23-0.81-11.75,1.79-12.31,6.79
		c-0.64,5.71,5.59,7.95,10.68,10.35l8.58,3.92c14.06,6.5,22.33,11.93,20.85,25.15c-1.52,13.63-12.75,20.83-30.84,18.81
		C368.36,160.43,357.46,149.63,358.28,133.38z"/>
	<path class="st0" d="M492.08,171.76c-16.01-1.69-23.8-10.53-22.26-25.15l3.93-37.31l-12.95-1.37l1.47-13.92l12.95,1.37l2.66-25.2
		l16.43,1.73l-2.66,25.2l19.07,2.01l-1.47,13.92l-19.07-2.01l-3.82,36.2c-0.66,6.26,2.17,10.08,8.3,10.73l8.35,0.88l-1.47,13.92
		L492.08,171.76z"/>
	<path class="st0" d="M513.06,136.96c2.46-24.37,20-37.8,40.62-35.71c20.89,2.11,33.34,18.15,31.34,42.14l-0.39,3.9l-55.43-5.61
		c-0.2,13.07,7,22.66,19.53,23.92c8.5,0.86,15.33-2.67,18.58-9.8l16.02,1.62c-5.37,15.5-18.73,23.86-36.14,22.09
		C524.61,177.25,510.78,159.53,513.06,136.96z M568.8,134.02c-1.02-10.8-6.92-17.87-16.53-18.84c-9.75-0.99-17.64,4.69-21.22,15.02
		L568.8,134.02z"/>
	<path class="st0" d="M593.98,182.08l7.14-73.85l13.24,1.28l0.55,14.68c5.71-9.58,14.86-14.03,27.12-12.85l2.79,0.27l-1.55,16.02
		l-2.79-0.27c-15.33-1.48-25.18,5.86-26.53,19.8l-3.53,36.51L593.98,182.08z"/>
	<path class="st0" d="M648.29,187.4l6.71-73.89l13.25,1.2l0.32,10.43c5.26-6.83,14.8-11.31,25.82-10.31
		c10.6,0.96,18.2,7,21.33,15.85c4.89-7.43,14.92-12.56,26.63-11.5c15.48,1.41,24.37,13.32,22.93,29.21l-4.47,49.21l-16.59-1.51
		l4.39-48.38c0.75-8.23-3.79-13.98-11.74-14.7c-11.29-1.03-19.08,5.72-20.1,15.46l-4.07,44.75l-16.45-1.5l4.39-48.38
		c0.75-8.23-3.79-13.98-11.74-14.7c-11.29-1.03-19.07,5.72-20.1,15.46l-4.07,44.75L648.29,187.4z"/>
	<path class="st0" d="M776.48,198.88l6.33-73.93l16.46,1.41l-6.33,73.93L776.48,198.88z M782.21,104.1c0.51-6,5.51-10.21,11.51-9.69
		c6.14,0.53,10.21,5.51,9.69,11.51c-0.51,6-5.38,10.36-11.52,9.83C785.89,115.24,781.69,110.1,782.21,104.1z"/>
	<path class="st0" d="M809.61,201.73l6.06-73.95l13.26,1.09l0.5,11c5.23-7.3,15.03-11.97,26.05-11.07
		c15.77,1.29,25.22,12.74,23.86,29.35l-4.02,48.97l-16.46-1.35l3.95-48.14c0.68-8.23-4.32-14.12-13.53-14.88
		c-10.74-0.88-18.61,5.92-19.54,15.53l-3.67,44.79L809.61,201.73z"/>
	<path class="st0" d="M888.91,187.57c1.47-17.3,18.92-19.61,33.42-20.18c11.26-0.4,19.53-0.19,20.12-6.04
		c0.42-7.27-4.8-12.44-14.29-13.17c-9.77-0.75-17.16,4.02-18.72,11.62l-16.61-1.27c2.74-15.52,17.53-25.33,36.65-23.87
		c19.96,1.53,30.15,13.27,28.94,29.04l-2.57,33.5c-0.16,2.09,0.87,3.3,3.38,3.49l4.05,0.31l-0.99,12.84l-7.82-0.6
		c-7.54-0.58-11.91-4-12.74-9.68c-0.23-0.72-0.43-1.72-0.5-2.57c-4.94,7.62-13.4,11.75-25.96,10.79
		C898.25,210.47,887.71,201.38,888.91,187.57z M940.7,184.24l0.79-10.33c-3.12,4.11-10.32,4.54-18.21,4.92
		c-9.3,0.41-17.07,1.08-17.67,8.89c-0.49,6.42,4.38,10.59,14.01,11.33C930.93,199.92,939.94,194.15,940.7,184.24z"/>
	<path class="st0" d="M971.8,176.92c1.63-22.9,16.87-37.82,36.56-36.42c10.47,0.75,18.82,5.69,23.49,13.04l2.83-39.8l16.48,1.17
		l-7.45,104.74l-13.27-0.94l-0.6-13.24c-4.85,9.06-14.49,14.27-26.5,13.41C983.37,217.46,970.14,200.24,971.8,176.92z
		 M1029.9,180.91c1.04-14.66-6.61-25.45-18.62-26.31c-12.29-0.87-21.54,8.85-22.6,23.66c-1.06,14.94,6.57,26.01,18.72,26.88
		S1028.83,195.99,1029.9,180.91z"/>
	<path class="st0" d="M1058.34,200.03c1.27-17.31,18.7-19.82,33.19-20.55c11.26-0.52,19.53-0.4,20.05-6.26
		c0.34-7.27-4.94-12.39-14.44-13.01c-9.78-0.64-17.11,4.21-18.59,11.83l-16.62-1.09c2.56-15.55,17.25-25.53,36.38-24.27
		c19.98,1.31,30.3,12.93,29.26,28.71l-2.2,33.53c-0.14,2.1,0.91,3.29,3.42,3.45l4.05,0.27l-0.84,12.85l-7.82-0.51
		c-7.54-0.49-11.95-3.87-12.84-9.54c-0.23-0.72-0.45-1.71-0.53-2.56c-4.85,7.68-13.27,11.9-25.84,11.07
		C1067.93,222.83,1057.3,213.85,1058.34,200.03z M1110.08,196.13l0.68-10.34c-3.08,4.15-10.27,4.66-18.15,5.12
		c-9.29,0.51-17.06,1.27-17.57,9.09c-0.42,6.43,4.5,10.54,14.14,11.17C1100.49,211.91,1109.43,206.04,1110.08,196.13z"/>
	<path class="st0" d="M1140.46,202.29l15.93,0.96c0.08,8,6.67,12.6,15.75,13.15c8.38,0.51,13.05-2.44,13.4-8.17
		s-4.34-7.13-10.64-9.62l-9.59-3.8c-12.05-4.79-22.42-9.63-21.59-23.32c0.79-13.14,11.38-21.19,29.12-20.12
		c17.19,1.04,28.38,10.83,29.32,27.72l-15.65-0.95c-0.33-8.43-6.1-12.71-14.63-13.23c-7.27-0.44-11.64,2.38-11.95,7.41
		c-0.35,5.73,5.99,7.66,11.19,9.79l8.77,3.47c14.38,5.78,22.91,10.78,22.11,24.06c-0.83,13.69-11.67,21.45-29.84,20.36
		C1151.91,228.78,1140.46,218.56,1140.46,202.29z"/>
	<path class="st0" d="M1267.9,218.34l16.44-20.21l-14.06-22.13l7.43,0.39l10.65,16.98l12.28-15.78l7.43,0.39l-16.29,20.46
		l14.24,21.89l-7.51-0.39l-10.65-16.9l-12.44,15.69L1267.9,218.34z"/>
	<path class="st0" d="M1351.51,237.6l3.43-74.12l13.29,0.61l1.29,14.63c5.22-9.85,14.14-14.76,26.44-14.19l2.8,0.13l-0.74,16.08
		l-2.8-0.13c-15.38-0.71-24.86,7.12-25.5,21.1l-1.7,36.64L1351.51,237.6z"/>
	<path class="st0" d="M1401.61,203.07c1.02-24.48,17.73-38.92,38.43-38.06c20.98,0.87,34.36,16.14,33.78,40.22l-0.16,3.92
		l-55.67-2.31c0.58,13.06,8.33,22.21,20.91,22.73c8.53,0.35,15.14-3.57,17.97-10.88l16.09,0.67c-4.44,15.79-17.29,24.92-34.77,24.2
		C1415.52,242.61,1400.67,225.73,1401.61,203.07z M1457.07,196.83c-1.66-10.72-7.96-17.43-17.62-17.83
		c-9.79-0.41-17.33,5.72-20.29,16.25L1457.07,196.83z"/>
	<path class="st0" d="M1484.94,243.42l2.5-74.16l13.29,0.45l0.91,10.4c4.86-7.12,14.14-12.13,25.19-11.76
		c10.63,0.36,18.57,5.95,22.2,14.62c4.46-7.69,14.18-13.39,25.93-12.99c15.53,0.52,25.09,11.91,24.56,27.86l-1.66,49.39l-16.65-0.56
		l1.64-48.55c0.28-8.26-4.58-13.74-12.56-14.01c-11.33-0.38-18.72,6.79-19.19,16.58l-1.51,44.92l-16.51-0.56l1.64-48.55
		c0.28-8.26-4.58-13.74-12.56-14.01c-11.33-0.38-18.72,6.79-19.19,16.58l-1.51,44.92L1484.94,243.42z"/>
	<path class="st0" d="M1613.53,247.55l2.04-74.17l16.51,0.45l-2.04,74.18L1613.53,247.55z M1613.76,152.59
		c0.17-6.02,4.91-10.51,10.93-10.34c6.16,0.17,10.51,4.91,10.34,10.93c-0.17,6.02-4.78,10.65-10.93,10.48
		C1618.08,163.5,1613.59,158.61,1613.76,152.59z"/>
	<path class="st0" d="M1640.73,248.33l27.59-36.48l-25.46-37.7l18.48,0.42l16.65,25.17l17.65-24.38l18.48,0.42l-27.17,36.49
		l25.88,37.71l-18.62-0.43l-16.77-26.01l-18.09,25.21L1640.73,248.33z"/>
	<path class="st0" d="M1715.79,213.23c0.42-24.5,16.77-39.34,37.49-38.99c21,0.36,34.75,15.29,34.76,39.38l-0.07,3.92l-55.71-0.95
		c0.9,13.04,8.87,21.99,21.47,22.21c8.54,0.14,15.05-3.95,17.7-11.32l16.1,0.27c-4.05,15.89-16.67,25.34-34.17,25.04
		C1730.67,252.41,1715.41,235.9,1715.79,213.23z M1771.09,205.62c-1.92-10.67-8.39-17.23-18.05-17.39
		c-9.8-0.17-17.19,6.15-19.89,16.74L1771.09,205.62z"/>
	<path class="st0" d="M1796.67,230.81c0.32-17.36,17.57-20.82,32.01-22.36c11.21-1.15,19.48-1.48,19.68-7.36
		c-0.07-7.28-5.62-12.1-15.14-12.19c-9.8-0.1-16.85,5.15-17.91,12.84l-16.66-0.17c1.7-15.66,15.81-26.44,34.99-26.25
		c20.02,0.2,30.97,11.24,30.81,27.05l-0.34,33.6c-0.02,2.1,1.09,3.23,3.61,3.26l4.06,0.04l-0.13,12.88l-7.84-0.08
		c-7.56-0.08-12.15-3.2-13.35-8.82c-0.27-0.7-0.54-1.69-0.67-2.53c-4.42,7.94-12.59,12.61-25.19,12.49
		C1807.51,253.05,1796.39,244.67,1796.67,230.81z M1848.12,224.05l0.11-10.36c-2.84,4.31-9.99,5.22-17.84,6.12
		c-9.25,1.03-16.96,2.21-17.04,10.05c-0.07,6.44,5.08,10.27,14.74,10.37C1839.42,240.35,1848.02,234,1848.12,224.05z"/>
	<path class="st0" d="M1878.57,214.68c0.06-22.96,14.25-38.88,33.99-38.83c10.5,0.03,19.17,4.39,24.33,11.41l0.11-39.9l16.52,0.05
		l-0.29,105l-13.3-0.04l-1.5-13.16c-4.23,9.37-13.48,15.22-25.52,15.19C1892.88,254.34,1878.51,238.06,1878.57,214.68z
		 M1936.81,214.7c0.04-14.7-8.33-24.94-20.37-24.98c-12.32-0.03-20.89,10.3-20.93,25.14c-0.04,14.98,8.33,25.5,20.51,25.54
		S1936.77,229.82,1936.81,214.7z"/>
	<path class="st0" d="M1966.39,231.82c0.05-17.36,17.25-21.09,31.67-22.84c11.19-1.32,19.45-1.78,19.56-7.66
		c-0.18-7.28-5.8-12.01-15.32-11.96c-9.8,0.05-16.77,5.4-17.71,13.11l-16.66,0.08c1.46-15.69,15.41-26.68,34.59-26.77
		c20.02-0.1,31.13,10.76,31.21,26.58l0.17,33.6c0.01,2.1,1.14,3.21,3.66,3.2l4.06-0.02l0.06,12.88l-7.84,0.04
		c-7.56,0.04-12.2-3.02-13.48-8.61c-0.28-0.7-0.57-1.68-0.71-2.52c-4.3,8-12.4,12.8-25,12.87
		C1977.57,253.88,1966.32,245.68,1966.39,231.82z M2017.74,224.28l-0.05-10.36c-2.78,4.35-9.91,5.37-17.75,6.39
		c-9.23,1.17-16.93,2.46-16.89,10.3c0.03,6.44,5.23,10.19,14.89,10.15C2009.28,240.7,2017.79,234.22,2017.74,224.28z"/>
	<path class="st0" d="M2048.36,228.27l15.96-0.19c0.66,7.97,7.57,12.09,16.67,11.98c8.4-0.1,12.84-3.38,12.77-9.12
		s-4.84-6.8-11.31-8.82l-9.84-3.1c-12.37-3.91-23.06-7.98-23.23-21.7c-0.16-13.16,9.81-21.96,27.59-22.18
		c17.22-0.21,29.09,8.75,31.25,25.52l-15.68,0.19c-0.94-8.39-7.01-12.24-15.55-12.13c-7.28,0.09-11.44,3.22-11.38,8.26
		c0.07,5.74,6.53,7.2,11.87,8.96l9,2.83c14.76,4.72,23.63,9.09,23.79,22.39c0.17,13.72-10.09,22.24-28.29,22.47
		C2061.69,253.87,2049.53,244.5,2048.36,228.27z"/>
	<path class="st0" d="M2146.11,235.53l14.92-21.36l-15.64-21.04l7.44-0.15l11.86,16.16l11.1-16.63l7.44-0.16l-14.75,21.59l15.8,20.8
		l-7.52,0.16l-11.86-16.08l-11.26,16.56L2146.11,235.53z"/>
	<path class="st0" d="M2239.09,248.34l-1.78-60.17l-13.01,0.38l-0.41-13.99l13.01-0.38l-0.27-9.24
		c-0.41-13.99,7.62-21.79,23.01-22.25l16.09-0.48l0.41,13.99l-14.97,0.44c-5.32,0.16-8.17,3.32-8,8.92l0.24,8.12l21.55-0.64
		l0.41,13.99l-21.55,0.64l1.78,60.17L2239.09,248.34z"/>
	<path class="st0" d="M2287.78,246.84l-2.64-74.15l13.29-0.47l2.48,14.48c4.4-10.24,12.88-15.87,25.2-16.3l2.8-0.1l0.57,16.09
		l-2.8,0.1c-15.39,0.55-24.19,9.12-23.69,23.12l1.3,36.66L2287.78,246.84z"/>
	<path class="st0" d="M2336.55,224.54c-0.61-17.35,16.44-21.73,30.78-24.03c11.14-1.74,19.37-2.52,19.26-8.4
		c-0.45-7.27-6.25-11.78-15.77-11.37c-9.79,0.42-16.56,6.04-17.2,13.77l-16.64,0.72c0.86-15.73,14.38-27.25,33.54-28.07
		c20-0.86,31.52,9.57,32.2,25.38l1.45,33.57c0.09,2.1,1.26,3.17,3.78,3.06l4.06-0.17l0.55,12.87l-7.83,0.34
		c-7.55,0.33-12.3-2.55-13.8-8.09c-0.31-0.69-0.63-1.65-0.81-2.49c-3.99,8.16-11.9,13.27-24.49,13.81
		C2348.55,246.16,2337,238.39,2336.55,224.54z M2387.57,215.05l-0.45-10.35c-2.61,4.46-9.7,5.74-17.49,7.06
		c-9.18,1.52-16.82,3.11-16.49,10.94c0.28,6.43,5.62,9.99,15.27,9.57C2379.74,231.78,2388,224.98,2387.57,215.05z"/>
	<path class="st0" d="M2422.32,245.59l16.5-0.87c0.37,6.99,8.08,12.19,19.12,11.61c13.14-0.7,19.58-8.89,18.98-20.07l-0.55-10.48
		c-4.38,7.38-12.39,12.29-23.01,12.85c-19.85,1.05-34.92-13.57-36.09-35.66c-1.18-22.23,12.26-38.5,31.97-39.54
		c11.6-0.61,21.26,4.34,26.31,12.35l0.79-11.54l13.14-0.7l3.8,71.86c1.04,19.57-12.12,33.17-34.63,34.36
		C2437.96,270.84,2423.17,261.53,2422.32,245.59z M2474.99,199.76c-0.74-13.98-9.64-23.18-21.66-22.55
		c-12.02,0.64-19.76,10.72-19.01,24.84c0.74,13.98,9.5,23.19,21.52,22.55C2467.86,223.97,2475.73,213.74,2474.99,199.76z"/>
	<path class="st0" d="M2509.7,236.8l-4.9-74.04l13.27-0.88l1.94,10.25c4.13-7.57,12.86-13.48,23.89-14.21
		c10.62-0.7,19.07,4.07,23.55,12.33c3.67-8.1,12.77-14.74,24.51-15.51c15.51-1.03,26.16,9.35,27.21,25.28l3.26,49.31l-16.62,1.1
		l-3.21-48.47c-0.54-8.24-5.93-13.22-13.89-12.69c-11.32,0.75-17.95,8.62-17.44,18.41l2.97,44.84l-16.48,1.09l-3.21-48.47
		c-0.54-8.24-5.93-13.22-13.89-12.69c-11.31,0.75-17.95,8.62-17.44,18.41l2.97,44.84L2509.7,236.8z"/>
	<path class="st0" d="M2631.05,191.65c-1.96-24.42,12.88-40.78,33.54-42.44c20.93-1.68,36.06,11.86,38.41,35.83l0.31,3.91
		l-55.54,4.45c2.16,12.89,10.96,21.03,23.52,20.03c8.51-0.68,14.6-5.38,16.52-12.98l16.05-1.29c-2.49,16.21-14.14,26.84-31.59,28.23
		C2649.65,229.2,2632.86,214.25,2631.05,191.65z M2685.35,178.73c-2.94-10.44-10.02-16.33-19.65-15.56
		c-9.77,0.78-16.51,7.78-18.17,18.59L2685.35,178.73z"/>
	<path class="st0" d="M2718.55,221.48l-6.78-73.89l13.25-1.21l2.39,10.75c3.9-8.09,12.74-14.38,23.75-15.39
		c15.75-1.45,27.04,8.2,28.57,24.79l4.49,48.94l-16.45,1.51l-4.41-48.1c-0.75-8.23-6.69-13.16-15.89-12.32
		c-10.74,0.98-17.31,9.04-16.56,18.67l4.1,44.75L2718.55,221.48z"/>
	<path class="st0" d="M2830.5,210.75c-16.02,1.63-25.46-5.43-26.95-20.05l-3.8-37.33l-12.95,1.32l-1.42-13.93l12.95-1.32
		l-2.57-25.21l16.44-1.67l2.57,25.21l19.08-1.94l1.42,13.93l-19.08,1.94l3.69,36.21c0.64,6.27,4.2,9.42,10.32,8.8l8.36-0.85
		l1.42,13.93L2830.5,210.75z"/>
	<path class="st0" d="M2847.18,188.39c-1.8-17.27,14.9-22.81,29.04-26.09c10.99-2.51,19.15-3.85,18.63-9.71
		c-0.95-7.22-7.05-11.32-16.51-10.26c-9.74,1.1-16.1,7.17-16.21,14.93l-16.55,1.87c-0.22-15.75,12.46-28.17,31.52-30.32
		c19.89-2.24,32.11,7.37,33.88,23.09l3.76,33.39c0.24,2.09,1.47,3.07,3.98,2.79l4.03-0.45l1.44,12.8l-7.79,0.88
		c-7.51,0.85-12.45-1.7-14.33-7.12c-0.36-0.66-0.74-1.61-0.98-2.43c-3.42,8.42-10.96,14.05-23.48,15.46
		C2860.64,209.13,2848.59,202.18,2847.18,188.39z M2897.42,175.41l-1.16-10.29c-2.3,4.63-9.28,6.4-16.96,8.25
		c-9.06,2.15-16.57,4.26-15.69,12.05c0.72,6.4,6.29,9.58,15.89,8.49C2890.76,192.64,2898.53,185.28,2897.42,175.41z"/>
	<path class="st0" d="M2926.1,162.42c-2.89-22.78,9.12-40.39,28.71-42.88c10.42-1.32,19.57,1.89,25.59,8.18l-5.03-39.58l16.39-2.08
		l13.23,104.16l-13.19,1.68l-3.19-12.86c-2.99,9.83-11.41,16.83-23.35,18.35C2945.39,199.91,2929.04,185.61,2926.1,162.42z
		 M2983.85,154.94c-1.85-14.58-11.47-23.66-23.42-22.15c-12.22,1.55-19.39,12.91-17.52,27.63c1.89,14.86,11.54,24.22,23.63,22.68
		C2978.63,181.57,2985.76,169.94,2983.85,154.94z"/>
	<path class="st0" d="M3015.05,168.12c-2.31-17.21,14.23-23.24,28.27-26.93c10.91-2.83,19.03-4.41,18.34-10.25
		c-1.17-7.19-7.38-11.11-16.8-9.77c-9.7,1.38-15.88,7.63-15.77,15.39l-16.49,2.35c-0.69-15.74,11.64-28.52,30.62-31.23
		c19.82-2.82,32.31,6.43,34.54,22.09l4.73,33.26c0.3,2.08,1.56,3.03,4.06,2.67l4.02-0.57l1.81,12.75l-7.76,1.1
		c-7.48,1.07-12.49-1.33-14.53-6.7c-0.38-0.65-0.79-1.58-1.05-2.4c-3.17,8.51-10.54,14.37-23.01,16.14
		C3029.11,188.46,3016.86,181.86,3015.05,168.12z M3064.89,153.67l-1.46-10.26c-2.16,4.69-9.09,6.67-16.71,8.74
		c-8.99,2.41-16.43,4.74-15.33,12.5c0.91,6.38,6.57,9.39,16.13,8.03C3058.74,171.09,3066.29,163.51,3064.89,153.67z"/>
	<path class="st0" d="M3095.42,153.46l15.77-2.48c1.79,7.8,9.22,10.88,18.21,9.47c8.3-1.3,12.22-5.18,11.33-10.85
		s-5.77-6.04-12.46-7.11l-10.18-1.66c-12.8-2.1-23.96-4.59-26.1-18.15c-2.04-13,6.57-23.14,24.13-25.9
		c17.01-2.67,30.04,4.49,34.59,20.78l-15.49,2.44c-2.13-8.17-8.69-11.11-17.13-9.78c-7.19,1.13-10.86,4.83-10.08,9.8
		c0.89,5.67,7.49,6.19,13.03,7.16l9.31,1.51c15.28,2.56,24.69,5.61,26.76,18.75c2.13,13.55-6.8,23.46-24.78,26.29
		C3112.28,176.89,3098.91,169.35,3095.42,153.46z"/>
</g>
</svg>
