<?xml version="1.0" encoding="utf-8"?>
<!-- Generator: Adobe Illustrator 28.3.0, SVG Export Plug-In . SVG Version: 6.00 Build 0)  -->
<svg version="1.1" id="Capa_1" xmlns="http://www.w3.org/2000/svg" xmlns:xlink="http://www.w3.org/1999/xlink" x="0px" y="0px"
	 viewBox="0 0 5342.78 227.2" style="enable-background:new 0 0 5342.78 227.2;" xml:space="preserve">
<style type="text/css">
	.st0{fill:#D9C6ED;}
</style>
<g>
	<path class="st0" d="M85.91,98.87l2.91,0.41c-6.52,11.24-17.28,23.45-26.71,22.13c-5.41-0.76-6.92-4.08-6.34-8.24
		c0.35-2.49,1.89-5.39,3.28-8.3l10.26-20.76l-1.66-0.23c-8.89,14.02-26.33,35.61-37.43,34.06c-7.62-1.07-9.7-8.43-8.34-18.13
		c3.32-23.71,30.44-56.8,48.88-54.22c8.18,1.15,11.23,7.65,9.25,16.71l0.14,0.02l18.9-38.06c3.11-6.07,0.93-8.63-9.33-10.07
		l1.22-2.66c13.17,1.85,17.57,1.75,21.06-1.01l1.59,0.79l-46.92,94.78c-0.96,1.84-2.38,4.9-2.63,6.7c-0.29,2.08,0.07,3.54,2.29,3.86
		C72.01,117.42,79.59,108.73,85.91,98.87z M70.37,75.63c2.11-3.95,4.47-8.7,5.25-14.25c0.82-5.82-0.44-9.96-5.43-10.66
		c-14.28-2-36.97,27.76-39.98,49.25c-0.99,7.07-0.31,11.27,3.3,11.77C42.65,113.02,62.49,90.5,70.37,75.63z"/>
	<path class="st0" d="M95.31,105.18c2.68-26.46,25.72-53.82,44.25-51.94c10.31,1.04,15.54,10.44,14.23,23.4
		c-2.67,26.32-25.81,53.25-44.47,51.35C99.02,126.94,94,118.13,95.31,105.18z M145.76,75.4c0.99-9.75-1.52-16.9-8.9-17.65
		c-12.81-1.3-31.12,25.13-33.49,48.53c-0.98,9.61,1.29,16.45,8.67,17.2C124.85,124.78,143.37,98.94,145.76,75.4z"/>
	<path class="st0" d="M154.23,111.75c2.08-24.97,23.84-55.19,42.25-53.66c6,0.5,10.14,4.78,9.55,11.89
		c-0.62,7.39-5.46,15-10.07,14.61c-2.37-0.2-3.6-2.27-3.42-4.5c0.43-5.16,7.96-4.54,8.57-11.79c0.21-2.51-0.97-5.28-5.57-5.66
		c-15.62-1.3-31.19,28.73-32.83,48.4c-0.75,9.07,1.35,15.85,7.49,16.36c7.95,0.66,17.28-8.4,24.77-20.84l2.65,0.22
		c-9.04,17.51-20.41,27.52-30.74,26.66C157.68,132.68,153.2,124.16,154.23,111.75z"/>
	<path class="st0" d="M204.27,128c0.77-11.17,13.89-32.58,22.63-49.52c1.51-3.54,3.48-7.76,3.61-9.57c0.14-2.1-0.66-2.71-1.91-2.8
		c-4.75-0.33-12.5,8.26-17.82,16.31l-2.93-0.2c6.49-10.64,16.78-21.58,25.58-20.97c3.63,0.25,5.25,3.31,5,6.8
		c-0.19,2.79-1.85,6.47-4.14,11.22C225.14,98,214,117.16,212.85,125.64c-0.53,3.61,0.76,5.25,2.72,5.38
		c6.14,0.42,15.68-7.62,27.44-25.61c7.37-11.28,18.05-29.77,19.48-40.48l10.2,0.7l-24.63,58.22c-0.83,1.91-2.17,5.04-2.3,6.86
		c-0.14,2.1,0.33,3.39,2.56,3.54c5.73,0.39,12.67-8.67,18.28-18.95l2.93,0.2c-5.71,11.68-15.59,24.61-24.94,23.96
		c-5.45-0.38-7.19-3.58-6.89-7.91c0.16-2.38,1.63-5.36,2.96-8.36l11.79-26.55l-1.12-0.08c-18.37,30.45-30.33,41.13-39.55,40.5
		C206.62,136.72,203.92,133.16,204.27,128z"/>
	<path class="st0" d="M274.39,139.59l22.8-56.26c1.46-3.57,3.24-8.1,3.33-9.78c0.11-2.1-0.7-2.7-1.95-2.77
		c-4.75-0.26-12.37,8.45-17.58,16.58l-2.94-0.16c6.33-10.74,16.46-21.83,25.27-21.35c3.63,0.2,5.29,3.23,5.11,6.58
		c-0.16,2.94-1.76,6.64-3.69,11.3l-10.6,24.95l1.12,0.06c17.13-31.6,27.23-42.14,36.46-41.64c4.47,0.24,6.94,3.88,6.68,8.77
		c-0.44,8.11-7.69,20.48-14.75,34.4l0.98,0.05c17.13-31.6,28.63-42.06,37.99-41.56c5.17,0.28,7.79,3.78,7.5,9.1
		c-0.62,11.46-13.7,33.05-21.94,50.69c-0.81,2.06-2.24,5.07-2.33,6.88c-0.11,2.1,0.37,3.53,2.61,3.65c5.73,0.31,12.54-9,18.01-19.36
		l2.94,0.16c-5.54,11.76-15.22,24.84-24.59,24.33c-5.45-0.29-7.24-3.47-7.02-7.67c0.14-2.52,1.56-5.53,2.84-8.54
		c9.05-19.7,20.25-40.13,20.66-47.68c0.19-3.5-0.84-5.23-3.08-5.35c-5.17-0.28-16.34,9.21-31.87,37.12
		c-4.51,8.17-9.24,18.01-14.49,29.5l-7.97-0.43l13.85-30.66c6.05-13.41,12.35-26.25,12.65-31.85c0.19-3.5-0.84-5.23-3.08-5.35
		c-6.57-0.35-21.73,15.65-44.96,66.7L274.39,139.59z"/>
	<path class="st0" d="M416.07,117.2l2.8,0.12c-7.93,17.87-19.27,30.4-31.58,29.86c-9.23-0.4-14.51-7.78-13.99-19.67
		c0.98-22.38,21.71-57.34,41.15-56.49c6.57,0.29,10.43,4.94,10.15,11.51c-0.64,14.55-20.33,28.96-40.33,31.3
		c-1.48,4.98-2.39,9.84-2.57,13.76c-0.37,8.53,3.34,13.32,9.21,13.58C399.73,141.57,408.72,131.45,416.07,117.2z M385.42,109.97
		c16.52-2.92,31.72-13.88,32.33-27.73c0.18-4.06-0.82-6.76-4.74-6.93C402.23,74.84,391.07,92.99,385.42,109.97z"/>
	<path class="st0" d="M425.69,147.06l21.85-56.63c1.39-3.59,3.1-8.15,3.17-9.83c0.08-2.1-0.74-2.69-2-2.74
		c-4.76-0.18-12.23,8.65-17.3,16.87l-2.94-0.11c6.15-10.84,16.09-22.1,24.9-21.77c3.64,0.14,5.35,3.14,5.22,6.5
		c-0.11,2.94-1.65,6.66-3.5,11.36l-10.18,25.12l1.12,0.04c16.59-31.89,27.92-42.54,37.15-42.19c5.18,0.19,7.85,3.65,7.65,8.97
		c-0.42,11.47-13,33.28-21.09,51.05c-0.78,2.07-2.15,5.11-2.22,6.92c-0.08,2.1,0.43,3.52,2.67,3.6c5.74,0.21,12.53-9.2,17.68-19.66
		l2.94,0.11c-5.34,11.85-14.66,25.1-24.17,24.74c-5.46-0.2-7.3-3.35-7.14-7.55c0.09-2.52,1.47-5.55,2.84-8.58
		c8.58-19.86,19.43-40.47,19.71-48.02c0.13-3.5-0.79-5.21-3.17-5.3c-6.58-0.24-22.73,15.97-45.23,67.39L425.69,147.06z"/>
	<path class="st0" d="M505.95,133.95c-0.78,2.36-1.85,5.4-1.92,7.5c-0.07,2.24,0.44,3.66,2.82,3.73
		c6.58,0.21,15.3-10.02,21.28-21.74l3.08,0.1c-6.18,13.67-17.4,27.46-28.31,27.12c-5.32-0.17-7.18-3.17-7.04-7.65
		c0.08-2.66,1.17-6.12,2.25-9.03l20.33-53.7l-11.05-0.35l1.2-2.62c12.04,0.1,16.56-5.5,22.54-17.35l3.22,0.1l-6.84,16.87l13.99,0.44
		l-1.23,3.6l-13.99-0.44L505.95,133.95z"/>
	<path class="st0" d="M595.99,127.73l2.94,0.08c-5.22,11.9-14.55,25.24-24.07,24.98c-5.46-0.15-7.33-3.28-7.22-7.48
		c0.07-2.52,1.55-5.56,2.75-8.61l8.57-21.76l-1.26-0.04c-7.26,14.65-22.17,37.77-33.51,37.47c-7.98-0.22-10.59-7.01-10.34-16.53
		c0.65-23.93,23.89-59.86,42.51-59.35c8.26,0.22,12.01,6.35,11.06,15.57l0.42,0.01l4.51-11.5c3.08,0.08,6.07-1.66,7.67-3.99
		l1.52,0.74l-23.61,59.72c-0.76,2.08-2.1,5.13-2.15,6.95c-0.06,2.1,0.46,3.51,2.7,3.57C584.24,147.72,590.8,138.23,595.99,127.73z
		 M579.34,106.41c1.65-4.16,3.47-9.15,3.62-14.75c0.16-5.88-1.55-9.85-6.59-9.98c-14.42-0.39-33.63,31.72-34.22,53.41
		c-0.18,6.72,0.97,10.53,4.61,10.63C555.99,145.97,573.32,121.79,579.34,106.41z"/>
	<path class="st0" d="M647.16,38.29l-34.79,99.47c-0.75,2.08-1.66,5.28-1.71,7.1c-0.05,2.1,0.48,3.51,2.72,3.56
		c5.74,0.13,12.26-9.38,17.41-19.9l2.94,0.07c-5.18,11.92-14.45,25.29-23.97,25.07c-5.46-0.13-7.35-3.25-7.25-7.45
		c0.06-2.52,1.11-5.71,2.16-8.77l29.4-84.61c2.39-6.39,1.04-8.66-9.32-8.9l0.9-2.78c13.44,0.31,16.96-0.45,19.83-3.46L647.16,38.29z
		"/>
	<path class="st0" d="M735.96,99.39c-0.03,1.92-1.74,3.73-3.58,3.7c-1.36-0.02-2.94-1.01-4.54-1.04c-2.8-0.05-7.05,5.08-13.46,15.14
		l0.23,10.08c0.18,8.56,1.44,9.79,2.88,9.81c1.68,0.03,3.64-2.66,7.19-8.68l1.6,0.03c-3.32,6.91-7.16,12.04-11.24,11.97
		c-3.92-0.07-4.73-4.32-4.9-13.04l-0.15-5.28c-0.91,1.58-1.89,3.17-2.88,4.67c-5.5,8.47-10.39,13.35-15.26,13.27
		c-2.32-0.04-3.19-0.61-3.17-1.81c0.04-2.08,2.07-3.88,3.75-3.86c1.6,0.03,2.55,0.84,4.39,0.88c2.56,0.04,7.3-6.2,13.07-16.1
		l-0.25-9.21c-0.17-8.72-0.72-9.61-2.24-9.64c-1.36-0.02-3.89,2.81-7.11,8.68l-1.68-0.03c4.13-7.77,7.08-12.04,11.16-11.98
		c2.96,0.05,4.13,1.75,4.38,10.8l0.13,6.72c7.56-11.63,12.61-17.31,18.69-17.21C735.27,97.3,735.98,98.19,735.96,99.39z"/>
	<path class="st0" d="M777.51,137.1c0.29-25.06,19.84-56.75,38.31-56.54c6.02,0.07,10.45,4.04,10.37,11.18
		c-0.09,7.42-4.38,15.35-9,15.3c-2.38-0.03-3.76-2-3.73-4.24c0.06-5.18,7.62-5.09,7.7-12.37c0.03-2.52-1.34-5.2-5.96-5.25
		c-15.68-0.18-29.06,30.89-29.29,50.62c-0.11,9.1,2.48,15.71,8.64,15.78c7.98,0.09,16.63-9.61,23.22-22.55l2.66,0.03
		c-7.77,18.11-18.39,28.91-28.75,28.79C782.45,157.74,777.37,149.56,777.51,137.1z"/>
	<path class="st0" d="M827.8,136.97c0.23-26.6,20.64-55.97,39.26-55.81c10.36,0.09,16.44,8.96,16.33,21.98
		c-0.23,26.46-20.78,55.4-39.54,55.24C833.5,158.31,827.69,150,827.8,136.97z M875.28,102.66c0.08-9.8-3.08-16.69-10.5-16.75
		c-12.88-0.11-28.66,27.89-28.87,51.42c-0.08,9.66,2.8,16.26,10.22,16.33C859.02,153.77,875.08,126.32,875.28,102.66z"/>
	<path class="st0" d="M888.7,156.98l20.01-57.31c1.28-3.63,2.84-8.25,2.85-9.93c0.01-2.1-0.83-2.66-2.09-2.67
		c-4.76-0.02-11.94,9.04-16.74,17.42l-2.94-0.01c5.79-11.03,15.37-22.61,24.19-22.57c3.64,0.02,5.45,2.96,5.43,6.33
		c-0.01,2.94-1.43,6.71-3.13,11.47l-9.36,25.44l1.12,0.01c15.55-32.41,25.12-43.42,34.36-43.38c4.48,0.02,7.12,3.53,7.1,8.43
		c-0.04,8.12-6.68,20.83-13.04,35.08l0.98,0c15.55-32.41,26.52-43.42,35.9-43.37c5.18,0.02,7.96,3.4,7.94,8.72
		c-0.05,11.48-12.06,33.68-19.42,51.71c-0.71,2.1-1.98,5.17-1.99,6.99c-0.01,2.1,0.54,3.5,2.78,3.51
		c5.74,0.03,12.08-9.6,17.04-20.22l2.94,0.01c-4.96,12.02-13.98,25.55-23.36,25.51c-5.46-0.03-7.41-3.12-7.39-7.31
		c0.01-2.52,1.29-5.59,2.42-8.67c8.08-20.12,18.25-41.08,18.29-48.64c0.02-3.5-1.1-5.18-3.34-5.2c-5.18-0.02-15.87,10.01-30,38.64
		c-4.1,8.38-8.35,18.44-13.02,30.18l-7.98-0.04l12.33-31.3c5.38-13.7,11.05-26.83,11.07-32.43c0.02-3.5-1.1-5.19-3.34-5.2
		c-6.58-0.03-20.94,16.7-41.62,68.83L888.7,156.98z"/>
	<path class="st0" d="M1029.52,128.05l2.8,0c-7.16,18.19-17.96,31.2-30.28,31.18c-9.24-0.01-14.83-7.16-14.82-19.06
		c0.03-22.4,19.26-58.21,38.72-58.19c6.58,0.01,10.63,4.49,10.63,11.07c-0.02,14.56-19.08,29.79-38.96,32.99
		c-1.27,5.04-1.97,9.94-1.98,13.86c-0.01,8.54,3.9,13.17,9.78,13.17C1014.23,153.09,1022.78,142.6,1029.52,128.05z M998.59,122.13
		c16.38-3.62,31.1-15.22,31.12-29.08c0.01-4.06-1.11-6.72-5.03-6.73C1013.89,86.31,1003.51,104.92,998.59,122.13z"/>
	<path class="st0" d="M1101.19,132.61l2.94,0c-4.89,12.05-13.83,25.64-23.35,25.65c-5.46,0.01-7.42-3.07-7.43-7.27
		c0-2.52,1.11-5.6,2.09-8.68l7.25-21.99l-1.68,0c-6.84,15.13-21.09,38.95-32.29,38.96c-7.7,0.01-10.79-6.99-10.8-16.79
		c-0.03-23.94,22.19-60.51,40.81-60.53c8.26-0.01,12.19,6.01,11.5,15.25h0.14l13.39-40.34c2.23-6.44-0.29-8.68-10.65-8.67l0.84-2.8
		c13.3-0.02,17.64-0.72,20.71-3.95l1.68,0.56l-33.2,100.42c-0.7,1.96-1.67,5.18-1.67,7c0,2.1,0.56,3.5,2.8,3.5
		C1090.01,152.93,1096.3,143.26,1101.19,132.61z M1082.54,111.77c1.54-4.2,3.21-9.24,3.2-14.84c-0.01-5.88-1.83-9.8-6.87-9.79
		c-14.42,0.02-32.72,32.66-32.69,54.36c0.01,7.14,1.27,11.2,4.91,11.19C1060.33,152.68,1076.82,127.6,1082.54,111.77z"/>
	<path class="st0" d="M1130.24,99.89c1.25-3.78,2.77-8.27,2.77-9.95c-0.01-2.1-0.85-2.66-2.11-2.65
		c-4.76,0.02-11.87,9.14-16.6,17.56l-2.94,0.01c5.7-11.08,15.18-22.73,24-22.76c3.64-0.01,5.47,2.92,5.48,6.28
		c0.01,2.94-1.1,6.86-2.9,11.63l-14.7,42.33c-0.69,2.1-1.8,5.19-1.8,7.01c0.01,2.1,0.57,3.5,2.81,3.49
		c5.74-0.02,12.15-9.7,16.87-20.36l2.94-0.01c-4.86,12.06-13.63,25.67-23.15,25.7c-5.46,0.02-7.43-3.05-7.44-7.26
		c-0.01-2.52,1.1-5.6,2.21-8.69L1130.24,99.89z M1136.82,58.29c-0.01-4.2,2.78-6.73,6.98-6.74c4.06-0.01,6.73,2.5,6.74,6.7
		c0.01,4.06-2.64,6.73-6.7,6.74C1139.65,65,1136.84,62.34,1136.82,58.29z"/>
	<path class="st0" d="M1209.9,132.13l2.94-0.02c-4.84,12.07-13.72,25.7-23.24,25.75c-5.46,0.03-7.44-3.04-7.46-7.24
		c-0.01-2.52,1.37-5.61,2.47-8.69l7.86-22.02l-1.26,0.01c-6.78,14.88-20.93,38.47-32.27,38.53c-7.98,0.04-10.82-6.66-10.87-16.18
		c-0.13-23.94,21.94-60.6,40.56-60.7c8.26-0.04,12.21,5.96,11.56,15.2l0.42,0l4.14-11.64c3.08-0.02,6.01-1.85,7.54-4.24l1.54,0.69
		l-21.66,60.46c-0.69,2.1-1.93,5.19-1.92,7.01c0.01,2.1,0.58,3.5,2.82,3.48C1198.81,152.49,1205.05,142.79,1209.9,132.13z
		 M1192.56,111.36c1.52-4.21,3.17-9.26,3.14-14.86c-0.03-5.88-1.87-9.79-6.91-9.76c-14.42,0.08-32.59,32.8-32.47,54.49
		c0.04,6.72,1.32,10.49,4.96,10.47C1170.52,151.66,1187.05,126.93,1192.56,111.36z"/>
	<path class="st0" d="M1314.45,100.17c0.02,1.92-1.65,3.77-3.49,3.79c-1.36,0.01-2.97-0.93-4.57-0.92
		c-2.8,0.03-6.91,5.26-13.06,15.48l0.49,10.08c0.4,8.56,1.69,9.75,3.13,9.73c1.68-0.02,3.58-2.75,6.96-8.87l1.6-0.01
		c-3.14,6.99-6.85,12.22-10.93,12.26c-3.92,0.04-4.84-4.2-5.24-12.91l-0.29-5.28c-0.87,1.61-1.81,3.22-2.76,4.75
		c-5.28,8.61-10.04,13.61-14.92,13.66c-2.32,0.02-3.21-0.53-3.22-1.73c-0.02-2.08,1.96-3.94,3.64-3.95c1.6-0.01,2.57,0.78,4.41,0.76
		c2.56-0.02,7.14-6.39,12.65-16.44l-0.48-9.2c-0.4-8.72-0.97-9.59-2.49-9.58c-1.36,0.01-3.81,2.92-6.88,8.86l-1.68,0.01
		c3.93-7.88,6.77-12.22,10.85-12.26c2.96-0.03,4.17,1.64,4.66,10.68l0.3,6.72c7.25-11.83,12.16-17.63,18.24-17.69
		C1313.71,98.09,1314.44,98.97,1314.45,100.17z"/>
	<path class="st0" d="M1418.86,130.09l2.94-0.04c-4.75,12.1-13.55,25.79-23.07,25.9c-5.46,0.07-7.46-2.99-7.51-7.19
		c-0.03-2.52,1.05-5.61,2-8.7l7.01-22.07l-1.68,0.02c-6.68,15.2-20.67,39.17-31.87,39.31c-7.7,0.09-10.86-6.87-10.98-16.67
		c-0.29-23.94,21.53-60.74,40.14-60.97c8.26-0.1,12.25,5.87,11.66,15.12l0.14,0l12.95-40.48c2.16-6.47-0.39-8.68-10.74-8.55
		l0.81-2.81c13.3-0.16,17.63-0.91,20.67-4.17l1.69,0.54l-32.1,100.77c-0.68,1.97-1.62,5.2-1.6,7.02c0.03,2.1,0.6,3.49,2.84,3.46
		C1407.91,150.52,1414.09,140.79,1418.86,130.09z M1399.99,109.46c1.49-4.22,3.11-9.28,3.04-14.88c-0.07-5.88-1.94-9.78-6.98-9.72
		c-14.42,0.17-32.36,33.01-32.1,54.71c0.09,7.14,1.39,11.18,5.03,11.14C1378.23,150.6,1394.44,125.34,1399.99,109.46z"/>
	<path class="st0" d="M1429.74,154.72l18.1-57.66c1.07-3.66,2.41-8.29,2.38-9.97c-0.03-2.1-0.88-2.65-2.14-2.63
		c-4.76,0.07-11.77,9.26-16.41,17.73l-2.94,0.04c5.58-11.14,14.94-22.89,23.76-23.01c3.64-0.05,5.5,2.86,5.55,6.22
		c0.04,2.94-1.31,6.74-2.92,11.52l-8.88,25.61l0.98-0.01c11.43-33.9,24.17-43.88,34.25-44.02c2.94-0.04,4.5,1.2,4.53,3.44
		c0.04,3.08-2.29,6.19-5.23,6.23c-2.38,0.03-3.66-1.35-6.46-1.31c-7.56,0.11-19.94,15.68-36.44,67.71L1429.74,154.72z"/>
	<path class="st0" d="M1536.56,128.36l2.94-0.04c-4.71,12.12-13.46,25.83-22.98,25.98c-5.46,0.09-7.47-2.96-7.53-7.16
		c-0.04-2.52,1.31-5.62,2.38-8.72l7.64-22.1l-1.26,0.02c-6.63,14.94-20.54,38.68-31.88,38.86c-7.98,0.12-10.88-6.55-11.03-16.07
		c-0.37-23.94,21.32-60.82,39.94-61.11c8.26-0.13,12.27,5.83,11.71,15.08l0.42-0.01l4.02-11.68c3.08-0.05,5.99-1.91,7.49-4.32
		l1.55,0.68l-21.04,60.67c-0.67,2.11-1.88,5.21-1.85,7.03c0.03,2.1,0.61,3.49,2.85,3.46
		C1525.68,148.83,1531.83,139.08,1536.56,128.36z M1519.02,107.77c1.48-4.22,3.08-9.29,2.99-14.89c-0.09-5.88-1.97-9.77-7.01-9.69
		c-14.42,0.22-32.25,33.12-31.92,54.82c0.1,6.72,1.42,10.48,5.06,10.42C1497.39,148.29,1513.66,123.4,1519.02,107.77z"/>
	<path class="st0" d="M1546.4,153l18.72-57.74c1.2-3.66,2.65-8.31,2.62-9.99c-0.04-2.1-0.89-2.64-2.15-2.62
		c-4.76,0.08-11.74,9.31-16.35,17.79l-2.94,0.05c5.54-11.16,14.86-22.95,23.68-23.1c3.64-0.06,5.51,2.84,5.57,6.2
		c0.05,2.94-1.28,6.74-2.88,11.53l-8.79,25.64l1.12-0.02c14.83-32.75,24.15-43.97,33.39-44.14c4.48-0.08,7.2,3.37,7.29,8.27
		c0.14,8.12-6.21,20.97-12.26,35.36l0.98-0.02c14.83-32.75,25.55-44,34.93-44.17c5.18-0.09,8.04,3.22,8.13,8.54
		c0.2,11.48-11.3,33.95-18.26,52.13c-0.66,2.11-1.87,5.21-1.84,7.04c0.04,2.1,0.62,3.49,2.86,3.45c5.74-0.1,11.87-9.87,16.58-20.6
		l2.94-0.05c-4.69,12.12-13.41,25.86-22.79,26.03c-5.46,0.1-7.47-2.95-7.55-7.15c-0.04-2.52,1.16-5.62,2.23-8.72
		c7.62-20.3,17.33-41.47,17.2-49.03c-0.06-3.5-1.21-5.16-3.45-5.12c-5.18,0.09-15.64,10.36-29.13,39.3
		c-3.91,8.47-7.93,18.62-12.34,30.46l-7.98,0.14l11.62-31.57c5.08-13.81,10.44-27.07,10.34-32.67c-0.06-3.5-1.21-5.16-3.45-5.12
		c-6.58,0.12-20.56,17.17-40.08,69.74L1546.4,153z"/>
	<path class="st0" d="M1705.6,125.26l2.94-0.06c-4.66,12.13-13.35,25.89-22.87,26.08c-5.46,0.11-7.48-2.93-7.56-7.13
		c-0.05-2.52,1.29-5.63,2.35-8.73l7.54-22.13l-1.26,0.02c-6.57,14.97-20.38,38.77-31.72,38.99c-7.98,0.16-10.91-6.51-11.1-16.02
		c-0.47-23.93,21.06-60.91,39.68-61.27c8.26-0.16,12.3,5.78,11.78,15.03l0.42-0.01l3.97-11.7c3.08-0.06,5.98-1.94,7.48-4.35
		l1.55,0.67l-20.78,60.76c-0.66,2.11-1.86,5.22-1.82,7.04c0.04,2.1,0.63,3.49,2.87,3.44C1694.8,145.77,1700.91,135.99,1705.6,125.26
		z M1687.97,104.74c1.46-4.23,3.04-9.3,2.93-14.9c-0.12-5.88-2.01-9.76-7.05-9.66c-14.42,0.28-32.11,33.26-31.68,54.95
		c0.13,6.72,1.47,10.47,5.11,10.4C1666.51,145.35,1682.68,120.39,1687.97,104.74z"/>
	<path class="st0" d="M1781.92,92.51c0.04,1.92-1.6,3.8-3.44,3.84c-1.36,0.03-2.98-0.9-4.58-0.86c-2.8,0.06-6.85,5.35-12.86,15.64
		l0.62,10.07c0.51,8.55,1.81,9.72,3.25,9.69c1.68-0.04,3.54-2.8,6.85-8.95l1.6-0.04c-3.05,7.03-6.69,12.31-10.77,12.4
		c-3.92,0.09-4.89-4.13-5.4-12.85l-0.35-5.27c-0.84,1.62-1.77,3.24-2.7,4.78c-5.17,8.68-9.86,13.74-14.74,13.85
		c-2.32,0.05-3.21-0.49-3.24-1.69c-0.05-2.08,1.91-3.96,3.59-4c1.6-0.04,2.58,0.74,4.42,0.7c2.56-0.05,7.06-6.47,12.44-16.6
		l-0.6-9.19c-0.51-8.71-1.09-9.58-2.61-9.55c-1.36,0.03-3.78,2.96-6.77,8.95l-1.68,0.04c3.83-7.93,6.61-12.31,10.69-12.4
		c2.96-0.06,4.2,1.59,4.79,10.62l0.39,6.71c7.1-11.92,11.94-17.79,18.02-17.92C1781.16,90.45,1781.9,91.31,1781.92,92.51z"/>
	<path class="st0" d="M1852.96,79.98c0.63,27.29-21.51,69.12-40.12,69.55c-7.98,0.18-12.99-4.74-13.27-16.5
		c-0.38-16.38,13.31-36.3,26.8-52.15l-0.84,0.02c-3.22,0.07-11.26-2.54-14.34-2.47c-2.1,0.05-3.05,1.33-3.01,2.87
		c0.06,2.8,3.17,3.85,3.24,7.07c0.05,2.24-1.59,3.82-3.41,3.86c-1.54,0.04-3.1-0.91-3.18-4.13c-0.04-1.68,0.45-4.63,2.19-8.31
		c2-4.53,4.46-6.83,9.08-6.93c3.5-0.08,10.95,1.15,13.89,1.08c1.96-0.04,2.78-0.76,3.88-1.77l0.14-0.14l1.87,2.06
		c-14.47,16.16-28.49,39.87-28.1,56.53c0.16,6.86,2.1,12.13,8.54,11.99c14.28-0.33,31.4-34.9,31-52.39
		c-0.14-5.88-3.89-10.83-3.98-14.75c-0.04-1.96,0.75-4.08,3.69-4.15C1850.65,71.21,1852.83,74.38,1852.96,79.98z"/>
	<path class="st0" d="M1876.45,88.8c1.17-3.81,2.6-8.33,2.56-10c-0.05-2.1-0.9-2.64-2.16-2.61c-4.76,0.12-11.68,9.38-16.23,17.9
		l-2.94,0.07c5.47-11.2,14.71-23.04,23.52-23.26c3.64-0.09,5.53,2.81,5.61,6.17c0.07,2.94-0.95,6.88-2.66,11.69l-13.81,42.62
		c-0.65,2.12-1.69,5.22-1.65,7.04c0.05,2.1,0.64,3.48,2.88,3.43c5.74-0.14,11.94-9.95,16.44-20.7l2.94-0.07
		c-4.61,12.15-13.1,25.94-22.61,26.17c-5.46,0.13-7.49-2.9-7.59-7.1c-0.06-2.52,0.98-5.62,2.03-8.73L1876.45,88.8z M1882.16,47.07
		c-0.1-4.2,2.64-6.79,6.83-6.89c4.06-0.1,6.78,2.36,6.88,6.55c0.1,4.06-2.5,6.78-6.56,6.88
		C1885.12,53.72,1882.26,51.13,1882.16,47.07z"/>
	<path class="st0" d="M1958.23,119.38l2.94-0.07c-4.59,12.16-13.21,25.96-22.72,26.2c-5.46,0.14-7.5-2.89-7.6-7.09
		c-0.06-2.52,0.98-5.63,1.88-8.73l6.72-22.16l-1.68,0.04c-6.47,15.29-20.15,39.44-31.34,39.72c-7.7,0.2-10.95-6.72-11.2-16.52
		c-0.61-23.93,20.72-61.02,39.34-61.49c8.26-0.21,12.33,5.71,11.86,14.96l0.14,0l12.42-40.65c2.08-6.5-0.5-8.67-10.86-8.41
		l0.77-2.82c13.3-0.34,17.62-1.15,20.61-4.44l1.69,0.52l-30.77,101.19c-0.65,1.98-1.55,5.22-1.5,7.04c0.05,2.1,0.65,3.48,2.89,3.43
		C1947.54,139.96,1953.6,130.15,1958.23,119.38z M1939.09,99c1.43-4.24,2.99-9.32,2.84-14.92c-0.15-5.88-2.07-9.75-7.11-9.62
		c-14.42,0.37-31.92,33.44-31.38,55.13c0.18,7.14,1.54,11.16,5.18,11.07C1917.87,140.43,1933.75,114.96,1939.09,99z"/>
	<path class="st0" d="M2008,113.44l2.8-0.07c-6.66,18.38-17.09,31.69-29.4,32.01c-9.24,0.24-15.02-6.75-15.34-18.64
		c-0.59-22.39,17.63-58.73,37.08-59.24c6.58-0.17,10.75,4.2,10.93,10.77c0.39,14.55-18.24,30.31-38.03,34.06
		c-1.13,5.07-1.7,9.99-1.59,13.91c0.23,8.54,4.27,13.05,10.14,12.9C1993.41,138.9,2001.67,128.18,2008,113.44z M1976.91,108.39
		c16.28-4.07,30.67-16.08,30.3-29.93c-0.11-4.06-1.3-6.69-5.22-6.58C1991.22,72.15,1981.36,91.04,1976.91,108.39z"/>
	<path class="st0" d="M2018.44,123.11c-0.73-26.59,18.61-56.68,37.22-57.19c10.36-0.29,16.76,8.36,17.12,21.38
		c0.73,26.45-18.76,56.12-37.51,56.64C2024.9,144.22,2018.8,136.13,2018.44,123.11z M2064.64,87.1c-0.27-9.8-3.68-16.57-11.1-16.36
		c-12.88,0.36-27.63,28.91-26.99,52.43c0.27,9.66,3.39,16.15,10.8,15.95C2050.24,138.76,2065.3,110.76,2064.64,87.1z"/>
	<path class="st0" d="M2167.81,80.35c0.61,20.85-17.31,59.61-35.5,60.14c-5.46,0.16-10.3-2.64-12.96-7.32l-6.98,24.86
		c-2.42,8.33-1.53,9.85,11.2,9.48l-1.45,2.98l-29.95,0.88l0.75-2.96c5.88-0.17,9.2-1.67,11.61-10.14l22.97-81.48
		c-4.64,9.1-12.32,19.41-21.52,25.56l-1.61-2.19c13.18-9.07,23.05-25.88,27.32-38.19l3.43-12.14l7.7-0.22l-13.91,46.49l0.98-0.03
		c6.41-15.59,16-32.54,26.63-32.85C2162.82,62.99,2167.47,68.74,2167.81,80.35z M2159.6,82.13c-0.26-8.82-2.74-12.25-6.24-12.14
		c-9.8,0.29-24.48,29.71-29.31,46.66l-1.52,5.65c0.1,8.26,3.91,13.89,9.37,13.73C2146.03,135.61,2160.17,101.86,2159.6,82.13z"/>
	<path class="st0" d="M2173.1,118.7c-0.81-26.59,18.44-56.73,37.06-57.29c10.35-0.32,16.78,8.31,17.18,21.33
		c0.8,26.45-18.6,56.17-37.35,56.74C2179.62,139.8,2173.49,131.72,2173.1,118.7z M2219.2,82.57c-0.3-9.8-3.72-16.56-11.14-16.33
		c-12.87,0.39-27.55,28.99-26.84,52.5c0.29,9.65,3.43,16.14,10.85,15.92C2204.95,134.26,2219.92,106.21,2219.2,82.57z"/>
	<path class="st0" d="M2274.34,105.64l2.8-0.09c-6.57,18.42-16.94,31.77-29.25,32.15c-9.24,0.29-15.06-6.67-15.43-18.57
		c-0.7-22.39,17.35-58.81,36.8-59.42c6.58-0.21,10.78,4.15,10.98,10.72c0.46,14.55-18.1,30.4-37.87,34.24
		c-1.1,5.08-1.65,10-1.53,13.91c0.27,8.54,4.33,13.03,10.21,12.85C2259.87,131.17,2268.08,120.41,2274.34,105.64z M2243.23,100.73
		c16.26-4.15,30.59-16.23,30.16-30.08c-0.13-4.06-1.33-6.68-5.25-6.56C2257.36,64.43,2247.59,83.37,2243.23,100.73z"/>
	<path class="st0" d="M2280.99,122.38c-0.1-3.08,1.67-4.82,4.04-4.89c2.24-0.07,2.85,1.59,4.08,5.05c2.15,5.96,5.63,9.62,12.49,9.4
		c7.56-0.24,11.15-6.1,10.91-13.66c-0.16-4.9-2.1-8.76-5.19-13.42l-4.43-7.14c-5.45-8.37-8.12-13.04-8.32-19.2
		c-0.37-11.61,8.74-20.17,20.21-20.54c9.51-0.31,15.18,6.09,15.33,10.57c0.09,2.94-1.95,4.68-4.05,4.75
		c-2.24,0.07-3.14-1.86-4.06-4.35c-1.67-4.01-3.87-7.16-9.75-6.97c-6.58,0.21-10.91,4.69-10.67,12.39
		c0.15,4.62,2.27,9.59,5.66,14.81l4.29,7.01c5.61,9.06,7.83,12.49,8.01,18.37c0.4,12.31-8,21.13-19.62,21.5
		C2288.86,136.41,2281.21,129.24,2280.99,122.38z"/>
	<path class="st0" d="M2350.58,75.17c1.14-3.82,2.53-8.35,2.47-10.03c-0.07-2.1-0.93-2.63-2.19-2.59
		c-4.76,0.16-11.59,9.49-16.08,18.04l-2.94,0.1c5.37-11.24,14.51-23.17,23.32-23.46c3.64-0.12,5.55,2.76,5.66,6.12
		c0.1,2.94-0.89,6.89-2.56,11.71l-13.44,42.74c-0.63,2.12-1.65,5.24-1.59,7.05c0.07,2.1,0.67,3.48,2.91,3.41
		c5.74-0.19,11.86-10.05,16.26-20.84l2.94-0.1c-4.5,12.2-12.87,26.06-22.39,26.37c-5.46,0.18-7.52-2.83-7.66-7.03
		c-0.08-2.52,0.94-5.63,1.95-8.75L2350.58,75.17z M2359.11,44.91l15.69-25.45l9.93-0.33l-22.27,25.66L2359.11,44.91z"/>
	<path class="st0" d="M2431.24,105.13l2.94-0.1c-4.5,12.2-13.01,26.06-22.53,26.37c-5.46,0.18-7.52-2.83-7.65-7.03
		c-0.08-2.52,1.21-5.64,2.23-8.76l7.25-22.23l-1.26,0.04c-6.37,15.06-19.87,39.03-31.2,39.4c-7.98,0.26-11-6.36-11.31-15.88
		c-0.79-23.93,20.26-61.18,38.87-61.79c8.25-0.27,12.37,5.62,11.97,14.88l0.42-0.01l3.82-11.75c3.08-0.1,5.96-2.02,7.42-4.45
		l1.56,0.65l-19.99,61.03c-0.63,2.12-1.79,5.24-1.73,7.06c0.07,2.1,0.67,3.48,2.91,3.41
		C2420.71,125.79,2426.69,115.93,2431.24,105.13z M2413.34,84.85c1.4-4.25,2.92-9.34,2.73-14.94c-0.19-5.88-2.14-9.74-7.18-9.57
		c-14.41,0.47-31.67,33.68-30.96,55.36c0.22,6.72,1.6,10.45,5.24,10.33C2392.41,125.73,2408.26,100.56,2413.34,84.85z"/>
	<path class="st0" d="M2507.48,71.77c0.05,1.92-1.57,3.81-3.41,3.86c-1.36,0.04-2.99-0.88-4.58-0.83
		c-2.8,0.08-6.81,5.39-12.77,15.72l0.68,10.07c0.56,8.55,1.87,9.71,3.31,9.67c1.68-0.05,3.52-2.82,6.79-8.99l1.6-0.04
		c-3.01,7.05-6.62,12.35-10.7,12.46c-3.92,0.11-4.92-4.1-5.48-12.81l-0.39-5.27c-0.84,1.62-1.75,3.25-2.67,4.8
		c-5.12,8.71-9.78,13.8-14.66,13.93c-2.32,0.06-3.21-0.47-3.25-1.67c-0.06-2.08,1.89-3.97,3.57-4.02c1.6-0.04,2.58,0.73,4.42,0.68
		c2.56-0.07,7.02-6.52,12.34-16.67l-0.66-9.19c-0.56-8.71-1.15-9.57-2.67-9.53c-1.36,0.04-3.76,2.99-6.71,8.99l-1.68,0.05
		c3.78-7.95,6.54-12.35,10.62-12.46c2.96-0.08,4.21,1.56,4.86,10.59l0.43,6.71c7.03-11.96,11.83-17.86,17.91-18.03
		C2506.7,69.71,2507.45,70.57,2507.48,71.77z"/>
	<path class="st0" d="M2611.23,100.56l2.94-0.06c-4.65,12.14-13.33,25.9-22.85,26.1c-5.46,0.11-7.48-2.93-7.57-7.12
		c-0.05-2.52,1.28-5.63,2.34-8.73l7.53-22.14l-1.26,0.03c-6.55,14.98-20.35,38.79-31.68,39.02c-7.98,0.16-10.92-6.5-11.11-16.02
		c-0.49-23.93,21.01-60.92,39.62-61.31c8.26-0.17,12.3,5.77,11.79,15.02l0.42-0.01l3.96-11.7c3.08-0.06,5.98-1.94,7.47-4.35
		l1.55,0.67l-20.73,60.78c-0.66,2.12-1.85,5.22-1.82,7.04c0.04,2.1,0.63,3.49,2.87,3.44
		C2600.45,121.08,2606.55,111.29,2611.23,100.56z M2593.58,80.06c1.45-4.23,3.03-9.3,2.91-14.9c-0.12-5.88-2.02-9.76-7.06-9.66
		c-14.42,0.3-32.08,33.29-31.63,54.98c0.14,6.72,1.48,10.47,5.12,10.4C2572.15,120.69,2588.3,95.71,2593.58,80.06z"/>
	<path class="st0" d="M2621.15,125.15l18.82-57.71c1.2-3.66,2.67-8.3,2.64-9.98c-0.03-2.1-0.88-2.65-2.14-2.63
		c-4.76,0.08-11.75,9.29-16.38,17.76l-2.94,0.05c5.56-11.15,14.9-22.92,23.72-23.06c3.64-0.06,5.51,2.85,5.56,6.21
		c0.05,2.94-1.29,6.74-2.9,11.53l-8.83,25.62l1.12-0.02c14.88-32.72,25.62-43.95,34.86-44.1c5.18-0.08,8.03,3.23,8.12,8.55
		c0.18,11.48-11.22,33.92-18.35,52.1c-0.67,2.11-1.88,5.21-1.85,7.03c0.03,2.1,0.62,3.49,2.86,3.46
		c5.74-0.09,12.03-9.85,16.62-20.57l2.94-0.05c-4.71,12.12-13.31,25.84-22.83,25.99c-5.46,0.09-7.47-2.96-7.54-7.16
		c-0.04-2.52,1.17-5.62,2.38-8.72c7.52-20.28,17.26-41.44,17.14-49c-0.06-3.5-1.06-5.16-3.44-5.13c-6.58,0.1-21.85,17.15-41.6,69.69
		L2621.15,125.15z"/>
	<path class="st0" d="M2711.06,66.43c1.21-3.79,2.7-8.29,2.68-9.97c-0.03-2.1-0.87-2.65-2.13-2.63c-4.76,0.06-11.79,9.25-16.44,17.7
		l-2.94,0.04c5.6-11.13,14.98-22.87,23.8-22.97c3.64-0.04,5.5,2.87,5.54,6.23c0.04,2.94-1.04,6.87-2.8,11.66l-14.32,42.46
		c-0.67,2.11-1.76,5.2-1.73,7.02c0.03,2.1,0.6,3.49,2.84,3.46c5.74-0.07,12.06-9.81,16.69-20.51l2.94-0.04
		c-4.75,12.1-13.4,25.79-22.92,25.9c-5.46,0.07-7.46-2.99-7.51-7.19c-0.03-2.52,1.05-5.61,2.13-8.71L2711.06,66.43z M2717.27,24.77
		c-0.05-4.2,2.72-6.75,6.92-6.81c4.06-0.05,6.75,2.44,6.8,6.64c0.05,4.06-2.58,6.75-6.64,6.8
		C2720.15,31.45,2717.31,28.83,2717.27,24.77z"/>
	<path class="st0" d="M2731.95,123.52l19.27-57.56c1.23-3.65,2.73-8.28,2.72-9.96c-0.02-2.1-0.86-2.65-2.12-2.64
		c-4.76,0.04-11.83,9.2-16.52,17.64l-2.94,0.02c5.65-11.11,15.08-22.8,23.89-22.88c3.64-0.03,5.48,2.9,5.51,6.26
		c0.02,2.94-1.34,6.73-2.99,11.5l-9.03,25.56l1.12-0.01c15.13-32.61,24.56-43.74,33.8-43.82c4.48-0.04,7.17,3.44,7.21,8.34
		c0.07,8.12-6.41,20.91-12.59,35.25l0.98-0.01c15.13-32.61,25.96-43.75,35.34-43.83c5.18-0.04,8.01,3.29,8.05,8.61
		c0.09,11.48-11.62,33.84-18.76,51.96c-0.68,2.11-1.92,5.2-1.9,7.02c0.02,2.1,0.59,3.5,2.83,3.48c5.74-0.05,11.96-9.76,16.77-20.44
		l2.94-0.02c-4.8,12.08-13.65,25.73-23.03,25.81c-5.46,0.04-7.45-3.02-7.48-7.22c-0.02-2.52,1.21-5.61,2.31-8.7
		c7.82-20.23,17.72-41.31,17.66-48.87c-0.03-3.5-1.16-5.17-3.4-5.15c-5.18,0.04-15.74,10.21-29.5,39.02
		c-3.99,8.43-8.11,18.55-12.63,30.35l-7.98,0.06l11.92-31.46c5.21-13.76,10.7-26.97,10.65-32.57c-0.03-3.5-1.16-5.17-3.4-5.15
		c-6.58,0.05-20.72,16.97-40.74,69.36L2731.95,123.52z"/>
	<path class="st0" d="M2891.49,97.78l2.94-0.01c-4.86,12.06-13.77,25.67-23.29,25.7c-5.46,0.02-7.43-3.05-7.44-7.25
		c-0.01-2.52,1.38-5.61,2.49-8.69l7.91-22.01l-1.26,0c-6.81,14.86-21.01,38.43-32.35,38.47c-7.98,0.03-10.8-6.68-10.83-16.2
		c-0.08-23.94,22.06-60.56,40.68-60.62c8.26-0.03,12.2,5.98,11.53,15.22l0.42,0l4.16-11.63c3.08-0.01,6.01-1.84,7.55-4.23l1.54,0.69
		l-21.78,60.41c-0.69,2.1-1.94,5.19-1.94,7.01c0.01,2.1,0.57,3.5,2.81,3.49C2880.36,118.12,2886.62,108.44,2891.49,97.78z
		 M2874.2,76.98c1.53-4.21,3.19-9.25,3.17-14.85c-0.02-5.88-1.85-9.79-6.89-9.78c-14.42,0.05-32.65,32.73-32.58,54.43
		c0.02,6.72,1.3,10.5,4.94,10.48C2852.07,117.23,2868.65,92.54,2874.2,76.98z"/>
	<path class="st0" d="M2899.91,103.79c-0.01-25.06,19.16-56.99,37.64-56.99c6.02,0,10.5,3.92,10.5,11.06c0,7.42-4.2,15.4-8.82,15.4
		c-2.38,0-3.78-1.96-3.78-4.2c0-5.18,7.56-5.18,7.56-12.46c0-2.52-1.4-5.18-6.02-5.18c-15.68,0.01-28.69,31.23-28.68,50.97
		c0,9.1,2.67,15.68,8.82,15.68c7.98,0,16.52-9.8,22.95-22.83l2.66,0c-7.55,18.2-18.05,29.13-28.41,29.13
		C2905.1,124.37,2899.91,116.25,2899.91,103.79z"/>
	<path class="st0" d="M2970.91,65.19c1.27-3.78,2.82-8.25,2.82-9.93c0-2.1-0.83-2.66-2.09-2.66c-4.76-0.01-11.92,9.08-16.69,17.47
		l-2.94-0.01c5.76-11.05,15.3-22.65,24.12-22.63c3.64,0.01,5.45,2.95,5.45,6.31c-0.01,2.94-1.13,6.86-2.96,11.61l-14.92,42.25
		c-0.7,2.1-1.83,5.18-1.83,7c0,2.1,0.55,3.5,2.79,3.51c5.74,0.01,12.2-9.64,16.98-20.27l2.94,0.01
		c-4.92,12.03-13.77,25.59-23.29,25.57c-5.46-0.01-7.41-3.09-7.41-7.29c0-2.52,1.13-5.6,2.26-8.68L2970.91,65.19z M2977.71,23.62
		c0.01-4.2,2.81-6.71,7.01-6.71c4.06,0.01,6.71,2.53,6.71,6.73c-0.01,4.06-2.67,6.71-6.73,6.71
		C2980.5,30.35,2977.7,27.68,2977.71,23.62z"/>
	<path class="st0" d="M2990.32,103.16c0.12-26.6,20.41-56.05,39.03-55.97c10.36,0.05,16.48,8.89,16.42,21.91
		c-0.12,26.46-20.54,55.49-39.3,55.41C2996.11,124.46,2990.26,116.18,2990.32,103.16z M3037.65,68.64
		c0.04-9.8-3.15-16.67-10.57-16.71c-12.88-0.06-28.54,28.02-28.65,51.54c-0.04,9.66,2.87,16.25,10.29,16.28
		C3021.61,119.81,3037.55,92.3,3037.65,68.64z M3035.14,35.45l16.63-24.85l9.94,0.04l-23.21,24.82L3035.14,35.45z"/>
	<path class="st0" d="M3051.31,122.88l20.16-57.26c1.29-3.63,2.86-8.24,2.87-9.92c0.02-2.1-0.82-2.67-2.08-2.68
		c-4.76-0.03-11.97,9.01-16.79,17.38l-2.94-0.02c5.82-11.02,15.43-22.57,24.25-22.5c3.64,0.03,5.44,2.98,5.41,6.34
		c-0.02,2.94-1.45,6.71-3.16,11.46l-9.43,25.41l1.12,0.01c15.64-32.37,26.64-43.35,35.88-43.28c5.18,0.04,7.96,3.42,7.92,8.74
		c-0.08,11.48-12.01,33.65-19.56,51.66c-0.71,2.09-2,5.17-2.01,6.99c-0.02,2.1,0.53,3.5,2.77,3.52c5.74,0.04,12.25-9.57,17.09-20.18
		l2.94,0.02c-4.99,12-13.91,25.52-23.43,25.45c-5.46-0.04-7.4-3.13-7.37-7.33c0.02-2.52,1.3-5.59,2.58-8.66
		c7.99-20.1,18.22-41.03,18.28-48.59c0.03-3.5-0.94-5.19-3.32-5.2c-6.58-0.05-22.24,16.64-43.2,68.71L3051.31,122.88z"/>
	<path class="st0" d="M3190.43,68.25c-0.02,1.92-1.72,3.74-3.56,3.72c-1.36-0.01-2.95-0.99-4.55-1.01
		c-2.8-0.03-7.02,5.12-13.37,15.22l0.29,10.08c0.23,8.56,1.49,9.78,2.93,9.79c1.68,0.02,3.63-2.68,7.14-8.72l1.6,0.02
		c-3.28,6.93-7.09,12.09-11.17,12.04c-3.92-0.04-4.75-4.29-4.98-13.02l-0.18-5.28c-0.9,1.59-1.88,3.18-2.85,4.69
		c-5.45,8.5-10.31,13.41-15.19,13.36c-2.32-0.03-3.19-0.6-3.18-1.79c0.02-2.08,2.04-3.9,3.72-3.88c1.6,0.02,2.55,0.83,4.39,0.85
		c2.56,0.03,7.27-6.24,12.98-16.18l-0.3-9.2c-0.23-8.72-0.78-9.61-2.3-9.63c-1.36-0.01-3.87,2.84-7.06,8.72l-1.68-0.02
		c4.09-7.8,7.01-12.09,11.09-12.04c2.96,0.03,4.14,1.72,4.44,10.77l0.17,6.72c7.49-11.68,12.51-17.39,18.59-17.32
		C3189.73,66.16,3190.44,67.04,3190.43,68.25z"/>
	<path class="st0" d="M3215.99,108.49c-0.73,2.37-1.75,5.44-1.78,7.54c-0.03,2.24,0.51,3.65,2.89,3.68
		c6.58,0.09,15.12-10.3,20.87-22.13l3.08,0.04c-5.92,13.78-16.88,27.78-27.8,27.64c-5.32-0.07-7.24-3.04-7.18-7.52
		c0.03-2.66,1.06-6.15,2.08-9.07l19.33-54.07l-11.06-0.14l1.15-2.64c12.04-0.12,16.46-5.81,22.21-17.77l3.22,0.04l-6.52,17l14,0.18
		l-1.17,3.62l-14-0.18L3215.99,108.49z"/>
	<path class="st0" d="M3287.3,96.06l2.8,0.04c-7.41,18.09-18.38,30.95-30.7,30.77c-9.24-0.14-14.73-7.36-14.56-19.26
		c0.33-22.4,20.04-57.95,39.5-57.66c6.58,0.1,10.57,4.64,10.47,11.22c-0.22,14.56-19.48,29.53-39.41,32.46
		c-1.33,5.02-2.11,9.91-2.17,13.83c-0.13,8.54,3.72,13.22,9.6,13.3C3271.67,120.89,3280.37,110.52,3287.3,96.06z M3256.45,89.72
		c16.43-3.4,31.3-14.8,31.51-28.66c0.06-4.06-1.02-6.74-4.94-6.79C3272.24,54.11,3261.61,72.57,3256.45,89.72z"/>
	<path class="st0" d="M3299.01,125.64l19.86-57.08c1.18-3.62,2.66-8.22,2.68-9.9c0.04-2.1-0.79-2.67-2.05-2.69
		c-4.76-0.08-12.05,8.9-16.95,17.22l-2.94-0.05c5.92-10.96,15.64-22.42,24.46-22.28c3.64,0.06,5.41,3.03,5.35,6.39
		c-0.05,2.94-1.51,6.7-3.27,11.43l-9.66,25.32l0.98,0.02c12.46-33.54,25.5-43.12,35.58-42.95c2.94,0.05,4.46,1.33,4.42,3.58
		c-0.05,3.08-2.48,6.12-5.42,6.07c-2.38-0.04-3.62-1.46-6.42-1.51c-7.56-0.13-20.41,15.06-38.5,66.57L3299.01,125.64z"/>
	<path class="st0" d="M3351.03,126.52l19.96-57.04c1.19-3.62,2.67-8.21,2.7-9.89c0.04-2.1-0.79-2.68-2.05-2.7
		c-4.76-0.09-12.07,8.88-16.98,17.19l-2.94-0.05c5.94-10.95,15.68-22.39,24.5-22.23c3.64,0.07,5.4,3.04,5.34,6.4
		c-0.05,2.94-1.52,6.69-3.29,11.42l-9.71,25.3l0.98,0.02c12.52-33.51,25.58-43.07,35.66-42.88c2.94,0.05,4.46,1.34,4.41,3.58
		c-0.06,3.08-2.49,6.11-5.43,6.06c-2.38-0.04-3.61-1.47-6.41-1.52c-7.56-0.14-20.44,15.02-38.62,66.49L3351.03,126.52z"/>
	<path class="st0" d="M3398.4,107.93c0.54-26.59,21.29-55.72,39.91-55.34c10.36,0.21,16.34,9.15,16.07,22.17
		c-0.54,26.45-21.42,55.16-40.18,54.78C3403.85,129.32,3398.14,120.95,3398.4,107.93z M3446.28,74.17c0.2-9.8-2.88-16.72-10.3-16.87
		c-12.88-0.26-28.98,27.56-29.46,51.07c-0.2,9.66,2.61,16.29,10.03,16.45C3429.42,125.08,3445.8,97.83,3446.28,74.17z"/>
	<path class="st0" d="M3460.27,128.66l20.16-56.97c1.2-3.62,2.7-8.2,2.74-9.88c0.05-2.1-0.78-2.68-2.04-2.71
		c-4.76-0.11-12.1,8.84-17.04,17.13l-2.94-0.06c5.98-10.93,15.76-22.34,24.57-22.15c3.64,0.08,5.39,3.06,5.32,6.42
		c-0.06,2.94-1.55,6.69-3.33,11.41l-9.8,25.27l0.98,0.02c12.64-33.47,25.73-42.98,35.81-42.76c2.94,0.06,4.45,1.36,4.4,3.6
		c-0.07,3.08-2.51,6.11-5.45,6.04c-2.38-0.05-3.61-1.48-6.41-1.54c-7.56-0.17-20.49,14.95-38.85,66.36L3460.27,128.66z"/>
	<path class="st0" d="M3580.11,75.54c-0.05,1.92-1.77,3.72-3.61,3.67c-1.36-0.03-2.94-1.03-4.54-1.07
		c-2.8-0.07-7.08,5.03-13.57,15.04l0.16,10.09c0.11,8.56,1.36,9.8,2.8,9.83c1.68,0.04,3.66-2.63,7.25-8.63l1.6,0.04
		c-3.37,6.88-7.25,11.99-11.33,11.89c-3.92-0.1-4.7-4.36-4.8-13.08l-0.11-5.28c-0.92,1.58-1.92,3.15-2.91,4.65
		c-5.57,8.43-10.48,13.27-15.36,13.15c-2.32-0.06-3.19-0.64-3.16-1.84c0.05-2.08,2.09-3.87,3.77-3.83c1.6,0.04,2.54,0.86,4.38,0.91
		c2.56,0.06,7.35-6.14,13.19-16l-0.18-9.21c-0.11-8.72-0.65-9.62-2.17-9.66c-1.36-0.03-3.91,2.79-7.17,8.63l-1.68-0.04
		c4.19-7.74,7.17-11.99,11.25-11.89c2.96,0.07,4.12,1.78,4.3,10.83l0.08,6.72c7.64-11.58,12.74-17.22,18.82-17.07
		C3579.44,73.45,3580.14,74.34,3580.11,75.54z"/>
	<path class="st0" d="M3673.39,75.9c-0.55,20.85-20.6,58.55-38.8,58.07c-5.46-0.14-10.14-3.21-12.53-8.04l-8.35,24.43
		c-2.88,8.19-2.08,9.75,10.66,10.09l-1.62,2.9l-29.95-0.79l0.92-2.92c5.88,0.16,9.27-1.15,12.16-9.48l27.48-80.08
		c-5.14,8.83-13.38,18.69-22.92,24.32l-1.48-2.28c13.67-8.32,24.46-24.56,29.4-36.61l4.1-11.94l7.7,0.21l-16.48,45.64l0.98,0.03
		c7.27-15.21,17.79-31.6,28.42-31.32C3669.38,58.29,3673.7,64.28,3673.39,75.9z M3665.09,77.22c0.23-8.82-2.05-12.38-5.55-12.47
		c-9.8-0.26-26.1,28.3-31.87,44.95l-1.83,5.55c-0.36,8.25,3.13,14.09,8.58,14.23C3648.57,129.86,3664.57,96.95,3665.09,77.22z"/>
	<path class="st0" d="M3718.14,105.74l2.8,0.08c-7.65,17.99-18.79,30.7-31.1,30.36c-9.24-0.26-14.63-7.55-14.3-19.45
		c0.63-22.39,20.81-57.68,40.26-57.13c6.58,0.18,10.51,4.78,10.32,11.35c-0.41,14.55-19.87,29.27-39.83,31.93
		c-1.4,5-2.24,9.88-2.35,13.8c-0.24,8.54,3.55,13.27,9.43,13.43C3702.18,130.35,3711.02,120.1,3718.14,105.74z M3687.38,98.99
		c16.48-3.18,31.5-14.38,31.89-28.23c0.11-4.06-0.93-6.75-4.85-6.86C3703.64,63.59,3692.76,81.91,3687.38,98.99z"/>
	<path class="st0" d="M3729.44,135.47l20.58-56.82c1.23-3.61,2.76-8.18,2.81-9.86c0.06-2.1-0.76-2.68-2.02-2.72
		c-4.76-0.14-12.16,8.75-17.17,17l-2.94-0.09c6.06-10.89,15.92-22.22,24.74-21.96c3.64,0.11,5.37,3.1,5.27,6.46
		c-0.09,2.94-1.6,6.68-3.42,11.38l-9.99,25.2l0.98,0.03c12.89-33.38,26.05-42.79,36.13-42.5c2.94,0.09,4.44,1.39,4.38,3.63
		c-0.09,3.08-2.56,6.09-5.5,6c-2.38-0.07-3.6-1.51-6.4-1.59c-7.56-0.22-20.6,14.8-39.34,66.07L3729.44,135.47z"/>
	<path class="st0" d="M3847.98,28.38c-0.08,2.52-1.98,5.26-5.34,5.16c-4.06-0.12-7.85-4.44-12.47-4.58
		c-2.94-0.09-4.94,1.25-7.55,8.73c-2.15,6.1-3.61,12.78-5.62,18.88l-2.62,7.76l16.09,0.49l-1.37,3.6l-15.95-0.49l-19.41,57.54
		c-8,23.43-21.73,42.06-40.63,41.48c-6.02-0.18-7.22-2.18-7.15-4.42c0.11-3.5,3.41-6.2,7.19-6.08c4.2,0.13,6.34,3.28,10.54,3.4
		c8.4,0.26,13.17-9.12,21.49-33.94l19.71-58.23l-12.87-0.39l1.23-3.6l12.87,0.39l2.62-7.9c6.17-18.44,12.77-32.81,31.38-32.24
		C3845.87,24.12,3848.07,25.45,3847.98,28.38z"/>
	<path class="st0" d="M3817.35,118.63c0.84-26.59,21.92-55.47,40.53-54.89c10.35,0.33,16.23,9.34,15.82,22.35
		c-0.83,26.45-22.04,54.91-40.79,54.32C3822.56,140.08,3816.94,131.64,3817.35,118.63z M3865.6,85.42
		c0.31-9.79-2.69-16.75-10.11-16.99c-12.87-0.41-29.29,27.23-30.03,50.74c-0.3,9.65,2.43,16.32,9.84,16.56
		C3848.18,136.13,3864.85,109.06,3865.6,85.42z"/>
	<path class="st0" d="M3878.97,140.05l20.77-56.75c1.24-3.6,2.79-8.17,2.84-9.85c0.07-2.1-0.75-2.69-2.01-2.73
		c-4.76-0.16-12.19,8.71-17.22,16.95l-2.94-0.1c6.1-10.87,15.99-22.17,24.81-21.88c3.64,0.12,5.36,3.12,5.25,6.47
		c-0.1,2.94-1.62,6.67-3.45,11.37l-10.07,25.16l0.98,0.03c13-33.33,26.19-42.71,36.26-42.38c2.94,0.1,4.44,1.41,4.36,3.64
		c-0.1,3.08-2.58,6.08-5.52,5.98c-2.38-0.08-3.59-1.52-6.39-1.61c-7.56-0.25-20.65,14.73-39.56,65.94L3878.97,140.05z"/>
	<path class="st0" d="M3929.89,141.71l21.69-56.69c1.38-3.59,3.08-8.16,3.14-9.84c0.07-2.1-0.75-2.69-2.01-2.73
		c-4.76-0.16-12.21,8.69-17.25,16.92l-2.94-0.1c6.12-10.86,16.03-22.15,24.84-21.84c3.64,0.12,5.36,3.12,5.24,6.48
		c-0.1,2.94-1.63,6.67-3.47,11.37l-10.11,25.15l1.12,0.04c16.5-31.94,26.4-42.66,35.63-42.35c4.48,0.15,7.02,3.74,6.85,8.64
		c-0.28,8.12-7.29,20.62-14.08,34.68l0.98,0.03c16.5-31.93,27.8-42.61,37.17-42.29c5.18,0.18,7.86,3.63,7.68,8.95
		c-0.39,11.47-13.05,33.31-20.94,51.11c-0.77,2.07-2.14,5.11-2.2,6.93c-0.07,2.1,0.44,3.52,2.68,3.59
		c5.74,0.2,12.36-9.24,17.63-19.71l2.94,0.1c-5.31,11.87-14.73,25.13-24.1,24.81c-5.46-0.19-7.31-3.33-7.17-7.53
		c0.09-2.52,1.45-5.55,2.68-8.59c8.67-19.88,19.46-40.52,19.72-48.07c0.12-3.5-0.94-5.22-3.18-5.29
		c-5.18-0.18-16.16,9.53-31.13,37.74c-4.35,8.26-8.89,18.19-13.91,29.78l-7.98-0.27l13.25-30.93c5.79-13.53,11.83-26.49,12.03-32.09
		c0.12-3.5-0.94-5.21-3.18-5.29c-6.58-0.23-21.42,16.08-43.64,67.57L3929.89,141.71z"/>
	<path class="st0" d="M4090.36,122.52l2.94,0.11c-5.33,11.86-14.77,25.11-24.28,24.77c-5.46-0.2-7.3-3.34-7.15-7.54
		c0.09-2.52,1.6-5.54,2.83-8.58l8.76-21.68l-1.26-0.04c-7.39,14.58-22.5,37.58-33.83,37.17c-7.97-0.29-10.53-7.1-10.19-16.62
		c0.86-23.92,24.41-59.65,43.02-58.98c8.25,0.29,11.96,6.45,10.93,15.66l0.42,0.02l4.61-11.46c3.08,0.11,6.08-1.6,7.71-3.93
		l1.51,0.75l-24.12,59.51c-0.78,2.07-2.14,5.11-2.21,6.93c-0.08,2.1,0.43,3.52,2.67,3.6
		C4078.44,142.4,4085.08,132.97,4090.36,122.52z M4073.9,101.05c1.69-4.14,3.55-9.12,3.75-14.71c0.21-5.88-1.47-9.86-6.5-10.04
		c-14.41-0.52-33.9,31.43-34.68,53.11c-0.24,6.71,0.88,10.54,4.52,10.67C4050.21,140.41,4067.74,116.38,4073.9,101.05z"/>
	<path class="st0" d="M4098.98,147.62l21.84-56.63c1.39-3.59,3.1-8.15,3.16-9.83c0.08-2.1-0.74-2.69-2-2.74
		c-4.76-0.18-12.23,8.66-17.29,16.88l-2.94-0.11c6.14-10.84,16.09-22.1,24.9-21.78c3.64,0.13,5.35,3.14,5.22,6.5
		c-0.11,2.94-1.65,6.66-3.5,11.36l-10.17,25.12l1.12,0.04c16.59-31.89,27.91-42.54,37.14-42.2c5.18,0.19,7.85,3.65,7.66,8.97
		c-0.42,11.47-13,33.28-21.08,51.06c-0.78,2.07-2.15,5.1-2.22,6.92c-0.08,2.1,0.43,3.52,2.67,3.6c5.74,0.21,12.53-9.21,17.68-19.66
		l2.94,0.11c-5.34,11.85-14.65,25.1-24.17,24.75c-5.46-0.2-7.3-3.35-7.15-7.55c0.09-2.52,1.47-5.55,2.84-8.58
		c8.58-19.86,19.42-40.47,19.7-48.03c0.13-3.5-0.79-5.21-3.17-5.3c-6.58-0.24-22.72,15.97-45.21,67.4L4098.98,147.62z"/>
	<path class="st0" d="M4169.48,131.46c0.95-25.04,21.32-56.21,39.79-55.51c6.02,0.23,10.34,4.31,10.07,11.45
		c-0.28,7.42-4.78,15.23-9.4,15.05c-2.38-0.09-3.7-2.1-3.62-4.34c0.2-5.18,7.75-4.89,8.03-12.16c0.09-2.52-1.2-5.23-5.82-5.4
		c-15.67-0.59-29.86,30.11-30.61,49.84c-0.34,9.09,2.06,15.77,8.22,16c7.97,0.3,16.88-9.17,23.81-21.94l2.66,0.1
		c-8.24,17.9-19.15,28.41-29.5,28.02C4173.88,152.22,4169.01,143.91,4169.48,131.46z"/>
	<path class="st0" d="M4261.48,124.32l2.8,0.11c-7.83,17.91-19.11,30.51-31.42,30.03c-9.23-0.36-14.55-7.71-14.1-19.6
		c0.86-22.38,21.41-57.46,40.85-56.71c6.57,0.25,10.46,4.89,10.21,11.46c-0.56,14.55-20.17,29.06-40.16,31.52
		c-1.45,4.99-2.34,9.86-2.49,13.77c-0.33,8.53,3.41,13.3,9.29,13.53C4245.27,148.77,4254.2,138.61,4261.48,124.32z M4230.79,117.25
		c16.51-3.01,31.64-14.05,32.18-27.9c0.16-4.06-0.86-6.76-4.78-6.91C4247.42,82.03,4236.35,100.24,4230.79,117.25z"/>
	<path class="st0" d="M4341.15,100.95c-0.08,1.92-1.83,3.69-3.67,3.62c-1.36-0.05-2.92-1.08-4.52-1.14
		c-2.8-0.11-7.16,4.92-13.8,14.83l0,10.09c-0.02,8.57,1.21,9.82,2.65,9.87c1.68,0.07,3.71-2.58,7.38-8.52l1.6,0.06
		c-3.47,6.83-7.44,11.88-11.51,11.71c-3.92-0.15-4.63-4.43-4.6-13.15l-0.03-5.29c-0.94,1.56-1.96,3.12-2.98,4.61
		c-5.69,8.34-10.69,13.11-15.56,12.92c-2.32-0.09-3.18-0.69-3.13-1.88c0.08-2.08,2.15-3.84,3.83-3.77c1.6,0.06,2.53,0.9,4.37,0.97
		c2.56,0.1,7.44-6.03,13.43-15.8l-0.04-9.21c0.02-8.73-0.5-9.63-2.02-9.69c-1.36-0.05-3.95,2.73-7.3,8.52l-1.68-0.07
		c4.31-7.68,7.35-11.88,11.43-11.72c2.96,0.12,4.09,1.84,4.13,10.89l-0.03,6.72c7.82-11.46,13-17.02,19.08-16.78
		C4340.51,98.84,4341.19,99.75,4341.15,100.95z"/>
	<path class="st0" d="M4428.9,93.56c-1.1,27.28-25.85,67.62-44.45,66.87c-7.97-0.32-12.67-5.56-12.19-17.31
		c0.66-16.37,15.58-35.38,30.06-50.35l-0.84-0.03c-3.22-0.13-11.08-3.25-14.16-3.37c-2.1-0.08-3.13,1.13-3.19,2.67
		c-0.11,2.8,2.92,4.04,2.79,7.26c-0.09,2.24-1.83,3.71-3.65,3.64c-1.54-0.06-3.04-1.1-2.91-4.32c0.07-1.68,0.75-4.59,2.71-8.16
		c2.28-4.39,4.89-6.53,9.5-6.34c3.5,0.14,10.86,1.84,13.79,1.96c1.96,0.08,2.83-0.59,3.98-1.52l0.15-0.13l1.73,2.17
		c-15.47,15.21-30.96,37.98-31.63,54.63c-0.28,6.86,1.33,12.24,7.76,12.5c14.27,0.58,33.55-32.83,34.26-50.32
		c0.24-5.88-3.2-11.06-3.04-14.98c0.08-1.96,1-4.02,3.94-3.9C4427.16,84.66,4429.13,87.96,4428.9,93.56z"/>
	<path class="st0" d="M4451.89,103.89c1.41-3.73,3.13-8.14,3.2-9.82c0.09-2.1-0.73-2.69-1.99-2.74
		c-4.76-0.19-12.26,8.61-17.36,16.81l-2.94-0.12c6.19-10.82,16.17-22.04,24.98-21.68c3.64,0.15,5.34,3.16,5.2,6.52
		c-0.12,2.94-1.4,6.81-3.41,11.49l-16.55,41.64c-0.79,2.07-2.03,5.1-2.1,6.92c-0.09,2.1,0.42,3.52,2.65,3.61
		c5.74,0.23,12.56-9.16,17.75-19.59l2.94,0.12c-5.39,11.83-14.75,25.04-24.26,24.65c-5.46-0.22-7.29-3.38-7.12-7.58
		c0.1-2.52,1.35-5.55,2.59-8.58L4451.89,103.89z M4460.29,62.62c0.17-4.2,3.07-6.6,7.27-6.43c4.06,0.17,6.61,2.79,6.44,6.99
		c-0.17,4.06-2.93,6.61-6.99,6.44C4462.82,69.45,4460.13,66.68,4460.29,62.62z"/>
	<path class="st0" d="M4531.55,139.82l2.94,0.12c-5.39,11.83-14.91,25.03-24.42,24.63c-5.46-0.22-7.29-3.38-7.11-7.58
		c0.1-2.52,1.35-5.55,2.46-8.59l8.18-21.66l-1.68-0.07c-7.48,14.82-22.73,38.01-33.92,37.55c-7.69-0.32-10.48-7.44-10.08-17.23
		c0.99-23.92,24.74-59.51,43.34-58.74c8.25,0.34,11.92,6.52,10.84,15.72l0.14,0l15.09-39.73c2.5-6.34,0.08-8.68-10.27-9.11
		l0.96-2.76c13.29,0.55,17.65,0.03,20.86-3.06l1.66,0.63l-37.44,98.92c-0.78,1.93-1.89,5.11-1.97,6.92
		c-0.09,2.1,0.42,3.52,2.65,3.61C4519.52,159.64,4526.21,150.25,4531.55,139.82z M4513.8,118.21c1.71-4.13,3.6-9.1,3.83-14.69
		c0.24-5.88-1.41-9.87-6.45-10.08c-14.41-0.6-34.08,31.24-34.98,52.92c-0.29,7.13,0.8,11.24,4.43,11.39
		C4489.87,158.13,4507.41,133.78,4513.8,118.21z"/>
	<path class="st0" d="M4581.68,137.28l2.8,0.12c-7.89,17.89-19.21,30.45-31.52,29.93c-9.23-0.38-14.53-7.75-14.03-19.64
		c0.93-22.38,21.59-57.39,41.04-56.58c6.57,0.27,10.44,4.92,10.17,11.5c-0.61,14.55-20.27,29-40.27,31.39
		c-1.47,4.98-2.37,9.85-2.54,13.77c-0.36,8.53,3.37,13.31,9.24,13.56C4565.39,161.69,4574.36,151.55,4581.68,137.28z
		 M4551.02,130.12c16.52-2.95,31.69-13.95,32.27-27.8c0.17-4.06-0.84-6.76-4.75-6.92C4567.76,94.95,4556.63,113.12,4551.02,130.12z"
		/>
	<path class="st0" d="M4591.47,147.64c1.12-26.58,22.5-55.24,41.11-54.46c10.35,0.44,16.13,9.51,15.59,22.52
		c-1.11,26.44-22.62,54.68-41.36,53.89C4596.44,169.15,4590.92,160.65,4591.47,147.64z M4640.06,114.94
		c0.41-9.79-2.52-16.78-9.93-17.09c-12.87-0.54-29.58,26.92-30.57,50.42c-0.41,9.65,2.25,16.35,9.67,16.66
		C4622.1,165.47,4639.07,138.58,4640.06,114.94z"/>
	<path class="st0" d="M4679.3,152.05c1.07-25.04,21.59-56.11,40.05-55.33c6.01,0.26,10.32,4.36,10.02,11.5
		c-0.32,7.41-4.85,15.21-9.47,15.01c-2.38-0.1-3.69-2.12-3.6-4.36c0.22-5.18,7.77-4.86,8.08-12.13c0.11-2.52-1.18-5.23-5.79-5.43
		c-15.67-0.67-30,29.97-30.84,49.69c-0.39,9.09,1.99,15.78,8.15,16.04c7.97,0.34,16.92-9.09,23.91-21.82l2.66,0.11
		c-8.33,17.86-19.28,28.33-29.63,27.89C4683.6,172.83,4678.77,164.5,4679.3,152.05z"/>
	<path class="st0" d="M4773.07,59.35l-36.72,98.77c-0.79,2.07-1.77,5.25-1.84,7.07c-0.09,2.1,0.41,3.52,2.65,3.62
		c5.73,0.24,12.44-9.14,17.79-19.56l2.94,0.12c-5.41,11.82-14.94,25.01-24.45,24.6c-5.46-0.23-7.28-3.39-7.1-7.59
		c0.11-2.52,1.22-5.69,2.33-8.73l31.05-84.02c2.51-6.34,1.21-8.64-9.14-9.08l0.96-2.76c13.43,0.57,16.96-0.12,19.89-3.08
		L4773.07,59.35z"/>
	<path class="st0" d="M4785.57,117.9c1.42-3.72,3.15-8.13,3.22-9.81c0.09-2.1-0.73-2.69-1.98-2.75c-4.76-0.2-12.28,8.58-17.39,16.77
		l-2.94-0.12c6.21-10.8,16.22-22.01,25.03-21.63c3.64,0.16,5.33,3.17,5.19,6.53c-0.13,2.94-1.41,6.81-3.43,11.48l-16.63,41.61
		c-0.79,2.07-2.04,5.1-2.12,6.92c-0.09,2.1,0.41,3.52,2.65,3.62c5.74,0.24,12.58-9.13,17.79-19.56l2.94,0.12
		c-5.41,11.82-14.8,25.01-24.31,24.61c-5.46-0.23-7.28-3.39-7.1-7.59c0.11-2.52,1.36-5.55,2.61-8.58L4785.57,117.9z M4794.06,76.65
		c0.18-4.2,3.08-6.59,7.28-6.42c4.06,0.17,6.61,2.8,6.43,7c-0.17,4.06-2.94,6.6-7,6.43C4796.57,83.48,4793.89,80.7,4794.06,76.65z"
		/>
	<path class="st0" d="M4867.41,120.85c-0.89,20.84-21.55,58.21-39.74,57.43c-5.46-0.23-10.08-3.38-12.4-8.24l-8.75,24.29
		c-3.01,8.14-2.24,9.71,10.49,10.26l-1.66,2.87l-29.93-1.28l0.96-2.9c5.88,0.25,9.29-1,12.31-9.28l28.78-79.62
		c-5.28,8.74-13.68,18.47-23.31,23.95l-1.44-2.3c13.8-8.1,24.86-24.16,30-36.13l4.29-11.87l7.69,0.33l-17.22,45.37l0.98,0.04
		c7.51-15.09,18.3-31.31,28.93-30.85C4863.68,103.17,4867.9,109.24,4867.41,120.85z M4859.09,122.03
		c0.38-8.81-1.85-12.41-5.35-12.56c-9.79-0.42-26.56,27.87-32.59,44.43l-1.92,5.52c-0.49,8.25,2.9,14.14,8.35,14.37
		C4841.71,174.4,4858.24,141.76,4859.09,122.03z"/>
	<path class="st0" d="M4864.23,166.26c0.13-3.08,2.02-4.68,4.4-4.58c2.24,0.1,2.73,1.8,3.69,5.34c1.7,6.1,4.9,10.02,11.75,10.31
		c7.55,0.32,11.58-5.25,11.9-12.8c0.21-4.9-1.44-8.89-4.17-13.77l-3.88-7.46c-4.81-8.75-7.12-13.62-6.86-19.77
		c0.5-11.61,10.22-19.46,21.69-18.97c9.51,0.41,14.69,7.21,14.49,11.69c-0.12,2.94-2.3,4.53-4.39,4.44
		c-2.24-0.1-2.99-2.09-3.72-4.64c-1.37-4.12-3.33-7.43-9.2-7.68c-6.57-0.28-11.24,3.86-11.57,11.55c-0.2,4.62,1.54,9.74,4.53,15.19
		l3.75,7.31c4.92,9.46,6.87,13.05,6.62,18.92c-0.53,12.31-9.57,20.47-21.17,19.97C4871.04,180.84,4863.94,173.11,4864.23,166.26z"/>
	<path class="st0" d="M4986.21,128.03c-0.08,1.92-1.84,3.68-3.68,3.61c-1.36-0.06-2.92-1.09-4.51-1.16
		c-2.8-0.12-7.18,4.9-13.85,14.78l-0.03,10.09c-0.05,8.57,1.18,9.82,2.62,9.88c1.68,0.07,3.71-2.56,7.41-8.49l1.6,0.07
		c-3.5,6.82-7.48,11.85-11.55,11.68c-3.92-0.17-4.61-4.44-4.56-13.17l-0.01-5.29c-0.95,1.56-1.98,3.12-3,4.59
		c-5.72,8.32-10.73,13.07-15.61,12.86c-2.32-0.1-3.17-0.7-3.12-1.9c0.09-2.08,2.17-3.83,3.84-3.76c1.6,0.07,2.52,0.91,4.36,0.99
		c2.56,0.11,7.46-6.01,13.49-15.76l0-9.21c0.05-8.72-0.47-9.63-1.99-9.69c-1.36-0.06-3.96,2.71-7.33,8.49l-1.68-0.07
		c4.33-7.66,7.4-11.85,11.47-11.68c2.96,0.13,4.08,1.86,4.1,10.91l-0.05,6.72c7.86-11.43,13.06-16.97,19.13-16.71
		C4985.58,125.93,4986.27,126.84,4986.21,128.03z"/>
	<path class="st0" d="M4994.91,212.08c0.15-3.5,3.35-6.16,7.12-6c4.48,0.19,5.76,3.05,9.95,3.23c5.59,0.24,13.37-7.84,20.35-17.21
		c3.9-28.98,5.27-51.34,5.63-62.96c0.43-10.07-0.46-12.21-2.84-12.31c-3.36-0.14-8.17,7.5-12.82,17.95l-2.8-0.12
		c4.84-11.56,11.39-23.9,18.8-23.58c6.01,0.26,7.77,5.1,7.37,17.83c-0.5,11.75-2.07,32.14-5.43,54.98
		c18.01-21.37,27.08-40.18,27.63-53.19c0.31-7.27-3.17-11.07-3-14.98c0.08-1.96,1.43-4,4.09-3.89c3.64,0.16,5.56,4.3,5.17,13.53
		c-0.64,14.97-10.71,34.3-26.29,54.65c-16.03,21.04-30.6,37.37-46.97,36.67C4996.68,216.5,4994.81,214.46,4994.91,212.08z"/>
	<path class="st0" d="M5103.63,188.97l22.14-56.52c1.41-3.58,3.15-8.13,3.22-9.81c0.09-2.1-0.73-2.69-1.99-2.75
		c-4.75-0.2-12.27,8.59-17.38,16.79l-2.94-0.12c6.2-10.81,16.2-22.02,25.01-21.65c3.64,0.15,5.33,3.17,5.19,6.52
		c-0.12,2.94-1.68,6.66-3.56,11.34l-10.3,25.07l1.12,0.05c16.75-31.8,26.73-42.45,35.96-42.06c4.48,0.19,6.99,3.8,6.78,8.69
		c-0.34,8.11-7.45,20.56-14.35,34.57l0.98,0.04c16.75-31.8,28.13-42.39,37.5-42c5.17,0.22,7.83,3.69,7.61,9.01
		c-0.48,11.47-13.31,33.21-21.34,50.95c-0.79,2.07-2.18,5.09-2.25,6.91c-0.09,2.1,0.41,3.52,2.65,3.62
		c5.74,0.24,12.44-9.14,17.78-19.57l2.94,0.12c-5.4,11.82-14.93,25.01-24.3,24.62c-5.46-0.23-7.28-3.39-7.11-7.59
		c0.11-2.52,1.49-5.54,2.74-8.57c8.82-19.81,19.78-40.36,20.09-47.92c0.15-3.5-0.9-5.22-3.14-5.32
		c-5.17-0.22-16.23,9.41-31.42,37.49c-4.41,8.22-9.03,18.12-14.14,29.67l-7.97-0.34l13.49-30.82c5.89-13.48,12.04-26.4,12.28-31.99
		c0.15-3.5-0.9-5.22-3.14-5.32c-6.57-0.28-21.55,15.91-44.17,67.22L5103.63,188.97z"/>
	<path class="st0" d="M5270.53,120.57l-24.46,59.38c-0.79,2.07-2.17,5.09-2.25,6.91c-0.09,2.1,0.42,3.52,2.65,3.61
		c5.73,0.24,12.43-9.15,17.77-19.58l2.94,0.12c-5.39,11.83-14.91,25.02-24.42,24.63c-5.46-0.23-7.29-3.38-7.11-7.58
		c0.1-2.52,1.63-5.54,2.88-8.57l8.88-21.63l-1.26-0.05c-7.47,14.54-22.71,37.45-34.04,36.98c-7.97-0.33-10.49-7.16-10.1-16.67
		c0.99-23.92,24.75-59.51,43.35-58.73c8.25,0.34,11.92,6.52,10.84,15.72l0.42,0.02l4.68-11.44c3.08,0.13,6.09-1.57,7.73-3.88
		L5270.53,120.57z M5247.9,149.34c1.71-4.13,3.6-9.1,3.83-14.69c0.24-5.88-1.41-9.87-6.45-10.08c-14.41-0.6-34.08,31.23-34.98,52.92
		c-0.28,6.71,0.82,10.54,4.46,10.69C5224,188.56,5241.66,164.63,5247.9,149.34z M5280.31,83.98l-24.11,23.94l-3.36-0.14l17.54-24.21
		L5280.31,83.98z"/>
	<path class="st0" d="M5268.36,183.4c0.13-3.08,2.01-4.68,4.39-4.59c2.24,0.09,2.73,1.79,3.71,5.34c1.71,6.1,4.92,10.01,11.77,10.29
		c7.55,0.31,11.56-5.27,11.87-12.82c0.2-4.89-1.46-8.89-4.2-13.76l-3.9-7.45c-4.83-8.74-7.15-13.6-6.9-19.76
		c0.48-11.61,10.18-19.48,21.65-19.01c9.51,0.39,14.7,7.19,14.52,11.66c-0.12,2.94-2.29,4.53-4.39,4.44c-2.24-0.09-3-2.08-3.73-4.63
		c-1.37-4.12-3.34-7.42-9.21-7.66c-6.57-0.27-11.23,3.88-11.54,11.58c-0.19,4.62,1.56,9.73,4.56,15.18l3.76,7.3
		c4.94,9.45,6.89,13.03,6.65,18.91c-0.5,12.31-9.52,20.49-21.13,20.01C5275.19,197.97,5268.08,190.25,5268.36,183.4z"/>
</g>
</svg>
