<?xml version="1.0" encoding="utf-8"?>
<!-- Generator: Adobe Illustrator 28.3.0, SVG Export Plug-In . SVG Version: 6.00 Build 0)  -->
<svg version="1.1" id="Capa_1" xmlns="http://www.w3.org/2000/svg" xmlns:xlink="http://www.w3.org/1999/xlink" x="0px" y="0px"
	 viewBox="0 0 3007.14 353.9" style="enable-background:new 0 0 3007.14 353.9;" xml:space="preserve">
<style type="text/css">
	.st0{fill:#FF9700;}
</style>
<g>
	<path class="st0" d="M35.7,137.57c-2.36-24.39,12.22-40.99,32.84-42.98c20.9-2.02,36.25,11.27,38.99,35.2l0.38,3.9l-55.46,5.36
		c2.37,12.85,11.3,20.85,23.84,19.64c8.5-0.82,14.51-5.62,16.3-13.25l16.03-1.55c-2.23,16.25-13.7,27.06-31.12,28.75
		C54.91,174.82,37.88,160.15,35.7,137.57z M89.78,123.77c-3.11-10.39-10.28-16.17-19.9-15.24c-9.75,0.94-16.38,8.05-17.87,18.89
		L89.78,123.77z"/>
	<path class="st0" d="M117.93,142.98l15.9-1.34c1.23,7.91,8.41,11.52,17.48,10.75c8.37-0.7,12.57-4.29,12.08-10.01
		c-0.48-5.72-5.32-6.44-11.91-7.99l-10.04-2.39c-12.62-3.01-23.57-6.31-24.72-19.98c-1.1-13.11,8.22-22.61,25.93-24.1
		c17.16-1.44,29.64,6.64,33,23.22l-15.62,1.31c-1.54-8.3-7.87-11.7-16.38-10.99c-7.25,0.61-11.18,4.03-10.76,9.05
		c0.48,5.72,7.03,6.72,12.48,8.08l9.17,2.18c15.06,3.65,24.22,7.38,25.34,20.63c1.15,13.67-8.47,22.91-26.61,24.43
		C133.06,167.56,120.27,159.08,117.93,142.98z"/>
	<path class="st0" d="M223.97,158.17c-16.05,1.22-25.31-6.08-26.43-20.74l-2.84-37.41L181.72,101l-1.06-13.96l12.98-0.99
		l-1.92-25.27l16.47-1.25l1.92,25.27l19.13-1.45l1.06,13.96l-19.13,1.45l2.76,36.3c0.48,6.28,3.95,9.53,10.1,9.06l8.38-0.64
		l1.06,13.96L223.97,158.17z"/>
	<path class="st0" d="M246.7,156.5l-5.14-74.02l13.27-0.92l2.96,14.39c4.05-10.39,12.34-16.29,24.63-17.15l2.79-0.19l1.11,16.06
		l-2.79,0.19c-15.36,1.07-23.87,9.94-22.9,23.9l2.54,36.59L246.7,156.5z"/>
	<path class="st0" d="M292.85,116.37c-1.52-24.45,13.61-40.54,34.29-41.83c20.96-1.3,35.84,12.5,37.75,36.51l0.24,3.91l-55.61,3.46
		c1.93,12.92,10.58,21.22,23.15,20.44c8.52-0.53,14.69-5.12,16.75-12.68l16.07-1c-2.78,16.16-14.62,26.58-32.08,27.66
		C310.77,154.25,294.25,139.01,292.85,116.37z M347.37,104.43c-2.76-10.49-9.72-16.51-19.36-15.91c-9.78,0.61-16.65,7.49-18.5,18.26
		L347.37,104.43z"/>
	<path class="st0" d="M379.91,147.93l-3.96-74.09l13.28-0.71l1.98,10.83c4.2-7.94,13.28-13.89,24.32-14.48
		c15.8-0.84,26.71,9.23,27.6,25.86l2.62,49.07l-16.5,0.88l-2.58-48.23c-0.44-8.25-6.18-13.41-15.41-12.92
		c-10.76,0.58-17.64,8.37-17.26,18.03l2.4,44.88L379.91,147.93z"/>
	<path class="st0" d="M455.71,106.05c-1.09-24.2,14.63-39.34,36.31-40.31c23.92-1.08,38.66,15.08,39.64,36.9
		c1.12,25.04-14.01,40.57-36.11,41.56C471.48,145.28,456.74,128.99,455.71,106.05z M514.87,103.39
		c-0.66-14.69-9.35-24.11-22.22-23.53c-12.87,0.58-20.82,10.75-20.16,25.43c0.73,16.22,10.25,25.33,22.42,24.78
		C508.19,129.48,515.54,118.22,514.87,103.39z"/>
	<path class="st0" d="M541.4,116.42l15.95-0.59c0.86,7.95,7.87,11.9,16.96,11.56c8.39-0.31,12.75-3.7,12.54-9.43
		c-0.21-5.74-5.01-6.68-11.53-8.54l-9.91-2.85c-12.46-3.6-23.25-7.4-23.76-21.11c-0.49-13.15,9.26-22.2,27.03-22.86
		c17.21-0.64,29.3,8.02,31.88,24.73l-15.67,0.58c-1.15-8.36-7.31-12.06-15.85-11.74c-7.28,0.27-11.36,3.5-11.17,8.54
		c0.21,5.74,6.71,7.04,12.09,8.66l9.06,2.6c14.87,4.35,23.85,8.5,24.35,21.79c0.51,13.71-9.53,22.49-27.72,23.17
		C555.37,141.68,542.98,132.61,541.4,116.42z"/>
	<path class="st0" d="M670.02,120.76l14.82-21.43L669.1,78.37l7.44-0.19l11.94,16.1l11.02-16.69l7.44-0.19l-14.65,21.66l15.89,20.72
		l-7.52,0.19l-11.93-16.02l-11.18,16.61L670.02,120.76z"/>
	<path class="st0" d="M754.86,133.79l-1.27-74.19l13.3-0.23l2.21,14.52c4.59-10.16,13.17-15.63,25.49-15.84l2.8-0.05l0.28,16.1
		l-2.8,0.05c-15.4,0.26-24.36,8.68-24.12,22.68l0.63,36.68L754.86,133.79z"/>
	<path class="st0" d="M803.01,96.12c-0.26-24.5,15.69-39.79,36.41-40c21-0.22,35.15,14.33,35.83,38.41l0.04,3.92l-55.72,0.58
		c1.26,13.01,9.47,21.74,22.07,21.61c8.54-0.09,14.94-4.36,17.38-11.8l16.1-0.17c-3.61,16-15.97,25.79-33.47,25.97
		C818.96,134.88,803.25,118.8,803.01,96.12z M858.08,87c-2.21-10.62-8.86-16.99-18.52-16.89c-9.8,0.1-17.01,6.62-19.42,17.29
		L858.08,87z"/>
	<path class="st0" d="M885.01,96.02l-0.04-13.58l62.58-0.16l0.04,13.58L885.01,96.02z"/>
	<path class="st0" d="M957.35,95.15c0.13-24.5,16.31-39.53,37.03-39.42c21,0.11,34.92,14.89,35.21,38.97l-0.02,3.92l-55.72-0.3
		c1.05,13.03,9.12,21.89,21.72,21.96c8.54,0.04,15-4.12,17.56-11.53l16.1,0.09c-3.87,15.94-16.38,25.53-33.88,25.44
		C972.68,134.15,957.23,117.83,957.35,95.15z M1012.56,86.9c-2.04-10.65-8.59-17.13-18.25-17.18c-9.8-0.05-17.11,6.35-19.69,16.97
		L1012.56,86.9z"/>
	<path class="st0" d="M1038.62,108.8l15.96,0.21c0.45,7.99,7.26,12.28,16.36,12.4c8.4,0.11,12.92-3.05,13-8.79
		s-4.67-6.92-11.08-9.11l-9.76-3.35c-12.26-4.22-22.85-8.56-22.67-22.28c0.17-13.16,10.37-21.7,28.15-21.47
		c17.22,0.23,28.86,9.48,30.59,26.31l-15.68-0.21c-0.73-8.41-6.7-12.41-15.23-12.52c-7.28-0.1-11.52,2.93-11.59,7.97
		c-0.08,5.74,6.34,7.36,11.64,9.25l8.92,3.06c14.63,5.1,23.39,9.69,23.22,22.99c-0.18,13.72-10.65,21.98-28.85,21.74
		C1051.29,134.73,1039.38,125.05,1038.62,108.8z"/>
	<path class="st0" d="M1142.72,134.14c-16.1-0.32-24.62-8.47-24.32-23.17l0.74-37.51l-13.02-0.26l0.28-14l13.02,0.26l0.5-25.33
		l16.52,0.33l-0.5,25.33l19.18,0.38l-0.28,14l-19.18-0.38l-0.72,36.39c-0.12,6.3,3.03,9.86,9.18,9.98l8.4,0.17l-0.28,14
		L1142.72,134.14z"/>
	<path class="st0" d="M1165.5,134.64l1.92-74.18l13.29,0.35l1.58,14.61c5.02-9.95,13.83-15.05,26.15-14.73l2.8,0.07l-0.42,16.09
		l-2.8-0.07c-15.39-0.4-24.71,7.62-25.07,21.62l-0.95,36.67L1165.5,134.64z"/>
	<path class="st0" d="M1215.29,99.08c0.81-24.49,17.41-39.06,38.12-38.38c20.99,0.7,34.49,15.86,34.11,39.94l-0.13,3.92l-55.69-1.85
		c0.69,13.05,8.51,22.13,21.1,22.55c8.54,0.28,15.11-3.7,17.88-11.03l16.09,0.54c-4.31,15.83-17.08,25.07-34.57,24.48
		C1229.53,138.49,1214.53,121.74,1215.29,99.08z M1270.7,92.37c-1.75-10.7-8.11-17.36-17.76-17.68
		c-9.79-0.33-17.28,5.87-20.16,16.42L1270.7,92.37z"/>
	<path class="st0" d="M1298.91,138.78l3.16-74.14l13.29,0.57l0.93,10.97c4.94-7.5,14.55-12.55,25.6-12.08
		c15.81,0.67,25.7,11.75,24.99,28.39l-2.09,49.1l-16.5-0.7l2.06-48.26c0.35-8.25-4.87-13.94-14.1-14.33
		c-10.77-0.46-18.36,6.64-18.91,16.29l-1.92,44.9L1298.91,138.78z"/>
	<path class="st0" d="M1378.4,104.37c1.27-24.19,18.39-37.72,40.06-36.58c23.91,1.26,37,18.77,35.86,40.58
		c-1.32,25.02-17.89,39.01-39.98,37.85C1390.28,144.95,1377.19,127.3,1378.4,104.37z M1437.53,107.48
		c0.77-14.68-6.96-24.9-19.82-25.58s-21.76,8.67-22.54,23.35c-0.85,16.22,7.73,26.2,19.9,26.84
		C1428.35,132.79,1436.75,122.3,1437.53,107.48z"/>
	<path class="st0" d="M1462.67,122.97l15.93,1.03c0.04,8,6.62,12.63,15.7,13.22c8.38,0.54,13.06-2.38,13.43-8.11
		c0.37-5.73-4.31-7.15-10.6-9.66l-9.57-3.85c-12.03-4.85-22.38-9.72-21.49-23.42c0.85-13.13,11.47-21.14,29.21-20
		c17.18,1.11,28.33,10.95,29.2,27.84l-15.65-1.01c-0.3-8.44-6.05-12.74-14.57-13.29c-7.26-0.47-11.65,2.33-11.98,7.36
		c-0.37,5.73,5.96,7.68,11.15,9.84l8.75,3.51c14.35,5.84,22.87,10.88,22.01,24.15c-0.88,13.69-11.77,21.41-29.93,20.23
		C1474,149.52,1462.6,139.24,1462.67,122.97z"/>
	<path class="st0" d="M1559.42,138.64l17.63-19.18l-12.71-22.93l7.39,0.84l9.61,17.59l13.21-15.01l7.39,0.83l-17.5,19.44
		l12.89,22.71l-7.47-0.84l-9.61-17.51l-13.36,14.91L1559.42,138.64z"/>
	<path class="st0" d="M1627.36,122.45c7.32-23.23,27.28-32.07,47.84-25.59c19.36,6.1,28.7,22.11,24.49,40.15l-15.49-4.88
		c1.6-10.21-3.36-18.67-13.38-21.83c-12.02-3.79-22.89,2.77-27.43,17.19c-4.88,15.49,1.11,27.21,12.86,30.92
		c9.61,3.03,18.23-1.01,23.03-10.65l15.49,4.88c-7.63,17.7-23.94,25.19-42.76,19.26C1628.9,164.62,1620.63,143.81,1627.36,122.45z"
		/>
	<path class="st0" d="M1708.61,155.1c6.67-23.28,26.39-32.63,47.25-26.66c23.01,6.59,31.85,26.6,25.83,47.59
		c-6.9,24.09-26.2,34-47.46,27.91C1711.08,197.32,1702.29,177.18,1708.61,155.1z M1765.54,171.42c4.05-14.13-1.19-25.83-13.57-29.37
		c-12.38-3.55-23.16,3.56-27.21,17.69c-4.47,15.61,1.65,27.27,13.36,30.62C1750.91,194.02,1761.45,185.68,1765.54,171.42z"/>
	<path class="st0" d="M1789.85,214.93l19.71-103.13l16.23,3.1l-19.71,103.13L1789.85,214.93z"/>
	<path class="st0" d="M1824.57,200.74c2.76-17.14,20.34-18.13,34.84-17.62c11.26,0.45,19.49,1.28,20.52-4.51
		c0.96-7.22-3.85-12.77-13.26-14.21c-9.69-1.48-17.41,2.72-19.54,10.18l-16.47-2.52c3.89-15.27,19.38-23.95,38.34-21.05
		c19.79,3.03,29.07,15.49,26.68,31.13l-5.08,33.21c-0.32,2.08,0.62,3.35,3.11,3.73l4.01,0.62l-1.95,12.73l-7.75-1.19
		c-7.47-1.14-11.58-4.89-11.97-10.61c-0.17-0.73-0.3-1.74-0.31-2.6c-5.5,7.23-14.24,10.71-26.7,8.8
		C1832.16,224.28,1822.34,214.43,1824.57,200.74z M1876.46,201.31l1.57-10.24c-3.42,3.87-10.63,3.76-18.53,3.54
		c-9.3-0.29-17.11-0.21-18.29,7.54c-0.97,6.37,3.58,10.89,13.12,12.35C1865.54,216.22,1874.96,211.14,1876.46,201.31z"/>
	<path class="st0" d="M1922.77,222.54l-3.16,12.87l-13.2-1.64l12.99-104.2l16.39,2.04l-5.01,40.15c6.18-6.57,15.5-10.06,25.92-8.76
		c19.45,2.42,31.23,19.98,28.39,42.76c-2.89,23.2-18.66,37.6-38.25,35.16C1935.2,239.47,1926.2,232.42,1922.77,222.54z
		 M1968.3,203.66c1.82-14.59-5.11-25.75-17.06-27.24c-12.09-1.51-21.95,7.42-23.73,21.73c-1.89,15.14,5.39,26.91,17.48,28.42
		C1956.93,228.07,1966.43,218.67,1968.3,203.66z"/>
	<path class="st0" d="M1993.04,206.34c2.6-24.08,20.43-36.66,42.01-34.33c23.8,2.57,35.92,20.78,33.57,42.49
		c-2.69,24.92-20.01,37.97-42,35.6C2002.68,247.51,1990.58,229.16,1993.04,206.34z M2051.92,212.69
		c1.58-14.62-5.58-25.25-18.39-26.63s-22.21,7.46-23.79,22.07c-1.74,16.15,6.28,26.59,18.39,27.9
		C2041.36,237.46,2050.33,227.45,2051.92,212.69z"/>
	<path class="st0" d="M2077.22,253.28l7.29-73.84l13.24,1.31l0.52,14.68c5.73-9.56,14.89-14.01,27.15-12.8l2.79,0.28l-1.58,16.02
		l-2.79-0.28c-15.33-1.51-25.19,5.81-26.57,19.75l-3.6,36.5L2077.22,253.28z"/>
	<path class="st0" d="M2128.51,237.68c1.73-17.28,19.21-19.33,33.72-19.68c11.27-0.23,19.53,0.11,20.21-5.74
		c0.53-7.26-4.62-12.52-14.1-13.39c-9.76-0.89-17.22,3.76-18.9,11.34l-16.59-1.52c2.97-15.47,17.91-25.07,37.01-23.31
		c19.94,1.83,29.95,13.72,28.51,29.47l-3.07,33.46c-0.19,2.09,0.82,3.31,3.33,3.54l4.04,0.37l-1.18,12.83l-7.81-0.72
		c-7.53-0.69-11.85-4.18-12.59-9.87c-0.21-0.72-0.4-1.72-0.47-2.57c-5.05,7.55-13.57,11.55-26.12,10.4
		C2137.5,260.71,2127.1,251.46,2128.51,237.68z M2180.34,235.12l0.95-10.32c-3.19,4.07-10.39,4.39-18.28,4.65
		c-9.3,0.27-17.09,0.82-17.8,8.63c-0.59,6.41,4.22,10.65,13.84,11.54C2170.34,250.65,2179.43,245.02,2180.34,235.12z"/>
	<path class="st0" d="M2211.54,228.11c2.07-24.27,19.62-37.25,41.1-35.41c20.23,1.72,32.84,15.31,32.66,33.84l-16.18-1.38
		c-0.67-10.31-7.36-17.49-17.82-18.38c-12.55-1.07-21.73,7.7-23.02,22.77c-1.38,16.18,7.03,26.31,19.3,27.36
		c10.04,0.86,17.57-4.96,20.14-15.42l16.18,1.38c-3.58,18.95-17.86,29.81-37.53,28.13C2222.25,268.93,2209.63,250.43,2211.54,228.11
		z"/>
	<path class="st0" d="M2294.19,272.89l6.04-73.96l16.47,1.35l-6.04,73.96L2294.19,272.89z M2299.55,178.08
		c0.49-6,5.47-10.23,11.47-9.74c6.14,0.5,10.23,5.47,9.74,11.47s-5.34,10.38-11.48,9.88
		C2303.27,189.2,2299.06,184.08,2299.55,178.08z"/>
	<path class="st0" d="M2326.37,237.61c1.89-24.15,19.35-37.24,40.98-35.55c23.87,1.87,36.51,19.71,34.8,41.49
		c-1.96,24.98-18.89,38.54-40.94,36.81C2337.21,278.49,2324.58,260.5,2326.37,237.61z M2385.41,242.24
		c1.15-14.65-6.32-25.07-19.16-26.08c-12.84-1.01-21.98,8.11-23.13,22.76c-1.27,16.19,7.06,26.39,19.2,27.34
		C2375.58,267.31,2384.25,257.04,2385.41,242.24z"/>
	<path class="st0" d="M2411.94,282.19l5.51-74l13.26,0.99l0.58,10.99c5.18-7.34,14.94-12.08,25.97-11.26
		c15.78,1.17,25.32,12.55,24.08,29.17l-3.65,49.01l-16.47-1.22l3.58-48.17c0.61-8.24-4.43-14.09-13.64-14.77
		c-10.75-0.8-18.56,6.06-19.42,15.68l-3.34,44.82L2411.94,282.19z"/>
	<path class="st0" d="M2492.11,251.22c1.74-24.44,18.88-38.38,39.54-36.9c20.95,1.49,33.87,17.15,32.58,41.2l-0.28,3.91l-55.58-3.96
		c0.19,13.07,7.67,22.44,20.23,23.34c8.52,0.61,15.24-3.12,18.28-10.35l16.06,1.14c-4.91,15.65-18.02,24.4-35.48,23.16
		C2504.85,291.15,2490.5,273.85,2492.11,251.22z M2547.74,246.62c-1.34-10.76-7.44-17.65-17.08-18.34
		c-9.78-0.7-17.5,5.21-20.76,15.64L2547.74,246.62z"/>
	<path class="st0" d="M2572.2,270.1l15.92,1.09c0.01,8,6.57,12.66,15.65,13.28c8.38,0.58,13.07-2.33,13.46-8.05
		c0.39-5.73-4.28-7.17-10.56-9.71l-9.56-3.88c-12.01-4.9-22.34-9.81-21.4-23.5c0.9-13.13,11.55-21.1,29.29-19.88
		c17.18,1.18,28.29,11.06,29.09,27.96l-15.64-1.08c-0.26-8.44-6-12.76-14.52-13.35c-7.26-0.5-11.66,2.29-12.01,7.31
		c-0.39,5.72,5.93,7.7,11.11,9.88l8.74,3.55c14.33,5.9,22.82,10.97,21.91,24.24c-0.94,13.69-11.85,21.36-30.01,20.11
		C2583.42,296.69,2572.06,286.37,2572.2,270.1z"/>
</g>
</svg>
