<?xml version="1.0" encoding="utf-8"?>
<!-- Generator: Adobe Illustrator 24.0.2, SVG Export Plug-In . SVG Version: 6.00 Build 0)  -->
<svg version="1.1" id="Capa_1" xmlns="http://www.w3.org/2000/svg" xmlns:xlink="http://www.w3.org/1999/xlink" x="0px" y="0px"
	 viewBox="0 0 480 480" style="enable-background:new 0 0 480 480;" xml:space="preserve">
<style type="text/css">
	.st0{fill:#EC1E7A;}
</style>
<path class="st0" d="M362.13,441.51c-2.63,3.82-4.24,5.9-5.57,8.14c-2.45,4.14-5.75,12.27-6.92,11.96
	c-8.38-2.19-17.65-4.51-24.05-9.87c-7.52-6.29-12.23-12.03-23.75-6.78c-5.94,2.71-15.22-1.38-22.85-3.05
	c-6.67-1.45-14.69-2.05-19.33-6.17c-7.14-6.34-12.74-14.9-17.46-23.37c-6.61-11.84-11.07-24.9-17.96-36.55
	c-2.94-4.97-9.22-9.79-14.79-11.01c-13.95-3.05-21.72-16.88-18.28-31.5c2.9-12.35,5.96-26.17,3.05-37.86
	c-1.91-7.67-13.7-13.85-22.23-18.62c-7.76-4.34-17.08-5.89-26.65-8.97c-4.15,9.37-7.58,18.16-1.94,28.77
	c2.16,4.06,2.38,10.99,0.38,15.11c-8.18,16.84-0.23,33.85-1.96,50.6c-0.79,7.62-1.18,15.97-4.61,22.49
	c-9.84,18.72-32.62,19.26-49.01,2.78c-5.74-5.77-13.48-9.5-20-14.57c-6.7-5.22-13.02-10.94-20.84-17.57
	c3.48-14.41-11.44-19.4-20.59-27.19c-8.23-6.99-9.48-12.68-6.18-22.76c9.46-28.87,17.79-58.12,25.75-87.44
	c1.21-4.46-0.86-10.69-3.32-15.03c-2.78-4.91-7.7-8.62-11.7-12.84c-11.03-11.63-11-20.06,3.06-28.25
	c10.1-5.89,13.03-12.37,9.11-23.84c10.61-5.38,22.13-9.26,30.95-16.44c5.27-4.29,7.45-13.53,8.98-20.97
	c1.87-9.08,3.44-14.75,15.16-16.11c13.39-1.55,26.71-6.82,39.1-12.55c5.79-2.68,11.31-9.57,13.45-15.76
	c4.15-12,5.83-24.86,8.95-39.32c10.5,6.31,26.9,2.52,27.36,15.63c11.49,9.11,20.67,14.63,27.57,22.22
	c12.91,14.21,18.13,14.37,37.37,11.47c18.79-2.83,38.33-0.61,59.78-0.61c-6.45,19.44-12.1,37.63-18.53,55.54
	c-5.68,15.84-5.42,18.75,1.5,25.36c4.14,21.07,6.04,37.12,11.08,52.12c1.39,4.13,12,6.63,18.61,7.21
	c10.42,0.91,15.77,5.85,13.38,15.36c-4.45,17.73-2.66,33.06,11.21,46.08c2.12,1.99,3.33,5.33,4.12,8.28
	c3.58,13.44,10.57,14.99,22.29,8.35c9.26-5.25,27,2.56,35.39,13.98c2.79,3.8,5.56,7.61,11.01,15.07
	c4.18-23.46,16.73-29.11,37.28-22.37c0,3.48-0.08,8.16,0.01,12.85c0.63,31.25,1.24,62.51,1.99,93.76
	c0.33,13.78-18.1,33.67-30.37,38.63c-12.01,4.85-23.24,13.43-32.51,22.67c-6.92,6.9-10.17,5.82-15.99,0.2
	C376.35,452.74,369.33,447.52,362.13,441.51z"/>
</svg>
