<?xml version="1.0" encoding="utf-8"?>
<!-- Generator: Adobe Illustrator 28.3.0, SVG Export Plug-In . SVG Version: 6.00 Build 0)  -->
<svg version="1.1" id="Capa_1" xmlns="http://www.w3.org/2000/svg" xmlns:xlink="http://www.w3.org/1999/xlink" x="0px" y="0px"
	 viewBox="0 0 146.33 142.71" style="enable-background:new 0 0 146.33 142.71;" xml:space="preserve">
<style type="text/css">
	.st0{fill:#FF4528;}
</style>
<path class="st0" d="M31.71,83.7c-5.57-8.49-7.45-17.4-1.93-26.4c5.54-9.02,14.28-11.11,24.32-9.49c0.28-1.03-0.29-1.77-0.55-2.54
	c-1.83-5.53-1.71-11,0.45-16.41c2.84-7.1,9.85-12.81,18.83-12.74c8.57,0.06,14.76,3.62,18.69,11.08c3.01,5.73,3.23,11.78,1.3,17.93
	c-0.26,0.82-0.8,1.57-0.72,2.7c10-1.64,18.83,0.38,24.44,9.48c5.55,9.02,3.66,17.91-1.87,26.29c0.58,0.75,1.36,0.6,2.04,0.7
	c4.4,0.67,8.51,2.13,12.29,4.51c5.33,3.36,9.02,8.06,11.38,13.85c2.8,6.89,3.72,14.04,2.66,21.39c-0.37,2.55,0.21,2.56-2.9,2.56
	c-14.78,0-29.57,0-44.35,0c-3.12,0-6.23,0-9.35-0.01c-1.87-0.01-1.94-0.01-2.31-1.91c-2.16-11.11,0.4-21.08,7.34-29.95
	c0.97-1.24,2.06-2.4,3.11-3.61c-0.51-0.77-1.27-0.82-1.91-1.06c-4.27-1.6-8.05-3.94-10.95-7.5c-5.05-6.2-6.08-13.2-3.83-20.77
	c0.31-1.05,0.69-2.09,1.12-3.36c-3.9,0.68-7.61,0.73-11.37,0.01c-0.21,1.09,0.35,1.83,0.61,2.62c1.32,3.86,1.72,7.82,0.95,11.82
	c-1.38,7.18-5.68,12.18-11.99,15.6c-1.67,0.9-3.45,1.56-5.22,2.18c0.22,0.97,0.9,1.32,1.38,1.83c8.42,9.05,11.48,19.69,9.4,31.84
	c-0.38,2.24-0.44,2.24-2.75,2.24c-17.98,0.01-35.96,0.02-53.94,0.02c-2.4,0-2.42-0.01-2.74-2.22c-1.23-8.56,0-16.75,3.93-24.46
	c4.23-8.31,11.17-13.14,20.15-15.21C28.79,84.39,30.26,84.45,31.71,83.7z"/>
</svg>
