<?xml version="1.0" encoding="utf-8"?>
<!-- Generator: Adobe Illustrator 24.0.2, SVG Export Plug-In . SVG Version: 6.00 Build 0)  -->
<svg version="1.1" id="Capa_1" xmlns="http://www.w3.org/2000/svg" xmlns:xlink="http://www.w3.org/1999/xlink" x="0px" y="0px"
	 viewBox="0 0 400 400" style="enable-background:new 0 0 400 400;" xml:space="preserve">
<polygon points="129.83,379.25 133.41,362.2 133.41,347.68 137.58,333.78 140.57,326.2 147.72,319.89 153.69,313.57 149.51,307.89 
	145.34,301.57 141.76,292.73 137.58,281.99 126.25,281.99 116.12,281.99 105.98,281.99 98.82,278.84 92.26,275.68 88.09,268.73 
	88.09,263.05 88.09,254.2 88.09,248.52 81.53,245.99 81.53,237.15 81.53,228.94 76.16,220.73 76.16,213.78 76.16,205.57 
	74.97,201.15 71.39,199.89 66.02,198.63 61.85,196.1 57.67,191.68 57.67,186.63 58.27,180.31 60.06,175.89 63.04,169.57 
	66.02,164.52 67.21,162 67.21,160.1 61.85,162.63 57.67,163.89 52.31,165.15 46.94,166.42 42.17,166.42 35.61,167.05 30.84,165.15 
	26.07,163.26 22.49,160.1 18.31,156.94 14.73,152.52 11.75,148.73 8.17,144.31 6.98,141.15 5.19,136.73 4,131.68 4,126 5.19,122.21 
	8.17,119.68 16.52,115.89 42.17,103.89 62.44,95.05 63.64,90.63 70.79,80.52 76.76,72.95 82.72,64.74 87.49,60.31 90.47,55.89 
	94.05,50.84 100.01,45.16 107.17,40.1 114.33,36.32 120.29,33.79 125.66,31.89 130.43,30.63 135.2,27.47 137.58,24.95 141.76,24.95 
	148.92,21.79 154.88,19.26 165.02,19.26 171.58,18 178.73,18 185.29,19.26 192.45,21.16 200.2,22.42 207.95,24.95 218.09,30 
	226.44,35.68 233.6,40.1 241.35,49.58 246.12,55.26 250.89,64.1 254.47,70.42 256.86,78 259.84,84.95 259.84,93.79 262.22,98.84 
	265.8,103.26 265.8,111.47 266.99,123.47 265.2,133.58 264.01,142.42 262.82,146.84 264.01,153.15 264.01,162 263.42,170.21 
	263.42,177.79 262.22,184.73 261.03,191.68 261.63,196.73 263.42,203.68 262.82,211.26 265.2,216.94 264.61,228.31 268.78,230.84 
	274.75,241.57 283.1,248.52 290.85,256.73 298.6,259.89 310.53,266.2 321.26,272.52 332.59,281.99 343.33,292.73 349.89,300.31 
	359.43,313.57 368.97,327.47 380.9,343.25 389.25,357.15 397,379.25 "/>
</svg>
