<?xml version="1.0" encoding="utf-8"?>
<!-- Generator: Adobe Illustrator 24.0.2, SVG Export Plug-In . SVG Version: 6.00 Build 0)  -->
<svg version="1.1" id="Layer_1" xmlns="http://www.w3.org/2000/svg" xmlns:xlink="http://www.w3.org/1999/xlink" x="0px" y="0px"
	 viewBox="0 0 356.3 497.83" style="enable-background:new 0 0 356.3 497.83;" xml:space="preserve">
<style type="text/css">
	.st0{fill:#7D7E81;}
	.st1{fill:#231F20;}
	.st2{fill:#5457A6;}
</style>
<g>
	<g>
		<g>
			<path class="st0" d="M181.22,70.23c1.41-0.18,2.72,0.17,3.68,0.79c0.97,0.65,1.58,1.62,1.66,2.72c0.07,1.1-0.4,2.12-1.19,2.91
				c-0.79,0.81-1.9,1.34-3.17,1.5c-2.53,0.29-4.79-1.05-5.3-3.19C176.39,72.82,178.4,70.55,181.22,70.23z"/>
			<path class="st1" d="M181.5,78.56c-2.43,0-4.46-1.4-4.95-3.51c-0.23-0.97-0.01-2.01,0.63-2.92c0.86-1.22,2.35-2.06,3.99-2.25
				c1.38-0.18,2.81,0.13,3.92,0.85c1.08,0.73,1.74,1.82,1.82,3c0.08,1.15-0.38,2.28-1.3,3.19c-0.83,0.86-2.03,1.43-3.38,1.6
				C181.99,78.54,181.75,78.56,181.5,78.56z M181.94,70.55c-0.23,0-0.45,0.01-0.68,0.04l-0.01,0c-1.44,0.16-2.74,0.89-3.48,1.94
				c-0.52,0.74-0.71,1.57-0.52,2.34c0.46,1.96,2.53,3.19,4.91,2.92c1.17-0.15,2.22-0.65,2.95-1.4c0.77-0.76,1.15-1.7,1.09-2.63
				c-0.06-0.96-0.61-1.85-1.5-2.44C183.91,70.82,182.94,70.55,181.94,70.55z"/>
		</g>
		<g>
			<path class="st0" d="M189.49,69.6c1.4-0.03,2.67,0.38,3.58,1.09c0.91,0.74,1.45,1.75,1.43,2.85c-0.01,1.1-0.56,2.09-1.42,2.8
				c-0.86,0.74-2.02,1.22-3.31,1.24c-2.56,0.1-4.79-1.52-5-3.7C184.56,71.67,186.67,69.71,189.49,69.6z"/>
			<path class="st1" d="M189.53,77.94c-2.67,0-4.9-1.73-5.12-4.03c-0.1-1.01,0.25-2.02,0.97-2.85c0.95-1.09,2.45-1.76,4.09-1.83
				h0.01c1.48-0.04,2.81,0.38,3.81,1.17c1.03,0.84,1.58,1.95,1.57,3.14c-0.01,1.17-0.56,2.26-1.55,3.07
				c-0.96,0.83-2.22,1.3-3.53,1.33C189.7,77.94,189.61,77.94,189.53,77.94z M189.5,69.96c-1.45,0.06-2.75,0.63-3.57,1.58
				c-0.59,0.68-0.87,1.5-0.79,2.31c0.19,1.96,2.26,3.48,4.63,3.37c1.15-0.02,2.25-0.43,3.09-1.16c0.82-0.68,1.28-1.58,1.29-2.53
				c0.01-0.96-0.45-1.87-1.3-2.56C191.99,70.3,190.77,69.91,189.5,69.96z"/>
		</g>
		<g>
			<path class="st0" d="M197.73,69.6c2.8,0.17,4.9,2.09,4.71,4.29c-0.2,2.2-2.44,3.85-5.01,3.69c-2.57-0.04-4.68-1.88-4.71-4.07
				C192.68,71.29,194.93,69.55,197.73,69.6z"/>
			<path class="st1" d="M197.76,77.95c-0.12,0-0.24,0-0.36-0.01c-2.74-0.04-5.02-2.03-5.05-4.42c-0.01-1.01,0.39-1.95,1.16-2.72
				c1.02-1.02,2.57-1.61,4.23-1.56l0.02,0c1.66,0.1,3.15,0.79,4.1,1.89c0.7,0.81,1.04,1.81,0.95,2.79
				C202.59,76.2,200.37,77.95,197.76,77.95z M197.62,69.96c-1.43,0-2.74,0.49-3.6,1.35c-0.63,0.63-0.95,1.39-0.94,2.2
				c0.03,2.01,1.98,3.67,4.36,3.71c2.37,0.15,4.47-1.36,4.65-3.37c0.07-0.8-0.2-1.58-0.78-2.26c-0.82-0.95-2.12-1.55-3.58-1.64
				C197.69,69.96,197.65,69.96,197.62,69.96z"/>
		</g>
		<g>
			<path class="st0" d="M205.94,70.24c2.79,0.25,4.74,2.44,4.39,4.6c-0.35,2.19-2.69,3.56-5.26,3.33c-1.29-0.13-2.41-0.73-3.21-1.5
				c-0.8-0.77-1.27-1.8-1.2-2.9c0.07-1.1,0.69-2.06,1.65-2.73C203.26,70.38,204.55,70.1,205.94,70.24z"/>
			<path class="st1" d="M205.64,78.57c-0.2,0-0.4-0.01-0.6-0.03c-1.27-0.13-2.49-0.69-3.43-1.6c-0.92-0.89-1.39-2.02-1.31-3.19
				c0.08-1.18,0.72-2.25,1.8-3c1.02-0.71,2.39-1.02,3.88-0.87c1.58,0.14,2.99,0.88,3.88,2.03c0.7,0.9,1,1.97,0.83,3
				C210.34,77.06,208.22,78.57,205.64,78.57z M205.25,70.57c-1.06,0-2.01,0.27-2.74,0.78c-0.9,0.62-1.43,1.5-1.49,2.46
				c-0.06,0.95,0.32,1.88,1.09,2.62c0.83,0.79,1.89,1.29,3,1.4c2.46,0.21,4.56-1.08,4.87-3.03c0.13-0.83-0.11-1.69-0.69-2.44
				c-0.77-0.99-2-1.62-3.38-1.75l0,0C205.68,70.58,205.46,70.57,205.25,70.57z"/>
		</g>
		<g>
			<path class="st0" d="M214.08,71.39c2.75,0.53,4.56,2.77,4.06,4.91c-0.5,2.16-2.94,3.44-5.47,2.95c-2.55-0.4-4.39-2.5-4.1-4.69
				C208.84,72.38,211.31,70.96,214.08,71.39z"/>
			<path class="st1" d="M213.77,79.72c-0.38,0-0.78-0.04-1.17-0.11c-2.72-0.43-4.7-2.71-4.39-5.09c0.13-0.98,0.67-1.88,1.53-2.53
				c1.16-0.87,2.76-1.22,4.4-0.96l0.01,0c1.6,0.31,2.98,1.19,3.77,2.41c0.6,0.92,0.8,1.96,0.58,2.94
				C218.03,78.4,216.06,79.72,213.77,79.72z M213.08,71.68c-1.1,0-2.13,0.31-2.91,0.9c-0.71,0.53-1.15,1.24-1.25,2.04
				c-0.26,1.99,1.45,3.92,3.8,4.28c2.39,0.47,4.61-0.71,5.07-2.67c0.18-0.79,0.01-1.63-0.48-2.39c-0.68-1.05-1.89-1.81-3.3-2.09
				C213.7,71.7,213.38,71.68,213.08,71.68z"/>
		</g>
		<g>
			<path class="st0" d="M222.11,73.14c2.7,0.72,4.37,3.02,3.73,5.14c-0.64,2.11-3.18,3.28-5.67,2.61c-1.25-0.37-2.3-1-2.99-1.89
				c-0.69-0.88-1.01-1.97-0.79-3.05c0.22-1.08,0.96-1.94,2-2.46C219.42,72.96,220.77,72.75,222.11,73.14z"/>
			<path class="st1" d="M221.58,81.43c-0.5,0-1-0.06-1.51-0.2c-1.37-0.4-2.47-1.1-3.18-2.02c-0.79-1.01-1.09-2.2-0.86-3.34
				c0.24-1.16,1.02-2.13,2.19-2.71c1.23-0.61,2.67-0.74,3.98-0.36c1.6,0.43,2.92,1.4,3.62,2.66c0.52,0.94,0.65,1.98,0.36,2.93
				C225.62,80.24,223.71,81.43,221.58,81.43z M220.7,73.3c-0.74,0-1.48,0.17-2.15,0.5c-0.97,0.49-1.61,1.27-1.81,2.21
				c-0.19,0.93,0.07,1.91,0.72,2.76c0.62,0.8,1.59,1.41,2.81,1.77c2.29,0.62,4.64-0.45,5.23-2.37c0.23-0.77,0.13-1.59-0.3-2.37
				c-0.61-1.09-1.77-1.93-3.18-2.31l-0.01,0C221.58,73.36,221.14,73.3,220.7,73.3z"/>
		</g>
	</g>
	<g>
		<g>
			<path class="st2" d="M286.11,170.93c-27.91-65.84-69.37-86.52-99.1-92.32c1.55-3.29,2.42-6.97,2.42-10.86
				c0-14.08-11.42-25.5-25.5-25.5c-14.08,0-25.5,11.42-25.5,25.5c0,4.1,0.97,7.97,2.69,11.4c-29.51,6.49-69.39,27.84-96.49,91.78
				C13.34,244.8-13.43,358.49,24.06,422.21c28.35,48.19,85.1,68.51,141.32,67.77c56.22,0.74,112.97-19.58,141.32-67.77
				C344.19,358.49,317.42,244.8,286.11,170.93z M148.52,67.75c0-8.52,6.91-15.42,15.42-15.42c8.52,0,15.42,6.91,15.42,15.42
				c0,3.5-1.18,6.71-3.14,9.3c-2.82,3.71-7.26,6.13-12.29,6.13c-4.89,0-9.25-2.29-12.07-5.84C149.78,74.7,148.52,71.38,148.52,67.75
				z"/>
			<path class="st1" d="M168.34,490.37c-0.99,0-1.98-0.01-2.97-0.02c-29.39,0.41-57.48-4.99-81.25-15.57
				c-26.56-11.81-46.88-29.44-60.37-52.38C6.68,393.39,1.45,352.32,8.2,300.33c7.21-55.58,25.73-105.02,36.12-129.54
				c15.03-35.47,43.94-80.15,96.29-91.89c-1.68-3.5-2.53-7.25-2.53-11.15c0-14.26,11.6-25.86,25.86-25.86
				c14.26,0,25.86,11.6,25.86,25.86c0,3.69-0.76,7.25-2.27,10.59c29.87,5.95,71.11,26.86,98.91,92.45
				c32.57,76.84,57.5,188.83,20.57,251.61c-13.5,22.95-33.81,40.57-60.38,52.38C223.67,484.99,196.65,490.36,168.34,490.37z
				 M165.37,489.62c29.29,0.4,57.29-4.97,80.97-15.5c26.42-11.75,46.63-29.28,60.05-52.09c16.98-28.87,22.18-69.78,15.46-121.61
				c-7.2-55.49-25.69-104.86-36.07-129.35c-27.81-65.62-69.1-86.31-98.83-92.11l-0.46-0.09l0.2-0.42c1.59-3.36,2.39-6.96,2.39-10.7
				c0-13.86-11.28-25.14-25.14-25.14c-13.86,0-25.14,11.28-25.14,25.14c0,3.94,0.89,7.72,2.65,11.24l0.21,0.41l-0.45,0.1
				c-52.34,11.51-81.22,56.15-96.23,91.57c-32.5,76.68-57.4,188.42-20.61,250.96c13.42,22.81,33.62,40.34,60.05,52.09
				C108.09,484.65,136.1,490.02,165.37,489.62z M163.94,83.54c-4.83,0-9.34-2.18-12.36-5.98c-2.24-2.82-3.43-6.22-3.43-9.81
				c0-8.7,7.08-15.78,15.79-15.78c8.7,0,15.79,7.08,15.79,15.78c0,3.45-1.11,6.75-3.21,9.52C173.49,81.25,168.91,83.54,163.94,83.54
				z M163.94,52.69c-8.31,0-15.06,6.76-15.06,15.06c0,3.43,1.13,6.66,3.27,9.36c2.88,3.63,7.18,5.71,11.79,5.71
				c4.74,0,9.12-2.18,12-5.98c2.01-2.65,3.07-5.79,3.07-9.08C179.01,59.45,172.25,52.69,163.94,52.69z"/>
		</g>
	</g>
	<g>
		<g>
			<g>
				<path class="st0" d="M230.61,75.62c1.32,0.44,2.37,1.25,2.98,2.22c0.61,0.98,0.76,2.14,0.37,3.17
					c-0.39,1.04-1.23,1.75-2.29,2.15c-1.06,0.41-2.32,0.46-3.56,0.06c-1.23-0.4-2.21-1.21-2.83-2.16c-0.62-0.91-0.87-2.02-0.57-3.08
					c0.3-1.06,1.1-1.88,2.18-2.34C227.96,75.2,229.28,75.18,230.61,75.62z"/>
				<path class="st1" d="M229.84,83.84c-0.61,0-1.23-0.1-1.83-0.3c-1.24-0.4-2.31-1.22-3.02-2.3c-0.72-1.05-0.94-2.25-0.62-3.37
					c0.32-1.14,1.17-2.05,2.39-2.57c1.17-0.47,2.58-0.48,3.97-0.03l0,0c1.36,0.45,2.49,1.29,3.17,2.37c0.68,1.1,0.83,2.37,0.41,3.49
					c-0.41,1.08-1.27,1.9-2.5,2.36C231.18,83.72,230.51,83.84,229.84,83.84z M228.69,75.66c-0.59,0-1.16,0.1-1.66,0.31
					c-1.01,0.43-1.71,1.17-1.97,2.1c-0.26,0.91-0.07,1.9,0.52,2.77c0.62,0.95,1.56,1.66,2.65,2.02c1.11,0.37,2.28,0.35,3.32-0.05
					c0.72-0.27,1.66-0.82,2.08-1.94c0.34-0.91,0.21-1.95-0.34-2.85c-0.58-0.92-1.6-1.67-2.79-2.07
					C229.88,75.76,229.27,75.66,228.69,75.66z"/>
			</g>
			<g>
				<path class="st0" d="M238.32,78.43c1.29,0.52,2.3,1.38,2.83,2.4c0.53,1.05,0.62,2.19,0.16,3.2c-0.45,1.01-1.35,1.69-2.42,1.98
					c-1.08,0.31-2.35,0.31-3.56-0.17c-2.4-0.96-3.76-3.42-3.05-5.47C233.03,78.25,235.72,77.4,238.32,78.43z"/>
				<path class="st1" d="M237.36,86.59c-0.74,0-1.47-0.14-2.16-0.42c-2.57-1.03-4.03-3.68-3.25-5.92c0.34-0.96,1.06-1.74,2.05-2.19
					c1.3-0.59,2.93-0.58,4.46,0.03h0c1.37,0.55,2.44,1.47,3.01,2.57c0.6,1.18,0.66,2.43,0.17,3.51c-0.48,1.07-1.42,1.84-2.65,2.18
					C238.45,86.52,237.91,86.59,237.36,86.59z M236.1,78.35c-0.64,0-1.26,0.12-1.81,0.37c-0.82,0.37-1.39,0.98-1.67,1.77
					c-0.65,1.88,0.62,4.12,2.84,5.01c1.05,0.42,2.23,0.48,3.32,0.16c1.02-0.28,1.8-0.92,2.19-1.78c0.4-0.88,0.34-1.9-0.15-2.88
					c-0.49-0.95-1.43-1.74-2.64-2.23C237.49,78.49,236.78,78.35,236.1,78.35z"/>
			</g>
			<g>
				<path class="st0" d="M245.82,81.75c1.25,0.59,2.21,1.53,2.66,2.56c0.45,1.03,0.49,2.16,0,3.15c-0.49,0.99-1.43,1.64-2.55,1.89
					c-1.13,0.24-2.38,0.17-3.56-0.39c-2.34-1.1-3.54-3.65-2.68-5.67C240.55,81.24,243.29,80.56,245.82,81.75z"/>
				<path class="st1" d="M244.71,89.83c-0.87,0-1.71-0.19-2.49-0.56c-2.51-1.18-3.79-3.93-2.86-6.14c0.39-0.92,1.15-1.63,2.15-2.02
					c1.34-0.51,2.97-0.4,4.47,0.3h0c1.32,0.63,2.35,1.62,2.84,2.74c0.52,1.18,0.52,2.41-0.01,3.46c-0.53,1.06-1.52,1.8-2.8,2.08
					C245.57,89.79,245.14,89.83,244.71,89.83z M243.3,81.52c-0.54,0-1.06,0.09-1.53,0.27c-0.83,0.32-1.43,0.88-1.75,1.63
					c-0.79,1.85,0.34,4.19,2.5,5.2c1.03,0.49,2.18,0.62,3.33,0.37c1.06-0.23,1.88-0.84,2.31-1.69c0.42-0.85,0.42-1.86-0.01-2.85
					c-0.42-0.96-1.32-1.82-2.48-2.38l0,0C244.89,81.71,244.07,81.52,243.3,81.52z"/>
			</g>
			<g>
				<path class="st0" d="M252.97,85.22c2.38,1.11,3.58,3.64,2.69,5.65c-0.9,2.01-3.65,2.71-6.14,1.55c-2.46-1.22-3.64-3.8-2.64-5.76
					C247.89,84.7,250.62,84.05,252.97,85.22z"/>
				<path class="st1" d="M251.99,93.34c-0.87,0-1.77-0.2-2.62-0.6c-1.45-0.72-2.54-1.91-2.99-3.27c-0.34-1.03-0.27-2.09,0.18-2.98
					c1.1-2.13,4.04-2.85,6.57-1.6c2.55,1.19,3.83,3.94,2.86,6.12c-0.41,0.92-1.19,1.63-2.21,2.01
					C253.22,93.24,252.61,93.34,251.99,93.34z M250.54,85c-1.44,0-2.74,0.65-3.34,1.83c-0.37,0.73-0.42,1.57-0.14,2.43
					c0.39,1.18,1.34,2.21,2.62,2.84c1.28,0.6,2.69,0.69,3.85,0.26c0.85-0.32,1.47-0.88,1.81-1.63c0.81-1.83-0.31-4.15-2.51-5.18
					l-0.01,0C252.07,85.17,251.29,85,250.54,85z"/>
			</g>
			<g>
				<path class="st0" d="M260.06,88.43c1.2,0.53,2.13,1.4,2.66,2.39c0.53,0.99,0.67,2.12,0.26,3.15c-0.41,1.02-1.28,1.75-2.39,2.08
					c-1.11,0.35-2.43,0.27-3.69-0.28c-2.54-1.08-3.8-3.65-2.87-5.65C254.97,88.12,257.65,87.41,260.06,88.43z"/>
				<path class="st1" d="M259.17,96.62c-0.8,0-1.62-0.18-2.41-0.52c-1.46-0.62-2.59-1.74-3.1-3.07c-0.4-1.04-0.38-2.13,0.05-3.06
					c1.01-2.16,3.86-2.98,6.49-1.87l0.01,0c1.23,0.54,2.23,1.44,2.83,2.54c0.61,1.14,0.71,2.36,0.28,3.45
					c-0.44,1.1-1.37,1.92-2.62,2.3C260.21,96.54,259.69,96.62,259.17,96.62z M257.81,88.32c-1.52,0-2.86,0.7-3.44,1.95
					c-0.35,0.75-0.36,1.64-0.03,2.5c0.44,1.15,1.43,2.13,2.72,2.67c1.15,0.51,2.37,0.6,3.44,0.27c1.04-0.32,1.81-0.98,2.16-1.87
					c0.35-0.88,0.27-1.89-0.24-2.84c-0.52-0.96-1.41-1.75-2.49-2.22C259.21,88.47,258.49,88.32,257.81,88.32z"/>
			</g>
			<g>
				<path class="st0" d="M267.26,91.34c1.23,0.45,2.19,1.28,2.76,2.26c0.58,0.96,0.77,2.07,0.42,3.12c-0.35,1.04-1.2,1.82-2.29,2.21
					c-1.08,0.37-2.41,0.36-3.7-0.11c-2.6-0.97-3.97-3.5-3.13-5.52C262.17,91.25,264.81,90.43,267.26,91.34z"/>
				<path class="st1" d="M266.52,99.55c-0.72,0-1.47-0.13-2.19-0.4c-1.49-0.56-2.68-1.63-3.25-2.95c-0.44-1.02-0.47-2.1-0.08-3.05
					c0.91-2.2,3.72-3.15,6.39-2.16l0,0c1.26,0.46,2.31,1.32,2.95,2.42c0.66,1.09,0.82,2.31,0.45,3.41
					c-0.38,1.12-1.27,1.99-2.51,2.44C267.72,99.46,267.13,99.55,266.52,99.55z M265.24,91.33c-1.61,0-3.03,0.77-3.58,2.11
					c-0.32,0.76-0.29,1.64,0.08,2.48c0.5,1.14,1.53,2.07,2.84,2.56c1.16,0.43,2.42,0.47,3.46,0.11c1.02-0.37,1.75-1.08,2.06-1.99
					c0.3-0.9,0.17-1.9-0.39-2.81c-0.56-0.96-1.47-1.7-2.58-2.11l0,0C266.5,91.44,265.85,91.33,265.24,91.33z"/>
			</g>
		</g>
		<g>
			<g>
				<path class="st0" d="M275.14,94.05c1.25,0.37,2.25,1.13,2.88,2.07c0.63,0.94,0.9,2.02,0.61,3.09c-0.28,1.06-1.08,1.91-2.14,2.35
					c-1.06,0.44-2.39,0.51-3.72,0.12c-2.65-0.84-4.18-3.26-3.44-5.33C270.07,94.26,272.66,93.27,275.14,94.05z"/>
				<path class="st1" d="M274.53,102.3c-0.61,0-1.24-0.09-1.86-0.28c-1.55-0.49-2.81-1.52-3.45-2.81c-0.49-0.98-0.57-2.05-0.23-2.99
					c0.8-2.27,3.55-3.38,6.25-2.52c1.28,0.38,2.37,1.17,3.08,2.22c0.73,1.09,0.96,2.26,0.66,3.38c-0.31,1.15-1.17,2.09-2.35,2.59
					C275.98,102.17,275.27,102.3,274.53,102.3z M273.44,94.15c-1.72,0-3.26,0.88-3.77,2.32c-0.27,0.76-0.2,1.63,0.2,2.43
					c0.55,1.12,1.65,2.01,3.01,2.44c1.19,0.35,2.46,0.32,3.47-0.11c0.98-0.41,1.68-1.17,1.93-2.11c0.31-1.15-0.14-2.16-0.56-2.8
					c-0.61-0.91-1.57-1.6-2.69-1.93l-0.01,0C274.5,94.23,273.96,94.15,273.44,94.15z"/>
			</g>
			<g>
				<path class="st0" d="M282.55,96.11c2.51,0.56,4.22,2.77,3.82,4.91c-0.41,2.19-2.96,3.47-5.69,2.85
					c-2.71-0.69-4.4-2.99-3.77-5.13C277.52,96.65,280.05,95.47,282.55,96.11z"/>
				<path class="st1" d="M282.06,104.39c-0.48,0-0.97-0.05-1.45-0.16c-1.61-0.41-2.93-1.36-3.64-2.61c-0.54-0.94-0.68-2-0.39-2.97
					c0.67-2.28,3.39-3.57,6.07-2.89c2.69,0.6,4.52,2.99,4.1,5.33c-0.18,0.99-0.78,1.86-1.68,2.46
					C284.21,104.1,283.16,104.39,282.06,104.39z M281.18,96.29c-1.84,0-3.47,1-3.92,2.55c-0.23,0.79-0.12,1.62,0.33,2.41
					c0.62,1.08,1.78,1.91,3.19,2.27c1.42,0.32,2.84,0.11,3.88-0.58c0.75-0.49,1.22-1.18,1.37-1.99c0.36-1.96-1.23-3.98-3.55-4.49
					l-0.01,0C282.03,96.35,281.6,96.29,281.18,96.29z"/>
			</g>
			<g>
				<path class="st0" d="M290.04,97.61c1.27,0.21,2.36,0.77,3.12,1.61c0.76,0.84,1.19,1.88,1.08,2.97c-0.11,1.1-0.76,2.05-1.75,2.64
					c-0.98,0.59-2.32,0.9-3.7,0.67c-1.38-0.24-2.55-0.9-3.31-1.77c-0.75-0.89-1.08-1.99-0.85-3.07c0.23-1.08,0.96-1.94,1.94-2.47
					C287.54,97.62,288.77,97.39,290.04,97.61z"/>
				<path class="st1" d="M289.7,105.93c-0.33,0-0.66-0.03-0.98-0.08c-1.43-0.25-2.68-0.92-3.52-1.89c-0.85-1.02-1.18-2.22-0.93-3.38
					c0.24-1.13,0.99-2.1,2.12-2.71c1.09-0.62,2.41-0.84,3.71-0.61c1.36,0.23,2.51,0.82,3.32,1.72c0.87,0.97,1.29,2.12,1.17,3.25
					c-0.12,1.19-0.82,2.25-1.93,2.91C291.8,105.66,290.75,105.93,289.7,105.93z M289.09,97.89c-0.83,0-1.65,0.21-2.35,0.61
					c-0.94,0.52-1.57,1.31-1.77,2.23c-0.2,0.95,0.07,1.93,0.77,2.77c0.72,0.82,1.84,1.43,3.09,1.65c1.2,0.2,2.46-0.03,3.46-0.62
					c0.91-0.54,1.48-1.4,1.58-2.36c0.09-0.93-0.26-1.88-0.99-2.69c-0.71-0.78-1.71-1.3-2.91-1.5l0,0
					C289.68,97.91,289.38,97.89,289.09,97.89z"/>
			</g>
			<g>
				<path class="st0" d="M297.56,98.47c2.51,0.12,4.57,1.94,4.61,4.12c0.04,2.23-2.26,4-5.12,3.85c-1.41-0.12-2.65-0.67-3.48-1.46
					c-0.83-0.83-1.25-1.9-1.11-2.99c0.14-1.09,0.8-2.01,1.72-2.62C295.1,98.71,296.29,98.36,297.56,98.47z"/>
				<path class="st1" d="M297.38,106.8c-0.12,0-0.23,0-0.35-0.01c-1.45-0.12-2.8-0.69-3.71-1.56c-0.94-0.95-1.37-2.12-1.22-3.3
					c0.14-1.15,0.81-2.18,1.88-2.88c1.03-0.72,2.31-1.06,3.6-0.95c2.73,0.14,4.9,2.1,4.95,4.47c0.02,1.01-0.4,1.99-1.18,2.74
					C300.36,106.27,298.93,106.8,297.38,106.8z M297.11,98.81c-0.98,0-1.94,0.29-2.72,0.84c-0.89,0.59-1.45,1.43-1.57,2.37
					c-0.12,0.96,0.24,1.91,1.01,2.69c0.79,0.76,1.98,1.25,3.25,1.36c1.48,0.07,2.85-0.39,3.76-1.27c0.65-0.63,0.98-1.39,0.97-2.21
					c-0.04-1.96-1.95-3.65-4.27-3.77l-0.01,0C297.38,98.81,297.24,98.81,297.11,98.81z"/>
			</g>
			<g>
				<path class="st0" d="M305.03,98.52c1.24-0.11,2.41,0.26,3.33,0.89c0.91,0.6,1.58,1.51,1.74,2.6c0.16,1.09-0.25,2.16-1.08,3.01
					c-0.84,0.81-2.1,1.35-3.54,1.47c-1.43,0.06-2.74-0.38-3.66-1.07c-0.92-0.71-1.45-1.75-1.43-2.85c0.02-1.11,0.58-2.06,1.42-2.8
					C302.65,99.02,303.77,98.57,305.03,98.52z"/>
				<path class="st1" d="M305.21,106.85c-1.35,0-2.65-0.41-3.62-1.15c-1.02-0.78-1.6-1.93-1.57-3.14c0.02-1.14,0.56-2.19,1.55-3.06
					c0.91-0.81,2.13-1.29,3.44-1.34c1.24-0.11,2.5,0.23,3.55,0.95c1.05,0.69,1.72,1.7,1.89,2.84c0.17,1.19-0.25,2.36-1.18,3.32
					c-0.92,0.9-2.25,1.45-3.76,1.58C305.4,106.85,305.31,106.85,305.21,106.85z M305.45,98.86c-0.13,0-0.26,0.01-0.4,0.02l-0.02,0
					c-1.14,0.05-2.21,0.46-3,1.16c-0.58,0.51-1.28,1.37-1.3,2.54c-0.02,0.98,0.45,1.91,1.29,2.55c0.91,0.69,2.15,1.06,3.43,1
					c1.31-0.11,2.52-0.61,3.3-1.37c0.77-0.78,1.12-1.74,0.98-2.7c-0.14-0.93-0.7-1.77-1.58-2.35
					C307.35,99.15,306.4,98.86,305.45,98.86z"/>
			</g>
			<g>
				<path class="st0" d="M312.31,97.56c0.6-0.13,1.2-0.15,1.77-0.06c0.57,0.08,1.1,0.2,1.6,0.43c0.99,0.46,1.81,1.26,2.15,2.31
					c0.34,1.05,0.12,2.16-0.59,3.12c-0.35,0.47-0.81,0.94-1.38,1.28c-0.56,0.33-1.22,0.59-1.93,0.74c-1.42,0.35-2.81,0.04-3.82-0.53
					c-1.02-0.58-1.68-1.5-1.8-2.6c-0.12-1.09,0.31-2.15,1.03-2.99C310.07,98.41,311.12,97.86,312.31,97.56z"/>
				<path class="st1" d="M312.72,105.89c-0.96,0-1.93-0.25-2.78-0.72c-1.15-0.65-1.85-1.67-1.98-2.88
					c-0.12-1.13,0.27-2.29,1.11-3.27c0.73-0.86,1.79-1.47,3.15-1.81l0.01,0c0.63-0.14,1.26-0.16,1.9-0.07
					c0.69,0.09,1.23,0.24,1.71,0.47c1.15,0.54,1.98,1.43,2.34,2.52c0.37,1.14,0.15,2.37-0.64,3.44c-0.42,0.57-0.94,1.05-1.48,1.37
					c-0.62,0.36-1.3,0.63-2.04,0.79C313.59,105.84,313.16,105.89,312.72,105.89z M312.39,97.92c-1.21,0.31-2.14,0.84-2.77,1.58
					c-0.71,0.83-1.04,1.79-0.94,2.72c0.1,0.97,0.68,1.8,1.62,2.33c1.08,0.6,2.38,0.78,3.56,0.49c0.67-0.15,1.29-0.38,1.84-0.7
					c0.46-0.28,0.9-0.69,1.27-1.18c0.64-0.88,0.83-1.87,0.53-2.79c-0.29-0.9-0.99-1.64-1.96-2.09c-0.41-0.2-0.87-0.32-1.49-0.4
					C313.48,97.78,312.93,97.8,312.39,97.92z"/>
			</g>
		</g>
		<g>
			<path class="st0" d="M319.73,95.29c1.08-0.52,2.26-0.57,3.33-0.31c1.04,0.22,2,0.82,2.57,1.76c0.56,0.95,0.59,2.09,0.11,3.21
				c-0.5,1.07-1.52,2.05-2.87,2.68c-1.38,0.52-2.79,0.61-3.91,0.22c-1.13-0.42-1.94-1.22-2.25-2.28c-0.31-1.06-0.08-2.17,0.48-3.09
				C317.75,96.55,318.6,95.71,319.73,95.29z"/>
			<path class="st1" d="M320.49,103.46c-0.59,0-1.14-0.09-1.64-0.27c-1.26-0.47-2.14-1.36-2.48-2.51c-0.32-1.1-0.14-2.3,0.52-3.38
				c0.46-0.78,1.31-1.82,2.71-2.34c1.09-0.52,2.32-0.63,3.56-0.33c1.21,0.26,2.21,0.95,2.79,1.93c0.62,1.04,0.66,2.3,0.13,3.54
				c-0.54,1.17-1.65,2.21-3.05,2.86C322.15,103.29,321.29,103.46,320.49,103.46z M321.8,95.19c-0.58,0-1.24,0.11-1.91,0.43
				l-0.03,0.01c-1.21,0.44-1.95,1.36-2.36,2.04c-0.55,0.9-0.71,1.9-0.45,2.8c0.27,0.93,0.99,1.65,2.03,2.04
				c1.01,0.36,2.34,0.28,3.65-0.22c1.22-0.57,2.21-1.49,2.67-2.49c0.44-1.01,0.41-2.04-0.09-2.87c-0.48-0.81-1.31-1.38-2.33-1.6
				C322.66,95.25,322.25,95.19,321.8,95.19z"/>
		</g>
		<g>
			<path class="st0" d="M326.36,91.5c0.24-0.17,0.5-0.32,0.76-0.44c0.26-0.13,0.51-0.26,0.77-0.35c0.53-0.18,1.08-0.27,1.63-0.26
				c1.11,0.03,2.16,0.35,2.93,1.14c0.76,0.79,1.09,1.93,0.83,3.07c-0.12,0.58-0.37,1.17-0.73,1.75c-0.18,0.28-0.39,0.57-0.63,0.83
				c-0.25,0.25-0.53,0.48-0.84,0.7c-0.61,0.43-1.25,0.75-1.89,0.95c-0.64,0.19-1.3,0.21-1.89,0.15c-1.19-0.14-2.15-0.73-2.68-1.7
				c-0.53-0.97-0.55-2.12-0.22-3.15c0.16-0.52,0.43-0.99,0.75-1.45C325.47,92.27,325.87,91.84,326.36,91.5z"/>
			<path class="st1" d="M327.9,99.43c-0.21,0-0.42-0.01-0.63-0.03c-1.33-0.15-2.38-0.82-2.96-1.89c-0.54-1-0.63-2.22-0.24-3.43
				c0.19-0.62,0.53-1.15,0.8-1.55c0.34-0.52,0.78-0.97,1.29-1.33h0c0.26-0.18,0.54-0.34,0.82-0.47c0.24-0.12,0.51-0.26,0.8-0.36
				c0.55-0.19,1.14-0.29,1.75-0.28c1.35,0.04,2.41,0.46,3.18,1.25c0.86,0.89,1.2,2.16,0.92,3.4c-0.13,0.62-0.39,1.25-0.77,1.86
				c-0.16,0.26-0.39,0.58-0.67,0.89c-0.28,0.27-0.57,0.52-0.89,0.74c-0.63,0.45-1.3,0.79-1.99,1.01
				C328.87,99.37,328.4,99.43,327.9,99.43z M326.57,91.79c-0.44,0.31-0.81,0.7-1.11,1.15c-0.37,0.54-0.58,0.94-0.71,1.36
				c-0.33,1.02-0.26,2.04,0.19,2.87c0.46,0.85,1.32,1.39,2.4,1.51c0.64,0.07,1.23,0.02,1.75-0.14c0.61-0.19,1.22-0.5,1.78-0.9
				c0.28-0.2,0.55-0.42,0.79-0.66c0.23-0.25,0.43-0.54,0.58-0.77c0.34-0.53,0.56-1.08,0.68-1.62c0.23-1.01-0.05-2.04-0.74-2.75
				c-0.63-0.65-1.53-1-2.68-1.03c-0.51-0.01-1.02,0.08-1.5,0.24c-0.25,0.08-0.49,0.21-0.72,0.33
				C327.03,91.5,326.79,91.63,326.57,91.79L326.57,91.79z"/>
		</g>
		<g>
			<path class="st0" d="M331.93,86.3c0.38-0.47,0.83-0.84,1.33-1.12c0.51-0.27,0.98-0.53,1.52-0.64c1.05-0.25,2.19-0.14,3.11,0.46
				c0.92,0.61,1.44,1.62,1.49,2.81c0.01,0.59-0.04,1.25-0.29,1.86c-0.24,0.62-0.61,1.23-1.08,1.81c-0.24,0.29-0.49,0.55-0.75,0.78
				c-0.27,0.22-0.57,0.41-0.87,0.57c-0.6,0.32-1.21,0.52-1.79,0.6c-1.16,0.18-2.27-0.22-3.01-1.04c-0.74-0.82-0.99-1.89-0.94-3
				c0.03-0.55,0.16-1.1,0.38-1.61c0.11-0.26,0.25-0.5,0.4-0.75C331.58,86.78,331.74,86.53,331.93,86.3z"/>
			<path class="st1" d="M334.06,93.83c-1.05,0-2.04-0.43-2.74-1.2c-0.74-0.83-1.09-1.92-1.03-3.26c0.04-0.61,0.17-1.19,0.41-1.73
				c0.11-0.26,0.25-0.51,0.43-0.79c0.15-0.26,0.32-0.53,0.53-0.78l0,0c0.4-0.49,0.88-0.89,1.43-1.2c0.53-0.29,1.03-0.55,1.62-0.68
				c1.23-0.3,2.43-0.11,3.39,0.52c1.01,0.66,1.59,1.76,1.65,3.1c0.02,0.8-0.09,1.46-0.32,2.02c-0.26,0.66-0.65,1.3-1.14,1.89
				c-0.25,0.3-0.51,0.57-0.79,0.82c-0.34,0.28-0.7,0.48-0.94,0.61c-0.63,0.34-1.28,0.56-1.91,0.64
				C334.45,93.82,334.26,93.83,334.06,93.83z M335.84,84.77c-0.32,0-0.64,0.04-0.97,0.12c-0.5,0.11-0.95,0.35-1.43,0.61
				c-0.47,0.27-0.88,0.61-1.22,1.03l0,0c-0.17,0.21-0.33,0.44-0.46,0.68c-0.17,0.27-0.29,0.49-0.39,0.71
				c-0.2,0.47-0.32,0.97-0.35,1.49c-0.05,1.14,0.24,2.06,0.85,2.74c0.66,0.73,1.66,1.08,2.68,0.92c0.55-0.07,1.13-0.27,1.67-0.56
				c0.21-0.12,0.53-0.3,0.81-0.53c0.24-0.21,0.48-0.46,0.7-0.73c0.44-0.53,0.78-1.11,1.02-1.71c0.2-0.47,0.28-1.03,0.27-1.72
				c-0.05-1.09-0.52-1.99-1.33-2.52C337.16,84.95,336.52,84.77,335.84,84.77z"/>
		</g>
		<g>
			<path class="st0" d="M336.3,79.92c0.33-0.52,0.65-1.01,1.07-1.4c0.41-0.4,0.89-0.71,1.4-0.94c1.03-0.44,2.14-0.56,3.15-0.13
				c1.02,0.43,1.75,1.34,1.99,2.47c0.13,0.57,0.15,1.2,0.06,1.86c-0.09,0.65-0.27,1.34-0.66,1.97c-0.37,0.64-0.81,1.19-1.3,1.63
				c-0.49,0.44-1.02,0.78-1.6,0.96c-1.14,0.38-2.28,0.27-3.18-0.37c-0.9-0.64-1.41-1.65-1.55-2.72c-0.06-0.53-0.06-1.1,0.03-1.67
				C335.8,81.01,335.99,80.45,336.3,79.92z"/>
			<path class="st1" d="M339.12,86.91c-0.76,0-1.48-0.22-2.09-0.66c-0.94-0.66-1.54-1.71-1.7-2.96c-0.07-0.64-0.06-1.23,0.03-1.77
				c0.1-0.63,0.32-1.23,0.64-1.78l0.01-0.01c0.32-0.51,0.67-1.04,1.13-1.47c0.44-0.42,0.94-0.76,1.5-1
				c1.22-0.52,2.41-0.56,3.44-0.13c1.13,0.48,1.93,1.47,2.2,2.73c0.14,0.61,0.16,1.28,0.06,1.98c-0.12,0.86-0.35,1.52-0.71,2.11
				c-0.37,0.65-0.83,1.22-1.37,1.7c-0.55,0.5-1.13,0.85-1.73,1.04C340.04,86.83,339.57,86.91,339.12,86.91z M336.61,80.11
				c-0.27,0.47-0.46,0.99-0.55,1.53c-0.08,0.48-0.08,1.01-0.02,1.58c0.14,1.04,0.63,1.92,1.4,2.46c0.79,0.56,1.81,0.67,2.85,0.32
				c0.51-0.16,1-0.46,1.47-0.88c0.48-0.43,0.89-0.95,1.23-1.54c0.31-0.51,0.5-1.09,0.61-1.84c0.08-0.61,0.06-1.19-0.05-1.72
				c-0.22-1.03-0.86-1.84-1.77-2.22c-1.07-0.45-2.15-0.18-2.87,0.13c-0.47,0.21-0.91,0.5-1.29,0.86
				C337.23,79.15,336.91,79.64,336.61,80.11z"/>
		</g>
		<g>
			<path class="st0" d="M339.48,72.69c0.38-1.2,1.15-2.14,2.1-2.75c0.93-0.61,2-0.89,3.07-0.61c1.06,0.28,1.91,1.07,2.36,2.15
				c0.42,1.08,0.45,2.45,0.02,3.82c-0.48,1.36-1.41,2.41-2.4,2.99c-0.99,0.59-2.17,0.67-3.17,0.22c-1.01-0.46-1.66-1.33-2.04-2.4
				C339.04,75.06,339.06,73.87,339.48,72.69z"/>
			<path class="st1" d="M342.81,79.17c-0.52,0-1.03-0.11-1.51-0.32c-1.03-0.47-1.78-1.34-2.23-2.6c-0.4-1.14-0.38-2.41,0.06-3.67
				c0.38-1.22,1.18-2.26,2.24-2.94c1.08-0.71,2.25-0.94,3.36-0.65c1.16,0.3,2.11,1.17,2.6,2.37c0.46,1.19,0.47,2.67,0.03,4.06
				c-0.48,1.36-1.41,2.52-2.56,3.2C344.18,78.98,343.49,79.17,342.81,79.17z M343.79,69.58c-0.82,0-1.52,0.33-2.01,0.66
				c-0.93,0.59-1.62,1.5-1.95,2.56l0,0.01c-0.39,1.1-0.41,2.21-0.07,3.19c0.38,1.07,1.01,1.81,1.85,2.19
				c0.89,0.4,1.95,0.33,2.84-0.2c1.01-0.59,1.83-1.62,2.25-2.8c0.39-1.23,0.39-2.53-0.02-3.57c-0.4-0.98-1.17-1.69-2.11-1.94
				C344.29,69.61,344.03,69.58,343.79,69.58z"/>
		</g>
		<g>
			<path class="st0" d="M341.59,64.92c0.23-1.25,0.88-2.31,1.75-3.03c0.86-0.71,1.88-1.09,2.99-0.96c1.09,0.13,2.04,0.84,2.59,1.87
				c0.55,1.01,0.75,2.35,0.49,3.74c-0.26,1.39-1.06,2.54-1.97,3.24c-0.92,0.71-2.02,0.98-3.08,0.68c-1.06-0.3-1.89-1.09-2.39-2.09
				C341.46,67.37,341.35,66.17,341.59,64.92z"/>
			<path class="st1" d="M345.24,70.95c-0.33,0-0.65-0.04-0.97-0.14c-1.11-0.31-2.04-1.12-2.62-2.28c-0.53-1.04-0.67-2.32-0.42-3.68
				l0,0c0.24-1.28,0.9-2.43,1.88-3.24c0.99-0.81,2.12-1.17,3.26-1.04c1.18,0.14,2.25,0.91,2.86,2.05c0.6,1.11,0.79,2.56,0.53,3.98
				c-0.26,1.36-1.02,2.62-2.1,3.46C346.92,70.65,346.08,70.95,345.24,70.95z M345.91,61.27c-0.81,0-1.61,0.31-2.34,0.9
				c-0.84,0.7-1.42,1.7-1.63,2.81v0c-0.23,1.21-0.11,2.32,0.35,3.22c0.48,0.97,1.25,1.65,2.17,1.91c0.93,0.26,1.91,0.04,2.76-0.61
				c0.94-0.74,1.61-1.84,1.83-3.03c0.24-1.26,0.07-2.53-0.45-3.51c-0.51-0.94-1.37-1.57-2.31-1.68
				C346.16,61.28,346.04,61.27,345.91,61.27z"/>
		</g>
		<g>
			<g>
				<path class="st0" d="M342.61,57.2c-0.01-0.58,0.11-1.14,0.29-1.66c0.16-0.52,0.41-1,0.74-1.43c0.65-0.86,1.52-1.53,2.62-1.71
					c1.08-0.17,2.19,0.23,3,1.12c0.4,0.44,0.74,1.01,0.99,1.65c0.23,0.64,0.34,1.37,0.35,2.13c-0.04,1.52-0.57,2.86-1.43,3.71
					c-0.84,0.86-1.89,1.26-2.99,1.08c-1.08-0.18-2-0.87-2.62-1.75C342.97,59.45,342.57,58.36,342.61,57.2z"/>
				<path class="st1" d="M346.7,62.5c-0.19,0-0.38-0.02-0.58-0.05c-1.1-0.18-2.14-0.87-2.86-1.9c-0.7-1.06-1.05-2.22-1.01-3.36
					c-0.01-0.58,0.09-1.16,0.31-1.78c0.16-0.53,0.43-1.05,0.79-1.53c0.79-1.05,1.75-1.67,2.85-1.84c1.21-0.2,2.45,0.27,3.32,1.23
					c0.44,0.48,0.79,1.08,1.06,1.76c0.24,0.67,0.36,1.43,0.37,2.26c-0.05,1.61-0.61,3.05-1.54,3.98
					C348.64,62.07,347.69,62.5,346.7,62.5z M346.75,52.72c-0.14,0-0.29,0.01-0.43,0.03c-0.91,0.15-1.71,0.67-2.39,1.57
					c-0.31,0.41-0.54,0.85-0.68,1.32c-0.2,0.55-0.28,1.05-0.27,1.54v0.02c-0.04,1.26,0.46,2.29,0.89,2.94
					c0.6,0.86,1.47,1.44,2.38,1.59c0.98,0.16,1.9-0.18,2.67-0.97c0.81-0.8,1.29-2.06,1.33-3.47c-0.01-0.74-0.12-1.41-0.33-2
					c-0.23-0.58-0.55-1.12-0.92-1.53C348.39,53.09,347.58,52.72,346.75,52.72z"/>
			</g>
			<g>
				<path class="st0" d="M341.78,50.45c-0.17-0.55-0.22-1.1-0.18-1.65c0-0.53,0.11-1.07,0.3-1.58c0.37-1.01,1.01-1.9,2.02-2.39
					c0.98-0.48,2.16-0.42,3.19,0.21c0.51,0.31,1,0.76,1.43,1.31c0.4,0.56,0.72,1.24,0.94,1.97c0.19,0.75,0.24,1.49,0.19,2.18
					c-0.07,0.69-0.28,1.32-0.56,1.85c-0.55,1.06-1.55,1.72-2.63,1.82c-1.11,0.1-2.1-0.34-2.96-1.02c-0.43-0.34-0.76-0.75-1.06-1.2
					C342.14,51.51,341.92,51,341.78,50.45z"/>
				<path class="st1" d="M346.17,54.55c-0.97,0-1.93-0.37-2.87-1.11c-0.42-0.33-0.78-0.74-1.14-1.29c-0.32-0.46-0.57-1-0.72-1.61
					c-0.17-0.55-0.24-1.15-0.2-1.77c0-0.55,0.11-1.12,0.32-1.68c0.45-1.21,1.21-2.11,2.2-2.59c1.1-0.53,2.42-0.45,3.54,0.22
					c0.56,0.34,1.07,0.81,1.53,1.39c0.43,0.61,0.76,1.31,1,2.09c0.19,0.75,0.26,1.52,0.21,2.31c-0.06,0.68-0.27,1.36-0.6,1.99
					c-0.59,1.15-1.68,1.9-2.92,2.01C346.4,54.54,346.29,54.55,346.17,54.55z M345.29,44.88c-0.42,0-0.83,0.09-1.22,0.28
					c-0.83,0.4-1.45,1.14-1.83,2.19c-0.18,0.48-0.27,0.97-0.28,1.45c-0.04,0.56,0.02,1.06,0.17,1.53l0.01,0.02
					c0.13,0.53,0.34,0.99,0.62,1.39c0.32,0.49,0.64,0.84,0.99,1.13c0.91,0.71,1.8,1.02,2.7,0.94c0.99-0.09,1.87-0.69,2.34-1.62
					c0.29-0.55,0.47-1.14,0.52-1.72c0.05-0.7-0.01-1.4-0.18-2.05c-0.21-0.68-0.52-1.33-0.89-1.86c-0.39-0.49-0.85-0.92-1.32-1.21
					C346.4,45.04,345.84,44.88,345.29,44.88z"/>
			</g>
			<g>
				<path class="st0" d="M339.04,44.24c-0.33-0.49-0.52-1.02-0.65-1.56c-0.15-0.53-0.19-1.08-0.15-1.63
					c0.07-1.08,0.47-2.12,1.32-2.84c0.83-0.71,1.97-0.95,3.13-0.64c0.57,0.16,1.15,0.45,1.71,0.85c0.54,0.41,1.02,0.97,1.44,1.6
					c0.79,1.31,1.06,2.76,0.79,3.95c-0.22,1.18-0.98,2.09-2,2.5c-1.04,0.41-2.11,0.28-3.13-0.12
					C340.53,45.93,339.64,45.23,339.04,44.24z"/>
				<path class="st1" d="M343.3,47.09c-0.61,0-1.26-0.13-1.93-0.4c-1.13-0.49-2.03-1.27-2.63-2.26c-0.31-0.46-0.54-1.01-0.7-1.66
					c-0.15-0.55-0.21-1.14-0.16-1.74c0.09-1.29,0.59-2.35,1.44-3.08c0.93-0.79,2.19-1.05,3.46-0.72c0.63,0.18,1.24,0.48,1.83,0.91
					c0.55,0.42,1.06,0.99,1.53,1.7c0.83,1.37,1.14,2.9,0.84,4.22c-0.24,1.26-1.06,2.3-2.21,2.75
					C344.3,46.99,343.81,47.09,343.3,47.09z M341.7,37.8c-0.71,0-1.38,0.24-1.91,0.69c-0.89,0.76-1.14,1.83-1.19,2.59
					c-0.04,0.52,0,1.03,0.14,1.51c0.14,0.59,0.34,1.06,0.61,1.45l0.01,0.02c0.52,0.87,1.31,1.55,2.3,1.97
					c1.04,0.41,2.01,0.45,2.85,0.12c0.92-0.36,1.58-1.2,1.77-2.23c0.25-1.15-0.02-2.49-0.75-3.69c-0.41-0.63-0.87-1.14-1.35-1.51
					c-0.5-0.37-1.05-0.64-1.58-0.79C342.29,37.84,341.99,37.8,341.7,37.8z"/>
			</g>
			<g>
				<path class="st0" d="M334.66,38.79c-0.44-0.42-0.78-0.89-1.03-1.41c-0.27-0.5-0.45-1.03-0.53-1.58
					c-0.15-1.1,0.02-2.19,0.71-3.06c0.68-0.86,1.75-1.33,2.92-1.26c0.59,0.03,1.21,0.18,1.82,0.44c0.6,0.29,1.19,0.69,1.72,1.2
					c1.04,1.06,1.64,2.36,1.68,3.57c0.07,1.18-0.4,2.26-1.28,2.92c-0.88,0.67-1.97,0.84-3.06,0.7
					C336.56,40.13,335.5,39.65,334.66,38.79z"/>
				<path class="st1" d="M338.32,40.71c-0.24,0-0.49-0.02-0.74-0.05c-1.23-0.2-2.33-0.75-3.17-1.61c-0.46-0.43-0.83-0.94-1.1-1.51
					c-0.28-0.51-0.47-1.08-0.56-1.68c-0.18-1.31,0.1-2.46,0.79-3.34c0.75-0.95,1.96-1.48,3.23-1.4c0.64,0.03,1.29,0.19,1.94,0.47
					c0.66,0.32,1.27,0.74,1.83,1.27c1.09,1.11,1.74,2.49,1.79,3.81c0.08,1.28-0.45,2.49-1.42,3.22
					C340.19,40.43,339.31,40.71,338.32,40.71z M336.52,31.83c-0.96,0-1.86,0.41-2.42,1.13c-0.58,0.73-0.79,1.67-0.64,2.79
					c0.08,0.51,0.24,1,0.49,1.46c0.24,0.51,0.56,0.95,0.96,1.32l0.01,0.01c0.74,0.75,1.69,1.24,2.77,1.41
					c0.76,0.1,1.86,0.07,2.79-0.63c0.79-0.6,1.2-1.55,1.13-2.61c-0.04-1.15-0.62-2.36-1.58-3.33c-0.49-0.47-1.04-0.85-1.62-1.13
					c-0.55-0.24-1.14-0.38-1.68-0.41C336.65,31.84,336.59,31.83,336.52,31.83z"/>
			</g>
			<g>
				<path class="st0" d="M329.06,34.18c-2.02-1.4-2.91-3.96-1.82-5.89c1.08-1.91,3.99-2.32,6.39-0.66c0.59,0.42,1.09,0.91,1.47,1.44
					c0.37,0.55,0.64,1.12,0.78,1.69c0.29,1.14,0.04,2.29-0.67,3.11c-0.73,0.84-1.76,1.23-2.86,1.29c-0.55,0.03-1.12-0.04-1.66-0.21
					C330.12,34.79,329.56,34.54,329.06,34.18z"/>
				<path class="st1" d="M332.1,35.53c-0.52,0-1.04-0.08-1.54-0.24c-0.63-0.18-1.21-0.46-1.71-0.82c-2.22-1.55-3.07-4.34-1.93-6.36
					c0.5-0.89,1.37-1.51,2.46-1.76c1.44-0.33,3.06,0.03,4.44,0.98c0.64,0.46,1.16,0.97,1.56,1.53c0.4,0.59,0.68,1.2,0.83,1.82
					c0.32,1.26,0.05,2.52-0.75,3.44c-0.74,0.86-1.82,1.35-3.12,1.41C332.27,35.53,332.18,35.53,332.1,35.53z M330.47,26.95
					c-0.31,0-0.62,0.03-0.92,0.1c-0.89,0.2-1.6,0.71-2,1.41c-0.96,1.7-0.21,4.08,1.72,5.42l0.01,0c0.43,0.31,0.94,0.56,1.5,0.72
					c0.51,0.16,1.03,0.23,1.54,0.2c0.77-0.04,1.84-0.27,2.61-1.16c0.64-0.74,0.86-1.76,0.6-2.79c-0.13-0.54-0.38-1.07-0.73-1.58
					c-0.35-0.49-0.81-0.94-1.38-1.35C332.5,27.28,331.46,26.95,330.47,26.95z"/>
			</g>
			<g>
				<path class="st0" d="M322.68,30.34c-2.23-1.18-3.41-3.64-2.53-5.66c0.88-2.02,3.7-2.75,6.23-1.41c1.26,0.66,2.17,1.68,2.59,2.77
					c0.42,1.1,0.37,2.23-0.21,3.17c-0.58,0.94-1.57,1.51-2.65,1.7C325.02,31.1,323.81,30.93,322.68,30.34z"/>
				<path class="st1" d="M325.25,31.35c-0.93,0-1.87-0.23-2.73-0.68l0,0c-2.45-1.29-3.63-3.98-2.69-6.12
					c0.41-0.94,1.22-1.66,2.28-2.03c1.38-0.48,3-0.32,4.46,0.44c1.28,0.67,2.29,1.75,2.76,2.96c0.48,1.24,0.39,2.48-0.24,3.49
					c-0.61,0.98-1.64,1.64-2.9,1.86C325.87,31.32,325.56,31.35,325.25,31.35z M322.85,30.02c1.01,0.53,2.15,0.71,3.2,0.53
					c1.05-0.18,1.91-0.73,2.41-1.53c0.51-0.82,0.57-1.83,0.18-2.85c-0.41-1.05-1.29-1.99-2.42-2.58c-1.28-0.67-2.69-0.82-3.88-0.4
					c-0.87,0.3-1.52,0.89-1.85,1.64C319.7,26.63,320.74,28.91,322.85,30.02L322.85,30.02z"/>
			</g>
		</g>
		<g>
			<g>
				<path class="st0" d="M315.26,26.94c-2.38-0.96-3.78-3.33-3.07-5.41c0.71-2.09,3.44-3.04,6.05-2c1.3,0.52,2.3,1.43,2.83,2.47
					c0.54,1.02,0.62,2.17,0.15,3.17c-0.47,1-1.37,1.67-2.45,1.99C317.7,27.46,316.46,27.42,315.26,26.94z"/>
				<path class="st1" d="M317.36,27.71c-0.75,0-1.51-0.15-2.23-0.44l0,0c-2.6-1.05-4.04-3.62-3.28-5.87
					c0.33-0.97,1.07-1.75,2.08-2.22c1.32-0.61,2.94-0.6,4.45,0c1.33,0.53,2.43,1.5,3.02,2.64c0.6,1.14,0.66,2.41,0.16,3.48
					c-0.49,1.04-1.44,1.81-2.67,2.18C318.39,27.64,317.88,27.71,317.36,27.71z M316.08,19.46c-0.65,0-1.28,0.13-1.85,0.39
					c-0.83,0.38-1.43,1.02-1.69,1.79c-0.64,1.88,0.61,4.06,2.86,4.96l0,0c1.07,0.43,2.23,0.5,3.28,0.21
					c1.03-0.31,1.82-0.95,2.22-1.8c0.41-0.88,0.36-1.89-0.14-2.85c-0.51-0.99-1.47-1.83-2.64-2.3
					C317.44,19.6,316.74,19.46,316.08,19.46z"/>
			</g>
			<g>
				<path class="st0" d="M308.05,24.34c-2.47-0.79-4.03-3.08-3.44-5.2c0.58-2.12,3.23-3.25,5.89-2.4c2.66,0.86,4.16,3.33,3.38,5.38
					C313.1,24.2,310.51,25.14,308.05,24.34z"/>
				<path class="st1" d="M309.81,24.99c-0.61,0-1.24-0.1-1.87-0.3c-2.7-0.86-4.31-3.34-3.68-5.64c0.27-0.98,0.96-1.81,1.93-2.34
					c1.27-0.69,2.88-0.8,4.41-0.31c1.54,0.5,2.79,1.53,3.42,2.84c0.48,1,0.55,2.07,0.19,3.02C313.57,23.96,311.8,24.99,309.81,24.99
					z M308.7,16.82c-0.78,0-1.52,0.18-2.17,0.52c-0.8,0.43-1.36,1.11-1.58,1.9c-0.53,1.93,0.88,4.02,3.2,4.76l0,0
					c2.31,0.74,4.68-0.14,5.38-2c0.29-0.76,0.23-1.63-0.17-2.45c-0.55-1.13-1.63-2.03-2.99-2.47
					C309.82,16.91,309.25,16.82,308.7,16.82z"/>
			</g>
			<g>
				<path class="st0" d="M300.63,22.2c-2.53-0.65-4.21-2.86-3.73-5.01c0.48-2.15,3.05-3.41,5.73-2.72c2.68,0.7,4.33,3.06,3.69,5.16
					C305.69,21.75,303.16,22.85,300.63,22.2z"/>
				<path class="st1" d="M302.1,22.75c-0.51,0-1.03-0.06-1.55-0.2c-2.76-0.71-4.51-3.1-3.99-5.44c0.22-0.99,0.86-1.86,1.81-2.44
					c1.22-0.75,2.82-0.95,4.37-0.55c1.56,0.4,2.86,1.36,3.56,2.62c0.54,0.97,0.68,2.03,0.38,3
					C306.11,21.59,304.25,22.75,302.1,22.75z M301.15,14.64c-0.88,0-1.72,0.22-2.42,0.65c-0.77,0.47-1.3,1.18-1.48,1.98
					c-0.43,1.92,1.13,3.98,3.47,4.58l0,0c2.37,0.62,4.68-0.41,5.26-2.32c0.24-0.78,0.12-1.65-0.32-2.44
					c-0.61-1.09-1.75-1.92-3.11-2.27C302.08,14.7,301.61,14.64,301.15,14.64z"/>
			</g>
			<g>
				<path class="st0" d="M293.08,20.44c-2.56-0.54-4.35-2.67-3.96-4.84c0.39-2.17,2.9-3.54,5.6-2.98c2.7,0.56,4.46,2.83,3.94,4.97
					C298.12,19.74,295.64,20.97,293.08,20.44z"/>
				<path class="st1" d="M294.28,20.92c-0.42,0-0.85-0.04-1.28-0.13h0c-2.8-0.58-4.66-2.89-4.24-5.26c0.18-1,0.78-1.9,1.7-2.52
					c1.19-0.8,2.76-1.07,4.33-0.75c1.56,0.32,2.9,1.21,3.67,2.42c0.59,0.94,0.78,2,0.54,2.98
					C298.52,19.64,296.56,20.92,294.28,20.92z M293.15,20.09c2.41,0.5,4.67-0.63,5.15-2.58c0.19-0.79,0.03-1.66-0.45-2.43
					c-0.66-1.05-1.83-1.82-3.21-2.1c-1.38-0.29-2.75-0.05-3.78,0.64c-0.75,0.51-1.25,1.24-1.39,2.05
					C289.13,17.6,290.78,19.59,293.15,20.09L293.15,20.09z"/>
			</g>
			<g>
				<path class="st0" d="M285.43,19.01c-2.59-0.43-4.46-2.5-4.15-4.68c0.3-2.19,2.76-3.65,5.47-3.19c2.71,0.45,4.56,2.63,4.14,4.79
					C290.45,18.09,288.02,19.43,285.43,19.01z"/>
				<path class="st1" d="M286.4,19.45c-0.34,0-0.68-0.03-1.03-0.09h0c-2.83-0.47-4.78-2.71-4.45-5.09c0.14-1.01,0.71-1.93,1.6-2.58
					c1.15-0.85,2.71-1.18,4.28-0.92c1.57,0.26,2.94,1.08,3.76,2.26c0.63,0.91,0.87,1.96,0.67,2.96
					C290.82,18.06,288.8,19.45,286.4,19.45z M285.49,18.65c2.43,0.4,4.65-0.83,5.04-2.8c0.16-0.81-0.04-1.66-0.56-2.41
					c-0.71-1.02-1.9-1.73-3.28-1.96c-1.38-0.23-2.74,0.06-3.74,0.79c-0.73,0.54-1.2,1.28-1.31,2.1
					C281.36,16.33,283.09,18.25,285.49,18.65L285.49,18.65z"/>
			</g>
			<g>
				<path class="st0" d="M277.71,17.86c-2.61-0.34-4.55-2.35-4.32-4.54c0.23-2.19,2.63-3.74,5.35-3.38
					c2.72,0.35,4.65,2.46,4.31,4.64C282.7,16.76,280.32,18.2,277.71,17.86z"/>
				<path class="st1" d="M278.48,18.28c-0.27,0-0.54-0.02-0.82-0.05h0c-2.85-0.37-4.89-2.54-4.63-4.93
					c0.11-1.01,0.64-1.95,1.51-2.63c1.12-0.88,2.67-1.27,4.24-1.07c1.58,0.2,2.97,0.98,3.83,2.12c0.66,0.88,0.94,1.93,0.79,2.93
					C283.06,16.78,280.97,18.28,278.48,18.28z M277.75,17.51c2.41,0.31,4.63-1.03,4.93-2.98c0.13-0.81-0.1-1.66-0.65-2.39
					c-0.74-0.99-1.96-1.66-3.35-1.84c-1.39-0.18-2.74,0.15-3.7,0.92c-0.71,0.56-1.15,1.32-1.24,2.14
					C273.54,15.33,275.33,17.19,277.75,17.51L277.75,17.51z"/>
			</g>
		</g>
		<g>
			<g>
				<path class="st0" d="M269.33,16.93c-2.63-0.25-4.64-2.19-4.48-4.38c0.16-2.2,2.5-3.82,5.23-3.57c2.73,0.25,4.73,2.29,4.47,4.48
					C274.29,15.65,271.96,17.17,269.33,16.93z"/>
				<path class="st1" d="M269.89,17.32c-0.2,0-0.4-0.01-0.6-0.03h0c-2.82-0.27-4.97-2.41-4.8-4.77c0.07-1.02,0.58-1.97,1.42-2.68
					c1.09-0.92,2.62-1.36,4.2-1.22c1.58,0.15,3,0.87,3.9,1.98c0.7,0.86,1.01,1.89,0.89,2.9C274.64,15.72,272.5,17.32,269.89,17.32z
					 M269.36,16.57c2.44,0.23,4.59-1.19,4.83-3.16c0.1-0.82-0.17-1.66-0.74-2.36c-0.78-0.96-2.02-1.58-3.41-1.71
					c-1.38-0.13-2.72,0.25-3.67,1.05c-0.69,0.59-1.11,1.36-1.17,2.19C265.07,14.55,266.93,16.34,269.36,16.57L269.36,16.57z"/>
			</g>
			<g>
				<path class="st0" d="M261.53,16.32c-2.64-0.17-4.7-2.04-4.61-4.25c0.09-2.2,2.38-3.9,5.11-3.72c2.73,0.17,4.79,2.14,4.61,4.34
					C266.45,14.88,264.16,16.48,261.53,16.32z"/>
				<path class="st1" d="M261.91,16.69c-0.13,0-0.27,0-0.4-0.01h0c-2.87-0.18-5.05-2.21-4.95-4.62c0.04-1.02,0.52-1.99,1.34-2.73
					c1.06-0.95,2.56-1.44,4.16-1.34c1.58,0.1,3.02,0.77,3.96,1.85c0.72,0.84,1.07,1.86,0.99,2.87C266.8,15,264.6,16.69,261.91,16.69
					z M261.55,15.96c2.42,0.14,4.56-1.33,4.72-3.31c0.07-0.82-0.22-1.65-0.81-2.34c-0.81-0.93-2.07-1.52-3.46-1.6
					c-1.38-0.09-2.71,0.33-3.63,1.16c-0.68,0.61-1.07,1.4-1.1,2.22C257.19,14.07,259.11,15.81,261.55,15.96L261.55,15.96z"/>
			</g>
			<g>
				<path class="st0" d="M253.71,15.95c-2.64-0.09-4.76-1.9-4.74-4.1c0.02-2.21,2.26-3.97,5-3.88c2.74,0.09,4.86,1.99,4.74,4.19
					C258.58,14.36,256.35,16.03,253.71,15.95z"/>
				<path class="st1" d="M253.9,16.31c-0.07,0-0.14,0-0.21,0h0c-2.88-0.1-5.11-2.06-5.09-4.47c0.01-1.02,0.46-2,1.25-2.77
					c1.03-0.99,2.53-1.52,4.12-1.47c1.58,0.05,3.05,0.68,4.01,1.73c0.75,0.81,1.13,1.82,1.07,2.84
					C258.94,14.53,256.69,16.31,253.9,16.31z M253.72,15.59c2.41,0.08,4.51-1.47,4.62-3.45c0.04-0.82-0.27-1.64-0.88-2.31
					c-0.83-0.91-2.11-1.45-3.5-1.5c-1.41-0.05-2.7,0.42-3.59,1.27c-0.66,0.63-1.02,1.43-1.03,2.25
					C249.31,13.83,251.28,15.51,253.72,15.59L253.72,15.59z"/>
			</g>
			<g>
				<path class="st0" d="M245.88,15.81c-2.64-0.01-4.81-1.75-4.86-3.95c-0.05-2.21,2.13-4.04,4.87-4.04c2.74,0,4.92,1.84,4.86,4.05
					C250.71,14.08,248.52,15.81,245.88,15.81z"/>
				<path class="st1" d="M245.89,16.17C245.88,16.17,245.88,16.17,245.89,16.17L245.89,16.17c-2.88-0.01-5.17-1.9-5.23-4.3
					c-0.02-1.02,0.39-2.02,1.17-2.81c1-1.02,2.47-1.6,4.05-1.6c0.01,0,0.01,0,0.02,0c1.59,0,3.07,0.59,4.06,1.61
					c0.77,0.79,1.19,1.79,1.16,2.81C251.06,14.29,248.76,16.17,245.89,16.17z M245.88,15.45C245.89,15.45,245.89,15.45,245.88,15.45
					c2.44,0,4.47-1.61,4.51-3.59c0.02-0.82-0.32-1.64-0.96-2.29c-0.86-0.88-2.15-1.39-3.55-1.39c-0.01,0-0.01,0-0.01,0
					c-1.39,0-2.68,0.5-3.54,1.38c-0.64,0.65-0.98,1.46-0.96,2.28C241.43,13.83,243.45,15.45,245.88,15.45L245.88,15.45z"/>
			</g>
		</g>
		<g>
			<g>
				<path class="st0" d="M237.46,15.95c-2.63,0.09-4.86-1.56-5.01-3.76c-0.14-2.2,1.97-4.13,4.72-4.22c2.75-0.1,4.99,1.67,5.01,3.87
					C242.21,14.05,240.09,15.86,237.46,15.95z"/>
				<path class="st1" d="M237.25,16.32c-2.76,0-5-1.77-5.16-4.1c-0.07-1.02,0.31-2.03,1.05-2.85c0.96-1.06,2.43-1.7,4.02-1.76
					c1.59-0.04,3.09,0.48,4.13,1.47c0.8,0.76,1.24,1.74,1.25,2.76c0.02,2.41-2.2,4.37-5.07,4.47h0
					C237.4,16.32,237.33,16.32,237.25,16.32z M237.39,8.33c-0.07,0-0.13,0-0.2,0c-1.4,0.05-2.68,0.6-3.51,1.52
					c-0.61,0.68-0.92,1.5-0.87,2.32c0.13,2,2.2,3.49,4.63,3.42l0,0c2.43-0.09,4.4-1.77,4.38-3.75c-0.01-0.82-0.38-1.62-1.03-2.25
					C239.95,8.79,238.71,8.33,237.39,8.33z"/>
			</g>
			<g>
				<path class="st0" d="M229.69,16.39c-2.6,0.2-4.9-1.33-5.16-3.52c-0.26-2.19,1.78-4.22,4.54-4.44c2.76-0.22,5.07,1.47,5.17,3.67
					C234.35,14.3,232.3,16.18,229.69,16.39z"/>
				<path class="st1" d="M229.23,16.76c-2.61,0-4.78-1.62-5.05-3.86c-0.12-1.01,0.2-2.03,0.9-2.89c0.92-1.12,2.36-1.83,3.97-1.95
					c1.6-0.13,3.12,0.35,4.19,1.29c0.83,0.73,1.32,1.7,1.36,2.72c0.11,2.39-2.03,4.44-4.88,4.67l0,0
					C229.56,16.76,229.39,16.76,229.23,16.76z M229.55,8.77c-0.15,0-0.3,0.01-0.45,0.02c-1.41,0.11-2.67,0.73-3.47,1.69
					c-0.57,0.7-0.84,1.53-0.74,2.35c0.24,1.99,2.32,3.39,4.77,3.21c2.42-0.19,4.31-1.95,4.22-3.91c-0.04-0.82-0.44-1.61-1.12-2.21
					C231.93,9.17,230.78,8.77,229.55,8.77z"/>
			</g>
			<g>
				<path class="st0" d="M222.04,17.2c-2.53,0.36-4.94-0.99-5.36-3.16c-0.42-2.17,1.45-4.35,4.25-4.75
					c2.79-0.39,5.19,1.19,5.39,3.38C226.52,14.88,224.58,16.84,222.04,17.2z"/>
				<path class="st1" d="M221.2,17.62c-2.42,0-4.48-1.43-4.88-3.51c-0.19-1.01,0.06-2.06,0.7-2.96c0.84-1.18,2.24-1.98,3.85-2.22
					c1.59-0.22,3.16,0.16,4.3,1.05c0.88,0.69,1.41,1.64,1.51,2.66c0.22,2.36-1.79,4.52-4.59,4.91l0,0
					C221.79,17.6,221.49,17.62,221.2,17.62z M221.77,9.59c-0.26,0-0.53,0.02-0.8,0.06c-1.42,0.2-2.64,0.9-3.37,1.92
					c-0.53,0.74-0.73,1.6-0.58,2.41c0.37,1.92,2.59,3.21,4.95,2.87h0c2.41-0.34,4.15-2.16,3.97-4.13c-0.08-0.82-0.52-1.59-1.23-2.16
					C223.93,9.93,222.89,9.59,221.77,9.59z"/>
			</g>
			<g>
				<path class="st0" d="M214.5,18.56c-2.52,0.54-5.01-0.65-5.58-2.78c-0.57-2.13,1.16-4.45,3.9-5.03c2.74-0.6,5.26,0.8,5.62,2.98
					C218.79,15.9,217.02,18.01,214.5,18.56z"/>
				<path class="st1" d="M213.28,19.05c-2.24,0-4.19-1.25-4.71-3.17c-0.27-0.99-0.09-2.05,0.49-3c0.76-1.24,2.1-2.14,3.68-2.47
					c1.58-0.34,3.17-0.07,4.37,0.74c0.92,0.63,1.52,1.53,1.68,2.53c0.38,2.34-1.47,4.64-4.22,5.24l0,0
					C214.14,19,213.7,19.05,213.28,19.05z M214.09,10.97c-0.39,0-0.79,0.04-1.19,0.13c-1.39,0.3-2.56,1.08-3.22,2.14
					c-0.48,0.78-0.62,1.65-0.41,2.44c0.52,1.92,2.78,3.02,5.15,2.52c2.37-0.52,3.98-2.46,3.66-4.42c-0.13-0.81-0.62-1.54-1.38-2.05
					C215.97,11.23,215.06,10.97,214.09,10.97z"/>
			</g>
			<g>
				<path class="st0" d="M207.06,20.43c-2.47,0.72-5.03-0.29-5.76-2.38c-0.72-2.08,0.84-4.51,3.53-5.29
					c1.34-0.39,2.68-0.29,3.73,0.19c1.05,0.47,1.83,1.31,2.09,2.39c0.26,1.07-0.03,2.16-0.68,3.08
					C209.32,19.33,208.31,20.07,207.06,20.43z"/>
				<path class="st1" d="M205.46,21.02c-2.06,0-3.88-1.09-4.5-2.85c-0.33-0.96-0.24-2.03,0.27-3.02c0.67-1.29,1.94-2.29,3.5-2.74
					c1.39-0.4,2.8-0.33,3.98,0.21c1.17,0.52,2.01,1.48,2.29,2.63c0.27,1.12,0.01,2.32-0.74,3.38c-0.73,1.01-1.83,1.78-3.11,2.15h0
					C206.59,20.94,206.02,21.02,205.46,21.02z M206.49,12.88c-0.51,0-1.03,0.07-1.55,0.22c-1.37,0.4-2.49,1.26-3.06,2.38
					c-0.42,0.81-0.5,1.68-0.23,2.45c0.65,1.88,2.99,2.82,5.32,2.15c1.12-0.33,2.08-0.99,2.72-1.87c0.62-0.88,0.84-1.87,0.62-2.79
					c-0.23-0.94-0.9-1.71-1.88-2.14C207.84,13.02,207.17,12.88,206.49,12.88z"/>
			</g>
			<g>
				<path class="st0" d="M199.79,22.82c-2.41,0.89-5.03,0.08-5.91-1.95c-0.88-2.02,0.5-4.57,3.14-5.54
					c2.63-0.97,5.34,0.06,5.99,2.15C203.66,19.6,202.2,21.93,199.79,22.82z"/>
				<path class="st1" d="M197.81,23.54c-1.89,0-3.58-0.93-4.27-2.52c-0.41-0.93-0.39-2.01,0.05-3.03c0.57-1.34,1.77-2.43,3.3-2.99
					c1.53-0.56,3.15-0.52,4.45,0.12c0.99,0.49,1.71,1.29,2.01,2.26c0.71,2.27-0.8,4.81-3.43,5.78l0,0
					C199.21,23.42,198.5,23.54,197.81,23.54z M199.04,15.33c-0.62,0-1.27,0.12-1.9,0.35c-1.34,0.5-2.39,1.44-2.88,2.6
					c-0.36,0.84-0.37,1.71-0.05,2.46c0.79,1.82,3.18,2.59,5.46,1.75l0,0c2.27-0.84,3.59-2.99,3-4.89c-0.24-0.78-0.83-1.43-1.64-1.83
					C200.42,15.47,199.75,15.33,199.04,15.33z"/>
			</g>
		</g>
		<g>
			<g>
				<path class="st0" d="M192.19,26c-2.32,1.09-5,0.49-6.05-1.45c-1.05-1.94,0.12-4.59,2.67-5.79c2.55-1.19,5.33-0.38,6.15,1.67
					C195.78,22.47,194.51,24.91,192.19,26z"/>
				<path class="st1" d="M189.81,26.9c-1.7,0-3.24-0.78-3.99-2.18c-0.48-0.89-0.56-1.96-0.21-3.01c0.45-1.38,1.56-2.57,3.05-3.27
					c1.48-0.69,3.1-0.78,4.45-0.25c1.03,0.41,1.81,1.16,2.19,2.1c0.88,2.2-0.42,4.84-2.95,6.03l0,0
					C191.51,26.71,190.64,26.9,189.81,26.9z M191.23,18.57c-0.75,0-1.53,0.18-2.27,0.52c-1.3,0.61-2.28,1.65-2.67,2.84
					c-0.28,0.86-0.22,1.73,0.16,2.44c0.95,1.75,3.4,2.32,5.58,1.29l0,0c2.19-1.02,3.33-3.27,2.59-5.11c-0.3-0.76-0.94-1.36-1.79-1.7
					C192.33,18.66,191.79,18.57,191.23,18.57z"/>
			</g>
			<g>
				<path class="st0" d="M185.42,29.5c-2.22,1.26-4.92,0.91-6.14-0.94c-1.21-1.83-0.28-4.59,2.18-5.99
					c2.45-1.41,5.29-0.82,6.27,1.16C188.71,25.71,187.63,28.23,185.42,29.5z"/>
				<path class="st1" d="M182.69,30.6c-1.52,0-2.92-0.64-3.72-1.84c-0.56-0.85-0.73-1.91-0.47-2.99c0.34-1.42,1.35-2.7,2.77-3.52
					c1.41-0.81,3.02-1.03,4.42-0.61c1.07,0.32,1.9,1.01,2.36,1.92c1.04,2.11-0.03,4.85-2.45,6.25l0,0
					C184.67,30.35,183.65,30.6,182.69,30.6z M184.25,22.15c-0.87,0-1.78,0.25-2.61,0.73c-1.25,0.71-2.14,1.83-2.43,3.06
					c-0.21,0.89-0.08,1.75,0.37,2.42c1.09,1.65,3.58,2.01,5.66,0.83c2.09-1.2,3.04-3.53,2.16-5.3c-0.36-0.74-1.05-1.29-1.92-1.55
					C185.09,22.21,184.67,22.15,184.25,22.15z"/>
			</g>
			<g>
				<path class="st0" d="M179.02,33.56c-2.07,1.45-4.79,1.36-6.19-0.35c-1.4-1.7-0.73-4.55,1.6-6.19c2.33-1.64,5.22-1.3,6.36,0.59
					C181.94,29.5,181.09,32.1,179.02,33.56z"/>
				<path class="st1" d="M175.92,34.92c-1.32,0-2.56-0.5-3.37-1.49c-0.65-0.78-0.92-1.82-0.77-2.92c0.2-1.46,1.09-2.84,2.44-3.79
					c1.34-0.94,2.93-1.31,4.37-1.01c1.09,0.23,1.98,0.84,2.51,1.71c1.22,2.01,0.4,4.84-1.87,6.43l0,0
					C178.2,34.57,177.03,34.92,175.92,34.92z M177.59,26.33c-1,0-2.03,0.34-2.95,0.99c-1.19,0.83-1.97,2.03-2.14,3.29
					c-0.12,0.9,0.09,1.74,0.61,2.37c1.25,1.52,3.76,1.65,5.71,0.28c1.96-1.38,2.69-3.78,1.67-5.47c-0.42-0.7-1.15-1.19-2.04-1.37
					C178.17,26.36,177.88,26.33,177.59,26.33z"/>
			</g>
			<g>
				<path class="st0" d="M173.11,38.19c-0.95,0.83-2.07,1.28-3.18,1.36c-1.11,0.06-2.18-0.23-2.98-1c-0.79-0.76-1.14-1.87-0.98-3.03
					c0.15-1.16,0.79-2.39,1.86-3.33c2.16-1.91,5.09-1.85,6.4-0.09C175.56,33.88,174.99,36.53,173.11,38.19z"/>
				<path class="st1" d="M169.64,39.92c-1.17,0-2.19-0.38-2.94-1.11c-0.87-0.84-1.26-2.05-1.08-3.33c0.16-1.29,0.89-2.59,1.98-3.55
					c1.24-1.1,2.8-1.64,4.26-1.48c1.11,0.12,2.06,0.63,2.67,1.45c1.39,1.87,0.88,4.76-1.18,6.57l0,0c-0.97,0.85-2.17,1.36-3.39,1.45
					C169.85,39.91,169.75,39.92,169.64,39.92z M171.37,31.13c-1.14,0-2.32,0.47-3.29,1.33c-0.96,0.85-1.6,1.98-1.74,3.11
					c-0.15,1.06,0.17,2.05,0.87,2.72c0.85,0.82,1.94,0.95,2.71,0.9c1.06-0.07,2.11-0.52,2.96-1.27c1.77-1.57,2.25-4.03,1.08-5.6
					c-0.49-0.66-1.26-1.07-2.17-1.16C171.64,31.14,171.5,31.13,171.37,31.13z"/>
			</g>
			<g>
				<path class="st0" d="M167.91,43.42c-0.4,0.47-0.86,0.85-1.35,1.14c-0.5,0.29-1.02,0.5-1.55,0.62c-1.08,0.23-2.18,0.11-3.1-0.5
					c-0.91-0.61-1.44-1.65-1.45-2.83c-0.03-1.19,0.44-2.52,1.39-3.62c0.95-1.11,2.18-1.76,3.34-1.91c1.16-0.16,2.27,0.18,3.03,0.97
					C169.73,38.89,169.49,41.57,167.91,43.42z"/>
				<path class="st1" d="M164,45.66c-0.85,0-1.63-0.23-2.29-0.67c-1.01-0.68-1.6-1.82-1.61-3.13c-0.04-1.32,0.5-2.73,1.48-3.86
					c0.95-1.12,2.26-1.86,3.57-2.03c1.28-0.18,2.5,0.21,3.33,1.08c1.61,1.7,1.48,4.55-0.29,6.63l0,0c-0.4,0.47-0.89,0.88-1.43,1.22
					c-0.54,0.32-1.1,0.54-1.66,0.67C164.72,45.62,164.35,45.66,164,45.66z M165.74,36.63c-0.17,0-0.33,0.01-0.5,0.04
					c-1.14,0.15-2.28,0.8-3.12,1.79c-0.86,1-1.33,2.23-1.3,3.38c0.02,1.07,0.49,2,1.3,2.54c0.98,0.66,2.07,0.61,2.82,0.45
					c0.49-0.11,0.97-0.3,1.44-0.58c0.47-0.29,0.9-0.65,1.26-1.07c1.51-1.77,1.65-4.25,0.32-5.66
					C167.39,36.95,166.6,36.63,165.74,36.63z"/>
			</g>
			<g>
				<path class="st0" d="M163.78,49.24c-0.58,1.02-1.41,1.77-2.38,2.22c-0.95,0.45-2.08,0.61-3.11,0.26
					c-1.05-0.36-1.8-1.22-2.11-2.41c-0.29-1.17-0.12-2.65,0.63-3.97c0.73-1.33,1.87-2.21,2.99-2.58c1.13-0.37,2.28-0.21,3.15,0.45
					c0.89,0.66,1.36,1.68,1.49,2.76C164.57,47.08,164.34,48.22,163.78,49.24z"/>
				<path class="st1" d="M159.46,52.28c-0.45,0-0.89-0.07-1.3-0.21c-1.17-0.4-2-1.34-2.34-2.66c-0.33-1.33-0.08-2.91,0.67-4.23
					c0.72-1.32,1.89-2.32,3.19-2.75c1.25-0.4,2.52-0.22,3.48,0.51c0.9,0.67,1.48,1.74,1.63,3.01c0.14,1.17-0.1,2.37-0.7,3.47l0,0.01
					c-0.6,1.06-1.48,1.88-2.54,2.37C160.86,52.11,160.15,52.28,159.46,52.28z M160.97,42.94c-0.35,0-0.71,0.06-1.07,0.17
					c-1.13,0.37-2.15,1.25-2.79,2.41c-0.66,1.17-0.89,2.55-0.6,3.7c0.28,1.07,0.94,1.84,1.88,2.15c0.87,0.3,1.88,0.21,2.84-0.25
					c0.94-0.43,1.69-1.13,2.22-2.07c0.53-0.96,0.74-2.01,0.62-3.04c-0.13-1.07-0.61-1.97-1.34-2.52
					C162.23,43.14,161.62,42.94,160.97,42.94z"/>
			</g>
		</g>
		<g>
			<path class="st0" d="M161.33,55.91c-0.18,1.03-0.6,1.89-1.29,2.66c-0.68,0.75-1.57,1.4-2.66,1.59c-1.09,0.19-2.19-0.23-2.98-1.24
				c-0.78-0.99-1.23-2.58-0.96-4.21c0.26-1.62,1.07-2.93,2.08-3.63c0.99-0.72,2.16-0.86,3.17-0.45c1.03,0.41,1.74,1.27,2.19,2.23
				C161.3,53.83,161.5,54.88,161.33,55.91z"/>
			<path class="st1" d="M156.87,60.57c-1.05,0-2.03-0.5-2.75-1.42c-0.91-1.16-1.3-2.88-1.04-4.49c0.26-1.64,1.1-3.08,2.23-3.87
				c1.06-0.77,2.34-0.96,3.51-0.49c1,0.4,1.82,1.23,2.38,2.41c0.49,1.11,0.65,2.24,0.48,3.26v0c-0.18,1.09-0.64,2.02-1.38,2.84
				c-0.85,0.94-1.84,1.53-2.86,1.7C157.25,60.55,157.06,60.57,156.87,60.57z M157.52,50.77c-0.62,0-1.23,0.21-1.79,0.61
				c-0.99,0.68-1.71,1.95-1.94,3.4c-0.24,1.42,0.11,2.92,0.89,3.93c0.68,0.87,1.64,1.28,2.64,1.11c1.09-0.19,1.93-0.91,2.45-1.48
				c0.65-0.72,1.05-1.53,1.21-2.48c0.15-0.89,0-1.87-0.43-2.85c-0.48-1.01-1.15-1.7-1.99-2.04
				C158.22,50.83,157.87,50.77,157.52,50.77z"/>
		</g>
		<g>
			<path class="st0" d="M162.08,62c0.4,0.85,0.51,1.8,0.4,2.82c-0.11,1-0.46,2.07-1.26,2.84c-0.78,0.76-1.91,1.06-3.14,0.7
				c-1.22-0.35-2.5-1.41-3.25-3c-0.76-1.59-0.72-3.29-0.19-4.45c0.51-1.18,1.51-1.84,2.6-1.92c1.11-0.08,2.12,0.36,2.96,0.91
				C161.04,60.48,161.67,61.16,162.08,62z"/>
			<path class="st1" d="M159.11,68.88c-0.37,0-0.74-0.05-1.12-0.16c-1.41-0.4-2.74-1.62-3.47-3.19c-0.74-1.55-0.82-3.38-0.2-4.75
				c0.54-1.24,1.62-2.04,2.9-2.13c1.04-0.07,2.07,0.24,3.18,0.96c0.92,0.62,1.58,1.35,2.01,2.24l0,0c0.41,0.85,0.55,1.87,0.44,3.01
				c-0.1,0.88-0.41,2.13-1.36,3.07C160.84,68.55,160.01,68.88,159.11,68.88z M157.51,59.35c-0.08,0-0.16,0-0.25,0.01
				c-1.02,0.07-1.85,0.7-2.29,1.7c-0.42,0.94-0.59,2.52,0.19,4.15c0.65,1.39,1.81,2.46,3.02,2.81c1.06,0.31,2.08,0.08,2.79-0.61
				c0.8-0.78,1.07-1.86,1.15-2.63c0.1-1.03-0.02-1.89-0.37-2.63c-0.37-0.77-0.95-1.41-1.76-1.95
				C159.12,59.63,158.3,59.35,157.51,59.35z"/>
		</g>
		<g>
			<path class="st0" d="M166.33,66.76c0.9,0.62,1.57,1.5,1.96,2.51c0.39,0.99,0.46,2.13,0.02,3.13c-0.45,1.02-1.36,1.69-2.56,1.91
				c-1.19,0.22-2.65-0.08-3.97-0.99c-1.32-0.9-2.16-2.25-2.37-3.48c-0.21-1.25,0.19-2.35,1.03-3.04c0.86-0.7,1.95-0.95,2.97-0.95
				C164.45,65.86,165.43,66.14,166.33,66.76z"/>
			<path class="st1" d="M164.98,74.74c-1.14,0-2.34-0.39-3.4-1.12c-1.32-0.9-2.28-2.32-2.52-3.72c-0.23-1.36,0.19-2.59,1.16-3.38
				c1.05-0.86,2.29-1.04,3.2-1.03c1.14,0.01,2.19,0.33,3.12,0.97l0,0c0.94,0.64,1.66,1.57,2.09,2.67c0.45,1.15,0.46,2.4,0.01,3.41
				c-0.49,1.12-1.5,1.88-2.82,2.12C165.54,74.71,165.26,74.74,164.98,74.74z M163.36,66.21c-0.76,0-1.83,0.15-2.69,0.86
				c-0.76,0.62-1.09,1.61-0.91,2.7c0.21,1.21,1.06,2.45,2.22,3.25c1.15,0.79,2.54,1.14,3.7,0.93c1.08-0.2,1.9-0.8,2.29-1.7
				c0.37-0.84,0.36-1.88-0.03-2.86c-0.38-0.97-1.01-1.78-1.83-2.34l0,0c-0.82-0.56-1.71-0.83-2.72-0.84
				C163.39,66.21,163.38,66.21,163.36,66.21z"/>
		</g>
		<g>
			<path class="st0" d="M173,69.91c1.15,0.38,2.11,1.08,2.74,1.99c0.64,0.89,0.95,1.98,0.72,3.06c-0.23,1.08-0.98,1.93-2.06,2.43
				c-1.07,0.48-2.47,0.58-3.88,0.12c-1.41-0.45-2.52-1.37-3.11-2.42c-0.6-1.04-0.66-2.21-0.17-3.19c0.5-1,1.39-1.64,2.42-1.99
				C170.7,69.57,171.85,69.54,173,69.91z"/>
			<path class="st1" d="M172.37,78.16c-0.65,0-1.31-0.1-1.95-0.32c-1.44-0.46-2.65-1.4-3.31-2.58c-0.66-1.14-0.73-2.43-0.18-3.53
				c0.5-1,1.4-1.75,2.62-2.17c1.14-0.38,2.37-0.38,3.56,0l0,0c1.2,0.4,2.24,1.15,2.93,2.12c0.74,1.03,1.02,2.22,0.78,3.34
				c-0.25,1.17-1.05,2.13-2.26,2.68C173.9,78.01,173.14,78.16,172.37,78.16z M171.32,70c-0.52,0-1.03,0.08-1.53,0.25
				c-0.72,0.25-1.69,0.76-2.21,1.81c-0.44,0.88-0.38,1.91,0.16,2.85c0.57,1.01,1.66,1.85,2.91,2.25c1.24,0.41,2.56,0.37,3.62-0.1
				c0.99-0.45,1.65-1.23,1.85-2.17c0.2-0.93-0.04-1.91-0.66-2.78c-0.6-0.85-1.51-1.51-2.56-1.86C172.37,70.09,171.84,70,171.32,70z"
				/>
		</g>
	</g>
</g>
</svg>
