<?xml version="1.0" encoding="utf-8"?>
<!-- Generator: Adobe Illustrator 24.0.2, SVG Export Plug-In . SVG Version: 6.00 Build 0)  -->
<svg version="1.1" id="Capa_1" xmlns="http://www.w3.org/2000/svg" xmlns:xlink="http://www.w3.org/1999/xlink" x="0px" y="0px"
	 viewBox="0 0 356 400" style="enable-background:new 0 0 356 400;" xml:space="preserve">
<style type="text/css">
	.st0{fill:#FDFD00;}
</style>
<g>
	<g>
		<g>
			<path class="st0" d="M255.48,26.82c-7.24,3.45-21.64,1.09-26.08,7.81c-5.49,14.2,13.65,17.51,26.79,24.03
				c7.63,3.79,14.36,9.07,22.52,11.98c10.95,4.16,43.01,18.21,43,31.15c-5.71,15.58-24.64,23.13-47.65,32.08
				c-26.39,10.27-48.71,22.64-48.66,35.68c0.03,1.57-3.08,6.18-1.35,6.91c0.35,0.15,2.76,2.47,3.3,2.48
				c9.87,0.19,25.23-9.6,34.09-7.57c31.14,7.14,52.7,33.59,74.05,54.46c1.59,1.66-2.86,10.18-1.52,11.74
				c0.61,0.71,12.25-0.38,12.08-0.14c-0.82,1.11-0.7,4.2-1.45,5.14c-9.98,9.6-34.61,18.43-51.96,37.83
				c-13.87,15.51-23.29,37.13-36.83,52.18c-19.71,21.92-44.13,31.39-51.45,36.8c-0.56,0.41,0.84,18.4-2.08,18.3
				c-16.22-0.56-35.31-5.06-51.29-6.52c-2.87-0.26-8.16-6.02-8.22-6.06c-0.79-0.53-23.88-20.18-46.7-47.27
				c-13.52-16.06-16.18-44.21-29.69-60.35c-21.17-25.29-43.59-42.31-46.54-46.09c-0.6-1.02-9.18,2.67-9.83,1.45
				c-0.14-0.26-0.22-11.45,0.46-12.12c1.49-1.47,9.46,1.23,11.2-0.33c23.77-19.27,46.26-30.64,77.59-38.32
				c8.93-2.19,22.61,6.13,32.44,6.86c0.69,0.07,3.31-7.89,3.55-7.95c1.34-0.35,9.66-4.98,9.85-6.05
				c-3.56-16.73-33.51-24.78-56.51-34.85c-21.84-9.56-41.09-20.15-46.48-37.67c0.84-12.84,37.06-27.6,48.28-31
				c8.28-2.29,23.76,13.94,31.58,10.78c13.46-5.43,16.94-22.76,12.23-37.28c-4.09-7.02-13.39-3.17-20.46-7.09
				c-1.09-0.6,3.81-7.97,5.46-7.91c22.27,0.77,45.01-8.32,67.41-7.52c22.4,0.8,44.31,15.36,66.58,16.12
				C254.86,28.56,256.59,26.29,255.48,26.82z"/>
		</g>
	</g>
</g>
</svg>
