<?xml version="1.0" encoding="utf-8"?>
<!-- Generator: Adobe Illustrator 24.0.2, SVG Export Plug-In . SVG Version: 6.00 Build 0)  -->
<svg version="1.1" id="Capa_1" xmlns="http://www.w3.org/2000/svg" xmlns:xlink="http://www.w3.org/1999/xlink" x="0px" y="0px"
	 viewBox="0 0 267.49 459.08" style="enable-background:new 0 0 267.49 459.08;" xml:space="preserve">
<style type="text/css">
	.st0{fill-rule:evenodd;clip-rule:evenodd;fill:#652D90;}
</style>
<g>
	<polyline class="st0" points="112.32,452.58 111.73,452.09 110.89,452.31 110.12,452.31 109.57,451.73 108.85,451.58 
		108.37,450.78 107.49,451.13 106.88,450.69 106.06,450.86 105.34,450.74 104.76,450.22 104.19,449.66 103.5,449.47 102.87,449.09 
		102.25,448.68 101.5,448.67 100.65,448.92 99.95,448.76 99.37,448.24 98.66,448.08 98.08,447.56 97.41,447.32 96.75,447.01 
		96.09,446.73 95.45,446.38 94.61,446.61 93.79,446.79 93.32,445.94 92.64,445.71 91.97,445.44 91.24,445.35 90.61,444.96 
		89.95,444.68 89.13,444.83 88.66,444.01 87.94,443.88 87.08,444.13 86.37,444 85.66,443.84 85.12,443.18 84.36,443.16 83.9,442.31 
		82.98,442.75 82.22,442.74 81.64,442.22 81.16,441.42 80.24,441.85 79.8,440.93 79,441.03 78.18,441.22 77.76,440.23 76.99,440.25 
		76.4,439.74 75.62,439.82 74.88,439.76 74.22,439.44 73.67,438.83 72.96,438.68 72.06,439.07 71.57,438.29 70.65,438.75 
		70.24,437.72 69.56,437.48 68.6,438.04 67.92,437.8 67.26,437.51 66.6,437.19 65.91,436.99 65.3,436.54 64.66,436.18 64.11,435.56 
		63.38,435.48 62.76,435.06 61.87,435.43 61.16,435.28 60.6,434.7 59.96,434.34 59.1,434.61 58.55,433.99 57.74,434.12 
		57.19,433.52 56.55,433.14 55.64,433.57 55.18,432.69 54.5,432.47 53.79,432.32 52.97,432.49 52.38,432.01 51.75,431.64 
		51.1,431.32 50.45,431.02 49.83,430.62 49.02,430.75 48.42,430.28 47.55,430.58 46.92,430.17 46.28,429.82 45.63,429.49 
		45.07,428.91 44.07,429.57 43.67,428.52 43.03,428.19 42.31,428.06 41.67,427.72 40.83,427.95 40.05,427.99 39.45,427.52 
		38.9,426.9 37.99,427.33 37.51,426.5 36.82,426.3 35.95,426.6 35.27,426.34 34.58,426.14 34.15,425.15 33.41,425.09 32.52,425.44 
		32.04,424.63 31.42,424.22 30.69,424.11 29.79,424.5 29.37,423.49 28.59,423.54 27.99,423.05 27.05,423.56 26.41,423.18 
		25.85,422.6 25.11,422.51 24.43,422.27 23.75,422.01 23.15,421.53 22.39,421.52 21.6,421.57 21.17,420.61 20.49,420.38 
		19.53,420.94 18.84,420.72 18.33,419.98 17.65,419.71 17.06,419.22 16.14,419.66 15.47,419.39 14.78,419.15 14.2,418.59 
		13.34,418.84 12.77,418.26 12.06,418.08 11.47,417.58 10.82,417.22 10.06,417.2 9.4,416.86 8.49,417.25 8,416.49 8.5,416 
		8.83,415.28 9.18,414.58 10.31,414.6 10.53,413.77 10.74,413.05 11.06,412.42 12.21,412.54 12.12,411.54 12.73,411.17 
		13.04,410.53 14.01,410.47 13.88,409.42 14.34,408.94 14.68,408.37 15.52,408.12 15.84,407.46 16.78,407.35 16.84,406.46 
		17.45,406.05 17.8,405.41 18.41,405.01 18.59,404.22 19.31,403.92 19.64,403.27 20.09,402.73 20.84,402.45 20.93,401.58 
		21.8,401.4 21.85,400.49 22.47,400.1 22.97,399.59 23.16,398.8 23.91,398.52 24.23,397.85 24.66,397.29 25.72,397.28 26.07,396.64 
		26.51,396.08 26.81,395.38 27.56,395.09 27.5,394.08 28.01,393.57 28.77,393.29 28.93,392.49 30.01,392.47 30.13,391.64 
		30.29,390.86 31.19,390.66 31.63,390.1 31.73,389.28 31.95,388.56 32.54,388.11 32.84,387.45 33.74,387.23 33.97,386.52 
		34.38,385.93 34.61,385.22 35.42,384.93 35.31,383.96 35.85,383.47 36.16,382.81 36.71,382.33 37.62,382.13 37.95,381.48 
		38.68,381.15 38.7,380.26 38.81,379.42 40,379.47 40.43,378.91 40.29,377.85 40.74,377.29 41.24,376.77 41.86,376.37 42.65,376.14 
		43.17,375.65 43.14,374.62 44.33,374.66 44.21,373.64 45.05,373.33 45.55,372.77 45.73,372 46.46,371.6 46.29,370.61 47.14,370.29 
		47.48,369.64 47.81,368.98 48,368.1 48.96,367.95 49.38,367.28 49.98,366.77 50.61,366.25 51.01,365.62 51.15,364.85 51.51,364.21 
		51.65,363.44 52.02,362.81 52.53,362.26 53.04,361.71 53.73,361.29 53.77,360.43 54.08,359.74 55.03,359.6 55.33,358.9 
		55.86,358.41 56.52,358.02 57.03,357.5 57.04,356.56 57.25,355.81 58.12,355.59 58.15,354.68 59.3,354.69 59.54,353.95 
		60.06,353.44 60.38,352.76 60.78,352.14 61.47,351.79 61.91,351.21 62.45,350.73 63.12,350.41 63.39,349.56 64.15,349.44 
		64.75,349.06 65.45,348.84 65.77,348.1 66.31,347.66 67.23,347.69 67.46,346.86 68.27,346.72 68.63,346.07 69.31,345.76 
		69.53,344.98 70.08,344.53 70.36,343.84 71.16,343.59 71.38,342.87 72.05,342.48 71.88,341.53 72.35,341.01 72.67,340.4 
		73.39,339.92 74.1,339.61 74.37,338.81 75.09,338.43 75.45,337.72 75.74,337.02 75.94,336.27 76.37,335.69 76.76,335.08 
		77.11,334.44 77.29,333.72 78.22,333.38 78.22,332.59 78.48,331.93 78.69,331.24 79.11,330.64 78.97,329.83 79.4,329.24 
		79.69,328.59 80.5,328.1 80.38,327.32 80.38,326.59 80.88,325.97 80.27,325.12 80.65,324.47 80.49,323.74 80.58,323.05 
		81.04,322.39 81.04,321.69 81.18,320.99 81.25,320.29 81.14,319.58 81.25,318.88 81.06,318.17 81.24,317.46 81.75,316.74 
		80.84,316.02 81.34,315.26 81.68,314.48 81.66,313.73 81.14,313.03 81.07,312.28 81.21,311.52 80.88,310.81 81.09,310.05 
		81.2,309.32 80.86,308.61 80.19,307.95 80.82,307.17 80.38,306.5 80.85,305.72 80.23,305.07 80.51,304.31 80.09,303.64 
		80.11,302.91 79.82,302.23 79.56,301.54 79.85,300.78 79.47,300.12 80.03,299.31 79.02,298.74 79.6,297.93 79.71,297.19 
		79.31,296.53 78.81,295.88 78.6,295.18 78.58,294.46 78.85,293.68 78.94,292.93 78.08,292.34 77.97,291.63 78.58,290.79 
		78.14,290.13 78.4,289.35 77.46,288.77 78,287.95 77.42,287.31 77.17,286.63 77.47,285.84 77.28,285.15 77.01,284.47 76.95,283.75 
		77.17,282.98 77.01,282.29 76.21,281.71 76.24,280.98 76.49,280.21 75.84,279.61 76.45,278.79 76.31,278.1 75.39,277.55 
		75.48,276.82 75.41,276.11 75.23,275.43 75.37,274.68 75.1,274.01 74.86,273.33 75.03,272.58 75.04,271.86 74.09,271.31 
		74.92,270.43 74.49,269.79 74.3,269.1 73.77,268.48 74.02,267.71 74.04,266.98 73.76,266.31 74.01,265.54 73.75,264.85 
		73.41,264.17 73.54,263.4 72.85,262.78 72.76,262.06 72.62,261.35 72.38,260.66 72.97,259.8 72.24,259.21 71.99,258.52 
		71.94,257.79 71.82,257.08 71.69,256.37 71.87,255.59 71.83,254.86 70.96,254.33 71.08,253.55 71.21,252.78 70.98,252.09 
		71.05,251.32 69.93,250.82 70.02,250.03 70.18,249.24 69.78,248.57 70.01,247.78 70.11,247.01 69.67,246.33 69.26,245.66 
		68.91,244.97 68.77,244.24 69.14,243.45 68.51,242.84 69.03,242.03 69.01,241.32 68.36,240.71 68.37,239.98 68.65,239.22 
		68.02,238.6 67.65,237.93 67.53,237.23 68.06,236.43 67.95,235.72 68.16,234.97 67.96,234.28 67.69,233.59 67.57,232.89 
		66.81,232.3 67.38,231.47 66.6,230.9 67.28,230.04 66.17,229.55 66.49,228.76 66.48,228.04 65.99,227.45 65.53,226.87 
		65.91,226.01 65.22,225.51 64.84,224.9 65.47,223.96 65.11,223.34 64.98,222.65 64.01,222.21 64.29,221.36 64.19,220.63 
		63.58,220.08 63.11,219.48 63.28,218.66 62.97,217.99 62.9,217.25 62.87,216.5 62.18,215.97 62.46,215.09 61.46,214.67 
		61.44,213.89 61.38,213.12 61.26,212.38 60.51,211.87 60.27,211.17 59.83,210.55 59.59,209.85 60.15,208.85 59.16,208.43 
		59.4,207.56 58.92,206.94 58.37,206.34 58.23,205.61 58.59,204.73 58.37,204.02 57.72,203.46 57.58,202.73 57.65,201.93 
		56.8,201.44 57.19,200.54 56.71,199.92 56.91,199.08 55.86,198.66 56.03,197.82 55.98,197.06 55.48,196.44 55.57,195.63 
		55.11,195.02 54.47,194.46 54.34,193.74 54.04,193.07 54.18,192.28 54.07,191.56 53.97,190.83 53.21,190.3 53.33,189.51 
		53.26,188.77 52.66,188.24 52.73,187.48 52.24,186.92 52.74,186.01 52.05,185.51 51.67,184.92 51.38,184.3 51.67,183.42 
		50.75,183.08 50.98,182.2 50.57,181.62 50.51,180.88 50.05,180.31 49.97,179.58 49.69,178.94 48.61,178.59 49.23,177.62 
		48.93,176.97 48.72,176.3 48.12,175.75 47.9,175.08 48.18,174.25 47.67,173.67 46.96,173.13 47.07,172.37 46.99,171.65 
		46.29,171.1 46.6,170.28 46.84,169.48 46.65,168.79 46.47,168.11 46.11,167.47 45.84,166.81 45.04,166.3 45.6,165.41 44.86,164.87 
		44.9,164.1 44.95,163.33 44.4,162.73 44.24,162.02 44.34,161.23 43.99,160.58 43.72,159.9 43.63,159.17 42.82,158.66 42.6,157.96 
		42.98,157.08 42.31,156.52 42.72,155.62 42.1,155.05 42.18,154.25 41.66,153.64 41.45,152.94 41.4,152.19 40.73,151.65 
		40.97,150.79 40.04,150.35 39.73,149.7 39.56,149 39.45,148.28 38.9,147.76 39.26,146.73 38.13,146.52 38.63,145.44 37.48,145.23 
		37.62,144.34 37.42,143.63 36.92,143.07 36.65,142.41 36.38,141.73 35.51,141.35 35.89,140.37 34.93,140.03 35.34,139.04 
		34.42,138.66 34.32,137.91 34.15,137.19 33.84,136.54 33.88,135.73 33.39,135.16 32.73,134.65 32.24,134.07 32.43,133.21 
		32.03,132.58 31.48,132.02 31.94,131.06 31.77,130.34 31.43,129.69 30.37,129.32 30.74,128.4 30.41,127.75 29.65,127.25 
		30.16,126.29 29.38,125.8 29.56,124.97 29.48,124.23 28.84,123.67 28.44,123.03 28.18,122.35 28.02,121.63 28.18,120.82 
		27.91,120.15 27.73,119.44 27.35,118.8 27.05,118.12 26.95,117.4 26.51,116.76 26.95,115.91 26.18,115.35 26.03,114.65 
		25.87,113.95 25.94,113.18 25.49,112.56 26.03,111.62 25.59,110.99 25.48,110.26 25.31,109.54 24.38,109.09 24.4,108.31 
		24.62,107.46 23.63,107.03 23.7,106.23 23.14,105.64 23.1,104.88 23.23,104.1 23.05,103.39 22.82,102.7 22.42,102.02 22.25,101.29 
		23.05,100.51 22.63,99.77 22.73,99.03 22.79,98.27 23.26,97.65 23.18,96.72 24.27,96.62 24.78,96.16 25.34,95.78 25.98,95.56 
		26.66,95.52 27.38,94.99 27.99,95.62 28.77,95.39 29.4,95.72 29.92,96.25 30.72,96.28 30.97,97.12 31.44,97.63 32.41,97.56 
		32.73,98.27 33.2,98.77 33.91,99.03 34.52,99.33 34.94,100.04 35.56,100.49 36.28,100.6 37.16,100.11 37.77,100.57 38.27,101.34 
		39.11,101.06 39.83,101.2 40.56,101.34 41.05,101.97 41.65,102.37 42.16,102.88 42.85,103.14 43.52,103.42 44.08,103.88 
		44.22,104.82 45.17,104.81 45.62,105.36 46.26,105.74 46.89,106.12 46.88,107.13 47.22,107.68 47.66,108.22 48.57,108.51 
		48.26,109.51 49.26,109.75 49.58,110.38 49.34,111.34 50.41,111.53 50.29,112.43 50.93,112.87 51.51,113.35 51.64,114.09 
		52.33,114.51 52.02,115.5 52.58,116 53.15,116.48 53,117.4 53.44,117.96 54.45,118.19 54.22,119.15 54.67,119.71 54.74,120.5 
		55.79,120.7 55.81,121.52 55.9,122.29 56.81,122.58 57.27,123.14 56.91,124.18 58.02,124.36 58.4,124.97 58.61,125.69 58.7,126.46 
		59.03,127.1 59.31,127.77 59.1,128.61 59.87,129.1 59.57,129.96 59.95,130.59 60.57,131.15 61.04,131.75 61.2,132.46 61.38,133.16 
		61.2,133.98 61.78,134.54 61.98,135.22 61.68,136.11 62.01,136.76 62.82,137.19 62.87,137.95 63.07,138.66 63.41,139.29 
		63.84,139.86 64.27,140.43 64.13,141.29 64.56,141.86 64.79,142.52 65.82,142.81 65.8,143.6 66.11,144.23 65.96,145.08 
		66.91,145.41 67.13,146.08 67.2,146.82 67.06,147.66 67.97,148.02 68,148.78 68.17,149.48 68.96,149.89 69.08,150.61 69.39,151.24 
		69.16,152.12 69.92,152.56 70.27,153.2 70.41,153.93 70.93,154.48 71.23,155.13 71.77,155.66 71.4,156.65 72.51,156.89 
		72.85,157.52 72.27,158.6 72.65,159.19 73.67,159.55 73.39,160.42 73.53,161.13 73.85,161.78 74.73,162.23 74.28,163.15 
		74.57,163.81 74.7,164.54 75.63,164.92 75.81,165.61 76.21,166.19 76.19,166.98 76.59,167.57 76.53,168.39 77.04,168.92 
		77.02,169.72 77.38,170.32 78.37,170.62 78.67,171.25 78.44,172.16 79.4,172.47 79.15,173.4 79.71,173.91 79.98,174.56 
		80.58,175.04 80.48,175.9 80.7,176.58 81.62,176.85 81.45,177.88 82.1,178.21 82.25,178.95 82.98,179.32 83.29,179.95 84.11,180.3 
		84,181.18 84.81,181.54 84.48,182.52 85.01,183.04 85.18,183.74 85.95,184.15 86,184.92 86.19,185.62 87.01,186.01 86.73,186.93 
		86.91,187.63 87.52,188.13 87.92,188.73 87.83,189.53 88.39,190.06 88.03,189.42 87.82,188.73 88.05,187.9 87.37,187.37 
		87.03,186.72 86.83,186.03 86.82,185.28 86.78,184.53 86.36,183.92 85.87,183.32 85.62,182.65 85.73,181.85 85.03,181.33 
		84.69,180.69 84.59,179.96 84.26,179.31 83.99,178.65 83.9,177.92 84.36,176.99 83.65,176.48 83.7,175.7 83,175.19 82.57,174.58 
		82.92,173.7 82.27,173.17 82.5,172.33 81.75,171.84 81.6,171.13 81.78,170.32 80.97,169.84 80.92,169.1 80.94,168.35 80.7,167.68 
		80.82,166.9 80.58,166.23 80.53,165.5 79.97,164.92 79.41,164.34 79.15,163.67 79.45,162.85 79.52,162.09 78.54,161.61 
		78.33,160.92 78.83,160.06 78.63,159.38 78.01,158.79 78.08,158.04 78.12,157.3 78.02,156.59 78.08,155.85 77.87,155.16 
		77.78,154.45 77.67,153.73 77.34,153.04 77.29,152.3 77.15,151.57 77.07,150.84 76.72,150.15 76.42,149.45 76.28,148.73 
		75.75,148.09 75.73,147.35 75.67,146.62 76.13,145.74 75.85,145.05 74.87,144.58 74.72,143.9 74.75,143.15 74.43,142.52 
		74.57,141.74 74.32,141.08 74.01,140.44 73.67,139.82 73.74,139.08 73.76,138.36 73.16,137.78 73.23,137.06 73.25,136.35 
		73.2,135.65 72.61,135.03 72.86,134.29 72.74,133.6 72.5,132.93 72.38,132.24 72.51,131.51 72.4,130.82 72.28,130.13 72.41,129.4 
		72.18,128.73 72.19,128.03 71.64,127.4 71.8,126.68 71.37,126.02 71.41,125.32 71.64,124.59 71.63,123.87 71.19,123.2 71.1,122.49 
		71.46,121.74 71.36,121.03 70.58,120.4 70.79,119.66 70.52,118.98 71.21,118.19 70.27,117.59 71.03,116.78 70.16,116.18 
		70.9,115.37 69.89,114.78 70.55,113.98 69.96,113.34 70.4,112.57 70.42,111.85 70.22,111.15 70.1,110.45 70.04,109.73 
		69.86,109.03 69.95,108.3 69.64,107.62 68.94,106.99 68.78,106.29 69.16,105.51 68.97,104.81 69.2,104.06 68.76,103.4 
		69.06,102.63 68.32,102.02 68.89,101.21 68.44,100.56 68.5,99.83 67.7,99.23 68.16,98.44 68.17,97.72 67.59,97.09 67.99,96.3 
		67.6,95.65 67.82,94.86 67.69,94.13 66.74,93.56 67.22,92.71 67.01,92 66.41,91.36 66.31,90.62 66.29,89.86 66.36,89.09 
		65.76,88.42 65.98,87.63 65.95,86.88 65.51,86.16 66,85.41 66.29,84.65 65.76,83.99 65.44,83.31 65.29,82.61 65.09,81.92 
		64.87,81.23 65.13,80.46 65.28,79.72 64.83,79.07 64.69,78.37 64.79,77.64 65.09,76.89 64.57,76.23 64.97,75.48 64.16,74.85 
		64.42,74.11 64.21,73.41 64.53,72.67 63.82,72.02 64.62,71.23 64.43,70.53 64.5,69.81 64.28,69.11 64,68.43 63.7,67.75 
		63.82,67.02 63.83,66.29 63.24,65.67 63.71,64.86 63.53,64.16 62.95,63.56 63.15,62.78 62.28,62.26 62.05,61.59 62.43,60.78 
		62.06,60.13 62.1,59.41 61.68,58.75 61.77,58.02 61.73,57.31 61.75,56.59 62.13,55.87 62.17,55.16 61.6,54.39 62.39,53.75 
		61.71,52.91 62.04,52.23 62.25,51.53 62.5,50.84 62.21,50.06 62.9,49.44 62.69,48.68 62.48,47.96 63.15,47.25 62.64,46.55 
		62.49,45.85 62.9,45.07 62.76,44.37 62.74,43.65 62.49,42.91 62.75,42.21 62.83,41.48 63.57,40.97 63.06,39.99 63.95,39.62 
		64.26,38.99 64.7,38.44 65.35,38.1 65.79,37.56 66.12,36.79 66.78,36.45 67.51,36.31 68.23,36.24 68.86,35.73 69.63,36.25 
		70.31,36.25 71.01,36.19 71.82,35.76 72.51,36.06 73.09,36.58 73.62,37.1 74.63,36.77 75.18,37.3 75.82,37.68 75.88,38.73 
		76.66,38.94 77.11,39.54 78,39.52 78.33,40.34 79.26,40.15 79.64,40.97 80.28,41.3 80.97,41.52 81.56,41.94 82.17,42.31 
		83.06,42.19 83.56,42.74 84.16,43.15 84.32,44.05 84.93,44.4 85.46,44.85 86.27,45.13 86.25,46.01 87.23,46.26 87.49,46.95 
		87.42,47.78 87.71,48.44 87.74,49.21 88.17,49.83 88.52,50.48 89.04,51.06 88.77,51.95 89.16,52.59 90.03,53.03 89.6,53.99 
		89.75,54.67 90.27,55.29 90.81,55.9 90.22,56.82 91.26,57.29 90.65,58.22 90.88,58.92 91.88,59.39 91.6,60.23 91.42,61.04 
		91.73,61.7 92.76,62.17 92.02,63.12 92.79,63.66 93.23,64.3 93.11,65.08 93.16,65.82 93.59,66.47 93.04,67.32 93.28,68.01 
		93.29,68.74 93.71,69.4 94.15,70.06 94.4,70.76 94.25,71.53 94.42,72.23 94.93,72.9 94.58,73.68 94.92,74.36 94.84,75.1 
		94.76,75.83 95.1,76.52 94.48,77.31 94.89,77.99 94.63,78.74 94.78,79.45 95.23,80.12 95.21,80.86 95.17,81.6 95.39,82.3 
		95.14,83.05 95.37,83.75 95.75,84.42 96.34,85.07 95.95,85.85 95.81,86.59 96,87.3 96.28,87.98 96.54,88.67 96.23,89.43 
		96.94,90.06 97.01,90.78 96.57,91.56 97.25,92.2 96.95,92.96 97.5,93.61 97.32,94.36 97.22,95.1 97.84,95.74 97.65,96.5 
		97.12,97.3 97.26,98.01 97.43,98.71 97.46,99.43 97.88,100.1 98.26,100.77 97.81,101.57 98.21,102.24 98.39,102.94 97.97,103.73 
		98.62,104.36 98.46,105.12 98.7,105.81 98.72,106.54 98.64,107.28 99.27,107.92 99.38,108.63 99.11,109.4 99.84,110.03 
		99.58,110.8 99.87,111.48 99.28,112.3 99.49,113 100.22,113.63 99.85,114.42 99.7,115.17 100.07,115.85 100.22,116.56 
		100.68,117.22 100.54,117.97 100.93,118.65 101.16,119.34 101,120.1 101.38,120.77 101.41,121.5 101.18,122.27 101.41,122.97 
		101.19,123.74 102.06,124.33 101.29,125.19 101.35,125.91 101.51,126.62 102,127.27 102.52,127.92 102.2,128.71 102.77,129.35 
		102.87,130.07 102.99,130.78 102.58,131.59 102.65,132.31 102.68,133.04 102.89,133.74 103.01,134.45 103.18,135.15 103.56,135.82 
		103.64,136.54 103.69,137.26 103.9,137.95 104.08,138.65 104.54,139.29 104.81,139.96 104.6,140.74 105.12,141.36 104.8,142.16 
		105.17,142.82 104.79,143.65 105.76,144.15 105.18,145.04 105.99,145.57 105.47,146.44 106.21,146.99 106.41,147.68 106.43,148.42 
		106.7,149.09 106.42,149.91 106.89,150.53 107.37,151.14 107.31,151.91 107.44,152.62 107.97,153.21 107.86,154 107.88,154.75 
		108.84,155.21 109.1,155.88 108.83,156.73 108.9,157.46 109.52,158.02 109.94,158.65 109.64,159.51 110.15,160.11 109.94,160.94 
		110.31,161.58 110.96,162.13 110.81,162.94 111.45,163.5 111.67,164.18 111.49,165.01 111.59,165.75 111.95,166.39 111.98,167.15 
		112.98,167.57 112.63,168.46 113.5,168.92 113.76,169.6 113.45,170.48 114.16,171 114.41,171.68 114.49,172.42 114.47,173.19 
		114.73,173.87 114.67,174.65 115.24,175.22 115.76,175.79 115.71,176.56 115.59,175.88 115.16,175.24 115.6,174.48 115.35,173.81 
		115.38,173.1 115.21,172.42 115.33,171.69 114.73,171.1 114.33,170.46 114.52,169.71 114.84,168.92 114.57,168.26 114.54,167.55 
		114.35,166.88 113.84,166.26 113.54,165.61 113.4,164.9 113.38,164.17 112.98,163.51 113.31,162.72 113.45,161.96 112.88,161.32 
		112.45,160.66 112.78,159.88 112.87,159.13 112.78,158.41 112.65,157.7 112.52,156.99 112.23,156.3 111.93,155.62 111.87,154.9 
		112.28,154.1 111.83,153.44 111.48,152.77 111.77,151.99 110.98,151.39 111.16,150.62 111.54,149.82 111.08,149.17 110.9,148.47 
		111.22,147.68 110.63,147.05 110.97,146.25 110.74,145.56 110.52,144.86 109.84,144.25 110.52,143.39 109.95,142.76 110.24,141.97 
		109.68,141.34 109.87,140.57 109.02,139.98 109.54,139.16 109.42,138.44 109.32,137.72 109.33,136.99 108.58,136.38 108.53,135.66 
		108.18,134.98 108.27,134.23 107.99,133.55 108.44,132.73 108.32,132.02 107.86,131.36 107.58,130.68 107.17,130.02 107.64,129.2 
		106.91,128.59 106.85,127.87 106.8,127.14 107.02,126.36 107.02,125.63 106.26,125.03 106.62,124.23 106.03,123.6 106.13,122.85 
		105.73,122.19 105.82,121.43 106.35,120.59 106.14,119.9 105.24,119.33 105.37,118.57 105.73,117.76 105.3,117.11 105.23,116.38 
		105.33,115.63 104.48,115.06 104.87,114.24 104.5,113.58 104.02,112.93 104.53,112.09 103.67,111.53 104.21,110.68 104.09,109.97 
		103.19,109.42 103.12,108.7 103.05,107.97 103.42,107.16 102.98,106.51 103.35,105.69 102.76,105.08 102.49,104.4 102.42,103.67 
		102.18,102.99 102.37,102.2 102.16,101.51 101.82,100.85 101.93,100.08 101.27,99.49 100.86,98.84 101.66,97.93 100.65,97.4 
		101.09,96.57 100.55,95.95 100.36,95.25 100.28,94.52 100.35,93.78 100.04,93.1 100.14,92.35 100.3,91.59 100.06,90.9 99.73,90.22 
		99.5,89.52 99.7,88.77 99.47,88.07 99.24,87.37 99.72,86.59 99.43,85.88 99.44,85.16 99.17,84.49 98.49,83.9 98.2,83.23 
		98.1,82.53 98.74,81.69 98.34,81.05 97.9,80.41 98.23,79.63 98.27,78.91 97.66,78.31 97.55,77.61 97.62,76.88 97.47,76.19 
		96.92,75.57 96.79,74.88 97.46,74.03 96.84,73.43 97.11,72.66 96.25,72.09 96.96,71.24 96.74,70.56 96.39,69.9 95.87,69.27 
		96,68.53 95.96,67.81 95.51,67.16 95.53,66.43 95.27,65.77 95.32,64.95 94.96,64.35 94.21,63.83 93.89,63.17 93.67,62.47 
		94.05,61.61 93.9,60.9 93.56,60.24 93.6,59.47 93.6,58.71 92.91,58.16 92.54,57.51 92.41,56.79 92.22,56.08 92.09,55.36 
		91.91,54.66 91.26,54.11 91.49,53.27 91.26,52.58 91.3,51.8 90.65,51.27 90.19,50.67 89.76,50.06 89.49,49.39 89.5,48.61 
		89.22,47.94 89.28,47.14 88.68,46.6 88.22,46.01 88.44,45.14 88.41,44.37 87.8,43.83 87.14,43.31 87.26,42.47 87.27,41.66 
		86.28,41.28 86.73,40.28 85.69,39.92 85.86,39.04 85.14,38.54 85.22,37.7 84.62,37.15 84.38,36.44 83.8,35.88 83.78,35.08 
		83.34,34.46 83.73,33.48 82.8,33.07 82.29,32.48 82.73,31.49 81.74,31.19 81.98,30.3 81.71,29.66 81.53,28.98 81.18,28.36 
		80.59,27.83 80.75,27.04 80.54,26.38 80.38,25.7 80.04,25.07 79.64,24.46 79.4,23.81 78.89,23.24 79.43,22.32 79.22,21.64 
		78.23,21.26 78.26,20.48 78.32,19.68 77.89,19.1 77.85,18.35 76.81,18.03 77.2,17.1 76.95,16.46 76.09,15.97 76.57,15.13 
		75.93,14.52 75.84,13.79 76.43,13.09 76.38,12.4 75.94,11.56 76.61,11.01 76.82,10.33 77.5,9.91 77.4,8.99 78.39,8.93 78.57,8.11 
		79.31,7.96 79.9,7.64 80.29,6.69 81.04,6.6 81.87,7.22 82.53,6.99 83.23,6.54 83.88,7.26 84.69,6.5 85.31,7.04 86.03,7.12 
		86.82,7.01 87.51,7.25 87.95,8.03 88.46,8.59 89.04,8.99 89.81,9.05 90.38,9.5 91.28,9.18 91.78,9.86 92.44,10.19 93.19,9.96 
		93.91,9.92 94.65,9.99 95.39,10.09 96.17,10.07 96.83,10.48 97.51,10.79 98.27,10.91 98.73,11.66 99.33,12.07 99.8,12.68 
		100.72,12.61 101.07,13.37 101.91,13.48 102.63,13.77 103,14.46 103.77,14.72 104.13,15.41 104.29,16.26 104.85,16.74 
		105.67,16.99 106.13,17.56 106.47,18.24 106.62,19.06 107.04,19.66 107.61,20.15 108.11,20.68 108.4,21.37 109.13,21.69 
		109.21,22.5 109.83,22.92 110,23.64 110.44,24.18 111.24,24.51 111.69,25.06 111.93,25.74 112.09,26.46 112.38,27.11 112.88,27.63 
		112.85,28.46 113.41,28.95 113.58,29.67 114.09,30.17 115.03,30.4 115.19,31.16 115.07,32.09 115.92,32.42 116.36,32.99 
		116.28,33.89 117.03,34.29 117.16,35.06 117.55,35.67 118.39,36.03 118.87,36.6 118.92,37.4 118.91,38.21 119.78,38.59 
		120.09,39.25 120.12,40.03 120.77,40.53 120.84,41.29 121.25,41.9 120.98,42.79 121.23,43.46 121.46,44.14 121.82,44.77 
		121.72,45.57 122.71,46 122.52,46.82 122.84,47.47 123.23,48.1 123.57,48.75 123.47,49.54 123.82,50.19 124.35,50.79 123.95,51.62 
		124.05,52.32 124.99,52.61 125.38,53.16 125.02,54.12 125.48,54.7 125.83,55.33 125.95,56.06 126.35,56.67 126.18,57.5 
		126.91,57.99 127.3,58.61 127.25,59.39 127.29,60.14 127.78,60.73 128.23,61.34 128.08,62.14 128.22,62.85 128.55,63.5 
		128.98,64.12 128.97,64.88 129.35,65.51 129.85,66.11 129.64,66.93 130.34,67.46 130.23,68.25 130.43,68.94 130.82,69.58 
		130.73,70.36 130.63,71.14 131.46,71.64 131.24,72.46 131.76,73.06 132.16,73.7 132.23,74.44 132.6,75.09 132.55,75.86 
		132.83,76.54 132.75,77.32 132.68,78.08 133.08,78.72 133.26,79.43 133.85,80.01 133.53,80.85 134.49,81.34 134.48,82.09 
		133.99,82.98 134.12,83.69 134.66,84.29 135.39,84.85 135.21,85.65 135.21,86.4 135.97,86.96 135.78,87.75 135.68,88.52 
		136.42,89.08 136.57,89.79 136.77,90.48 136.5,91.28 136.97,91.91 136.56,92.74 136.67,93.45 137.17,94.07 137.37,94.77 
		137.19,95.54 137.35,96.25 137.12,97.02 138.04,97.61 137.37,98.45 138.03,99.08 137.84,99.84 138.01,100.55 138.55,101.2 
		137.92,102.03 138.52,102.67 138.31,103.44 138.69,104.12 138.56,104.87 138.48,105.62 138.63,106.34 139.68,106.89 139.17,107.72 
		139.52,108.39 139.88,109.05 139.52,109.87 139.86,110.54 140.47,111.14 140,111.99 140.73,112.57 140.39,113.38 140.69,114.06 
		140.39,114.84 141.34,115.4 140.57,116.27 141.38,116.85 141.48,117.57 141.51,118.3 142.05,118.93 141.47,119.78 141.59,120.5 
		141.56,121.24 142.58,121.78 142.53,122.53 142.08,123.35 142.58,123.99 142.36,124.78 143.31,125.32 143.14,126.09 143.17,126.83 
		142.98,127.6 143.01,128.33 143.63,128.95 143.74,129.66 143.67,130.41 143.59,131.16 144.07,131.8 143.92,132.57 144.66,133.16 
		144.75,133.87 144.28,134.7 144.48,135.4 144.46,136.13 145.14,136.74 145.08,137.48 145.11,138.21 145.74,138.83 145.28,139.64 
		145.62,140.31 145.53,141.07 145.89,141.73 146.33,142.39 145.96,143.18 146.18,143.88 146.6,144.54 146.84,145.23 147.16,145.91 
		147.21,146.63 146.62,147.46 147.53,148.05 146.97,148.86 146.78,149.63 147.31,150.28 147.43,151 147.78,151.67 147.4,152.45 
		147.73,153.13 148.41,153.74 148.49,154.45 148.61,155.15 148.25,155.95 148.39,156.65 148.58,157.35 148.27,158.15 149,158.73 
		149,159.47 148.93,160.23 148.98,160.97 149.71,161.52 149.63,162.3 150.53,162.69 150.43,163.51 151.07,163.95 151.24,164.67 
		151.72,165.18 152.09,165.78 152.41,166.45 153.07,166.78 153.47,167.38 154.28,167.43 154.49,168.43 155.25,168.5 155.99,168.48 
		156.68,168.39 157.33,168.63 158.01,168.6 158.7,168.47 159.26,168.56 159.45,168.05 159.36,167.34 159.77,166.71 159.45,165.99 
		160.17,165.36 160.37,164.67 159.79,163.96 160.28,163.27 160.03,162.58 159.53,161.86 160.49,161.15 160.1,160.43 159.67,159.71 
		159.66,158.99 159.57,158.27 159.76,157.56 160.35,156.85 160.43,156.13 160.08,155.41 160.54,154.69 160.25,153.97 160.34,153.25 
		159.99,152.53 160.42,151.81 160.01,151.09 159.67,150.37 159.65,149.65 160.36,148.93 159.92,148.2 159.74,147.48 160.03,146.76 
		160.01,146.04 160.02,145.31 160.21,144.58 160.14,143.88 159.76,143.16 160.31,142.47 160.36,141.76 160.19,141.05 160.38,140.35 
		160.28,139.64 159.9,138.92 159.75,138.21 160.22,137.51 160.03,136.78 160.7,136.1 160.7,135.39 160.21,134.66 160.25,133.95 
		160.79,133.28 160.11,132.52 160.57,131.83 161.02,131.13 160.61,130.36 160.72,129.63 160.4,128.86 160.89,128.17 161.33,127.47 
		161.31,126.73 161.23,125.99 161.41,125.26 161.41,124.53 160.83,123.78 160.91,123.06 161.47,122.33 160.8,121.61 161.24,120.88 
		161.43,120.14 161.26,119.43 160.86,118.73 161.05,118.01 161.27,117.29 160.81,116.58 161.03,115.86 161.55,115.15 160.8,114.43 
		160.96,113.72 161,113.01 161.03,112.3 161.03,111.58 161.5,110.89 160.95,110.15 161.39,109.46 161.31,108.75 160.93,108.02 
		161.41,107.33 160.9,106.59 161.6,105.91 161.26,105.18 161.29,104.47 161.6,103.77 161.25,103.04 161.85,102.35 161.29,101.62 
		161.1,100.9 161.92,100.21 161.77,99.49 161.19,98.77 161.89,98.07 162.13,97.36 161.7,96.65 161.34,95.93 162.02,95.21 
		162.09,94.49 161.74,93.78 161.47,93.07 161.22,92.36 161.41,91.64 161.22,90.93 161.66,90.18 161.31,89.46 161.27,88.73 
		161.89,88 161.26,87.27 161.18,86.55 161.71,85.82 161.44,85.1 161.27,84.38 161.27,83.66 161,82.96 161.61,82.18 160.74,81.53 
		161.56,80.73 160.51,80.1 161,79.32 160.77,78.62 160.88,77.88 161.09,77.12 160.12,76.5 160.32,75.75 160.65,74.97 160.63,74.24 
		160.14,73.58 160.41,72.81 159.78,72.18 160.33,71.33 159.45,70.76 159.48,70.01 159.76,69.19 158.8,68.68 158.74,67.94 
		158.52,67.25 159.09,66.36 158.32,65.8 158.5,65.02 157.91,64.4 158.43,63.56 157.91,62.92 158.28,62.13 157.6,61.5 157.64,60.76 
		157.34,60.08 157.33,59.35 157.49,58.58 157.03,57.94 156.58,57.29 156.45,56.59 156.8,55.77 156.1,55.19 156.19,54.43 
		155.8,53.78 156.09,52.97 155.63,52.34 155.29,51.67 155.32,50.92 154.96,50.26 154.8,49.55 155.38,48.69 154.74,48.08 
		154.8,47.33 154.29,46.69 154.79,45.86 154.13,45.24 154.06,44.51 154.13,43.77 153.76,43.08 154.23,42.3 153.87,41.61 
		153.51,40.91 153.38,40.19 153.8,39.43 154.1,38.7 153.26,38 153.43,37.26 154.15,36.55 153.45,35.8 154.21,35.12 154.18,34.4 
		154.13,33.68 153.6,32.84 154.24,32.23 154.45,31.54 154.93,30.93 155.14,30.24 154.92,29.41 155.2,28.75 155.89,28.16 
		155.46,27.33 155.29,26.54 155.89,25.93 155.78,25.13 156.08,24.44 156.71,23.93 156.74,23.1 157.46,22.69 157.91,22.12 
		158.35,21.54 159.03,21.23 159.78,21.11 160.12,20.18 160.88,20.11 161.59,19.94 162.35,20.39 163.05,19.85 163.82,19.62 
		164.58,19.69 165.21,20.19 166.03,20.17 166.6,20.7 166.92,21.56 167.95,21.37 167.98,22.48 168.89,22.55 169.65,22.78 
		169.89,23.52 169.78,24.45 170.78,24.57 171.03,25.22 171.53,25.68 171.87,26.44 172.87,26.09 173.14,27.01 173.68,27.49 
		174.51,27.51 175.14,27.87 175.81,28.2 176.03,29.07 176.83,29.24 177.28,29.82 178.11,30.02 178.02,31.09 178.97,31.22 
		179.09,32.06 179.56,32.6 180.28,32.97 180.4,33.77 181.32,34.04 181.05,35.07 181.56,35.6 182.15,36.1 182.07,36.97 183.1,37.25 
		183.06,38.08 183.21,38.81 183.98,39.26 183.73,40.16 184.4,40.67 184.88,41.26 185.02,41.99 185.09,42.73 185.09,43.51 
		185.59,44.09 185.59,44.85 185.84,45.52 186.54,46.05 186.44,46.83 186.89,47.44 186.47,48.33 186.92,48.93 187.76,49.41 
		187.9,50.12 187.92,50.86 187.83,51.64 188.45,52.19 188.81,52.83 188.52,53.66 188.84,54.3 188.94,55.01 189.1,55.7 189.23,56.4 
		188.99,57.19 189.89,57.7 190.06,58.4 190.24,59.09 189.71,59.92 189.72,60.63 189.86,61.32 190.78,61.89 190.91,62.59 
		190.65,63.35 191.06,64.01 190.68,64.78 190.95,65.46 191.4,66.15 190.76,66.96 191.4,67.64 191.09,68.42 191.7,69.1 191.47,69.87 
		191.52,70.61 191.65,71.34 191.45,72.12 191.37,72.89 192.3,73.46 192.12,74.24 192.06,75 192.25,75.71 192.33,76.45 193.04,77.08 
		192.72,77.85 193.26,78.48 192.74,79.29 192.59,80.04 193.04,80.68 192.89,81.43 193.41,82.06 193.95,82.69 193.99,83.41 
		193.74,84.17 193.61,84.92 194.23,85.53 194.33,86.24 193.96,87.02 194.8,87.61 194.49,88.38 194.36,89.12 194.86,89.77 
		195.14,90.45 194.69,91.24 195.09,91.9 194.95,92.65 195.51,93.29 195.42,94.02 195.26,94.77 195.32,95.48 195.22,96.22 
		195.92,96.85 195.84,97.58 195.53,98.34 196.06,99 196.53,99.67 195.85,100.46 195.85,101.18 196.73,101.82 196.05,102.6 
		196.03,103.32 196.04,104.04 196.6,104.71 196.96,105.41 196.92,106.13 196.7,106.86 196.49,107.59 196.25,108.31 196.32,109.02 
		197.03,109.71 196.67,110.43 196.62,111.14 196.36,111.87 196.33,112.61 196.78,113.35 196.83,114.09 196.36,114.82 197.03,115.57 
		196.66,116.3 197.03,117.04 196.53,117.78 196.36,118.51 196.88,119.25 196.7,119.99 196.67,120.73 196.68,121.47 197.08,122.19 
		197.21,122.92 197.18,123.68 196.45,124.41 196.59,125.15 197.23,125.93 197.01,126.66 196.84,127.38 197.12,128.12 196.37,128.87 
		196.61,129.59 196.27,130.32 196.99,131.03 196.46,131.77 196.43,132.49 196.49,133.21 197.28,133.92 196.61,134.66 196.64,135.38 
		196.43,136.11 196.87,136.83 197.31,137.54 196.59,138.28 197.2,139 196.86,139.73 197.33,140.44 197.37,141.17 196.97,141.9 
		197.02,142.63 197.49,143.34 196.54,144.09 196.85,144.81 197.34,145.52 197.46,146.24 197.54,146.96 196.74,147.7 197.35,148.42 
		196.81,149.16 197.54,149.87 197.08,150.6 197.25,151.33 197.61,152.05 197.19,152.79 196.72,153.53 197.64,154.24 196.95,154.98 
		197.21,155.7 196.78,156.44 196.92,157.17 197.48,157.89 197.15,158.63 197.59,159.35 197.05,160.1 197.47,160.82 197.32,161.56 
		197.83,162.27 197.9,162.99 197.55,163.75 197.31,164.5 197.7,165.2 197.59,165.94 197.29,166.71 197.62,167.41 198.2,168.07 
		198.2,168.81 198.05,169.57 198.49,170.24 198.83,170.91 198.6,171.69 198.56,172.44 198.34,173.23 199.32,173.76 199.27,174.51 
		199.1,175.29 199.29,175.99 199.83,176.61 199.98,177.31 199.93,178.07 199.91,178.83 200.24,179.49 200.43,180.19 200.96,180.81 
		201.24,181.49 200.89,182.33 201.3,182.98 201.13,183.75 201.23,184.46 201.54,185.14 201.36,185.9 201.74,186.58 202.13,187.26 
		202.26,187.98 202.03,188.73 202.32,189.44 202.56,190.15 202.03,190.91 202.22,191.63 202.39,192.34 202.31,193.07 202.16,193.8 
		202.43,194.52 202.37,195.24 202.4,195.97 202.07,196.7 202.4,197.42 202.46,198.14 202.53,198.87 202.7,199.59 202.68,200.32 
		201.9,201.05 202.77,201.77 202.36,202.5 202.47,203.22 202.85,203.94 202,204.68 202.25,205.41 202.26,206.13 202.18,206.87 
		203.01,207.56 202.55,208.31 202.55,209.03 202.44,209.77 202.52,210.49 203.18,211.14 203.17,211.87 203.35,212.57 203.24,213.31 
		203.11,214.05 203.32,214.74 203.78,215.41 203.11,216.22 203.53,216.89 203.36,217.64 203.3,218.38 204.05,219.01 203.78,219.78 
		204.1,220.47 204.51,221.14 204.19,221.93 203.96,222.7 204.36,223.36 204.41,224.09 204.66,224.78 205.31,225.37 204.99,226.18 
		205.25,226.81 205.83,226.41 206.1,225.78 206.07,225.05 206.65,224.38 205.91,223.59 205.95,222.86 206.53,222.17 206.14,221.41 
		206.85,220.73 206.23,219.96 206.26,219.23 206.4,218.5 207.01,217.82 206.91,217.08 206.9,216.35 206.6,215.6 207.41,214.94 
		207.56,214.22 206.87,213.43 207.49,212.75 206.82,211.96 207.59,211.29 207.31,210.53 207.33,209.8 207.67,209.09 207.25,208.31 
		207.63,207.61 207.71,206.88 208.22,206.2 207.84,205.43 208.26,204.74 207.56,203.93 208.4,203.28 208.57,202.57 208.1,201.78 
		208.41,201.08 208.67,200.38 208.57,199.63 208.43,198.86 208.4,198.09 209.33,197.59 209.6,196.91 209.77,196.21 209.71,195.46 
		210.07,194.81 210.23,194.1 209.79,193.26 210.06,192.58 210.06,191.84 210.57,191.22 210.35,190.43 211.01,189.84 211.37,189.19 
		211.45,188.46 211.7,187.78 212.08,187.14 212.14,186.41 212.1,185.65 211.97,184.86 212.73,184.34 212.37,183.48 212.76,182.84 
		212.64,182.05 213.07,181.42 213.52,180.81 213.8,180.14 213.54,179.28 213.76,178.59 214.8,178.18 214.62,177.34 215.08,176.73 
		215.31,176.04 215.64,175.38 216.12,174.78 216.2,174.03 216.02,173.17 216.34,172.5 216.92,171.95 217.4,171.36 217.12,170.43 
		217.75,169.91 217.65,169.04 218.81,168.82 218.54,167.84 219.09,167.32 219.16,166.51 219.92,166.11 220.37,165.53 220.94,165.03 
		221.09,164.25 221.7,163.78 222.02,163.12 222.45,162.52 222.98,162 223.52,161.5 223.81,160.81 224.3,160.26 224.71,159.66 
		224.67,158.71 225.67,158.57 225.86,157.78 226.32,157.22 226.96,156.81 227.6,156.41 228.01,155.81 228.08,154.87 229.08,154.83 
		229.59,154.31 229.86,153.55 230.14,152.77 230.7,152.3 231.17,151.71 231.94,151.49 232.41,150.85 233.23,150.84 233.58,150.02 
		234.21,149.7 235.21,150.03 235.71,149.48 236.46,149.36 237.07,149.01 237.71,148.69 237.92,147.61 238.72,147.53 239.44,147.39 
		240.21,147.44 240.74,146.6 241.49,146.54 242.29,147.01 243,147.06 243.71,147.15 244.41,146.56 245.12,147.12 245.82,147.19 
		246.56,146.77 247.29,146.65 247.99,146.9 248.67,147.33 249.41,146.95 250.13,147.02 250.84,147.2 251.57,147.04 252.33,147.16 
		253.06,147.4 253.72,147.88 254.57,147.5 255.35,147.6 255.83,148.39 256.48,148.72 256.93,149.32 257.66,149.56 258.42,149.89 
		258.46,150.74 259.13,151.18 259.22,151.91 259.34,152.61 259.12,153.31 259.49,154.07 259.17,154.75 258.92,155.44 259.09,156.2 
		259.11,156.93 258.65,157.58 258.26,158.25 258.96,159.03 258.23,159.68 258.53,160.41 258.25,161.1 258.66,161.82 258.61,162.53 
		258.62,163.24 258.03,163.91 258.64,164.67 258.63,165.39 258.33,166.06 258.23,166.76 257.39,167.31 257.35,168.02 257.48,168.77 
		257.03,169.38 256.88,170.06 256.6,170.71 256.86,171.53 256.4,172.14 256.62,172.97 256.03,173.53 256.28,174.38 255.51,174.88 
		255.86,175.75 255.57,176.41 254.88,176.94 254.45,177.55 254.2,178.22 254.27,179.01 253.69,179.57 253.82,180.37 253.64,181.07 
		253.36,181.74 253.47,182.54 253.2,183.21 252.75,183.81 252.11,184.36 251.84,185.03 251.94,185.82 252.02,186.61 251.64,187.24 
		251.48,187.95 251.09,188.58 250.61,189.18 250.66,189.95 250.41,190.62 249.69,191.15 249.85,191.96 250.09,192.79 249.79,193.45 
		249.46,194.1 249.5,194.86 248.88,195.43 248.46,196.06 248.56,196.84 248,197.44 247.76,198.12 248.14,198.96 248.24,199.72 
		247.4,200.27 247.05,200.93 246.93,201.64 247,202.39 247.3,203.18 246.77,203.82 246.45,204.48 246.49,205.21 246.32,205.91 
		246.47,206.67 245.74,207.25 246.08,208.05 245.74,208.71 245.82,209.46 245.3,210.07 245.47,210.85 244.81,211.42 245.03,212.2 
		245.33,213 244.94,213.64 244.71,214.31 244.67,215.03 244.57,215.73 243.91,216.33 244.54,217.15 244.46,217.85 243.43,218.43 
		244.25,219.24 243.61,219.9 243.66,220.64 243.58,221.36 243.31,222.06 243.71,222.82 243.48,223.53 243.71,224.28 243.33,224.97 
		243.66,225.73 243.47,226.44 242.73,227.11 243.23,227.87 242.78,228.56 242.62,229.28 242.55,230 243.1,230.76 242.55,231.45 
		242.35,232.17 243.09,232.92 242.54,233.62 242.95,234.36 242.58,235.07 243.03,235.8 242.5,236.51 242.27,237.23 242.64,237.95 
		242.36,238.68 242.52,239.39 242.74,240.11 242.4,240.84 242.57,241.56 242.98,242.26 243.12,242.96 243.17,243.68 242.47,244.46 
		243.27,245.11 243.36,245.82 243.01,246.58 243.4,247.26 243.59,247.96 243.48,248.7 243.82,249.38 243.89,250.1 244.19,250.79 
		243.81,251.57 243.83,252.3 243.56,253.06 243.85,253.75 243.94,254.47 244.12,255.18 244.32,255.88 244.42,256.6 244.33,257.34 
		244.5,258.05 244.61,258.76 245.08,259.45 244.66,260.22 244.43,260.96 244.65,261.67 245.16,262.37 245.37,263.1 245.34,263.83 
		244.54,264.57 245.24,265.3 245.23,266.03 245.18,266.76 245.3,267.5 244.57,268.19 244.43,268.9 244.35,269.62 244.58,270.37 
		244.19,271.05 244.93,271.9 243.94,272.46 243.96,273.2 243.85,273.91 243.71,274.62 243.42,275.29 243.91,276.16 243.45,276.78 
		242.76,277.34 242.9,278.12 242.38,278.72 242.81,279.58 242.9,280.35 242.42,280.96 241.86,281.55 241.86,282.3 241.73,283.01 
		240.98,283.54 240.83,284.25 241.4,285.16 240.87,285.75 241.05,286.56 240.57,287.16 240.13,287.79 239.84,288.45 239.91,289.22 
		239.63,289.89 239.06,290.47 239.28,291.29 239.05,291.97 238.75,292.63 238.14,293.19 238.13,293.94 237.64,294.55 238.09,295.44 
		237.8,296.11 237.41,296.74 237.31,297.46 236.99,298.12 237.24,298.96 236.4,299.44 235.97,300.05 236.49,300.99 236.16,301.64 
		235.77,302.27 235.8,303.04 235.57,303.72 234.78,304.21 234.27,304.8 234.69,305.7 233.77,306.14 233.92,306.95 233.67,307.63 
		233.66,308.39 233.05,308.94 233.09,309.72 232.82,310.39 232.7,311.11 232.57,311.83 232.03,312.4 232.11,313.19 231.23,313.65 
		231.11,314.37 231.55,315.27 231.17,315.91 231.1,316.64 230.63,317.24 229.98,317.79 229.66,318.44 229.33,319.1 229.44,319.89 
		228.96,320.5 229.21,321.32 228.56,321.88 228.64,322.65 228.66,323.4 228.31,324.04 228.65,324.86 227.88,325.4 228.11,326.2 
		228.09,326.93 227.49,327.51 227.55,328.26 226.82,328.8 226.55,329.46 227,330.32 226.97,331.05 226.71,331.71 226.19,332.29 
		226.45,333.13 225.91,333.69 225.95,334.47 225.33,334.98 224.7,335.48 224.69,336.25 224.31,336.85 224.08,337.53 224.13,338.36 
		223.62,338.9 222.81,339.26 223,340.21 221.97,340.4 221.95,341.24 221.06,341.49 220.67,342.07 220.65,342.95 220.41,343.67 
		219.85,344.14 219.39,344.69 218.92,345.22 217.92,345.27 217.78,346.12 217.57,346.94 217.02,347.4 216.27,347.64 215.66,348.02 
		215.42,348.85 214.67,349.07 214.14,349.55 213.69,350.14 213.1,350.54 212.13,350.42 211.53,350.8 211.11,351.43 210.39,351.64 
		210.04,352.37 209.58,352.95 208.96,353.3 208.24,353.5 207.91,354.25 207.26,354.56 206.81,355.14 206.2,355.5 205.75,356.07 
		204.62,355.81 204.42,356.7 203.62,356.87 203.46,357.79 202.41,357.69 201.89,358.19 201.71,359.07 201.28,359.68 200.56,359.95 
		199.91,360.31 199.35,360.78 199.29,361.77 198.54,362.02 197.79,362.28 197.41,362.93 197.06,363.61 196.03,363.59 195.81,364.4 
		195.36,364.97 195.09,365.72 194.32,365.97 193.94,366.61 193.11,366.82 192.63,367.36 192.1,367.86 191.86,368.62 191.27,369.07 
		190.66,369.5 190.31,370.15 189.83,370.69 189.22,371.13 189.17,372.02 188.29,372.25 187.79,372.78 187.47,373.45 187.4,374.3 
		187.05,374.95 186.43,375.39 185.93,375.92 185.79,376.69 185.31,377.23 184.44,377.51 184.5,378.41 183.64,378.7 183.83,379.68 
		183.05,380.02 182.58,380.58 182.27,381.23 182.06,381.95 181.56,382.48 180.89,382.89 180.66,383.6 180.05,384.05 180.03,384.9 
		179.77,385.6 179.15,386.04 178.74,386.62 177.99,386.95 177.52,387.48 177.3,388.22 177.14,389.03 176.74,389.63 176.19,390.12 
		175.76,390.7 175.43,391.36 174.39,391.43 173.94,392 174.01,393 172.88,392.99 172.4,393.53 172.68,394.71 171.97,395.06 
		171.19,395.34 170.9,396.03 170.73,396.83 170.09,397.23 169.35,397.55 169,398.19 168.42,398.66 167.9,399.18 167.95,400.17 
		167.23,400.52 166.56,400.9 166.4,401.74 165.76,402.15 165.65,403.05 164.61,403.07 164.62,404.11 163.61,404.13 163.14,404.69 
		162.55,405.12 162.23,405.85 161.4,406.03 161.23,406.92 160.72,407.45 159.72,407.43 159.29,408.04 158.77,408.55 158.16,408.96 
		158.13,410.04 157.52,410.46 156.63,410.53 156.09,411.01 155.72,411.71 155.03,412.02 154.44,412.45 153.88,412.91 153.37,413.44 
		152.62,413.67 152.04,414.12 151.88,415.03 151.52,415.71 150.86,416.06 150.22,416.44 149.49,416.72 149.28,417.54 148.48,417.75 
		148.37,418.69 147.62,418.94 147.06,419.4 146.54,419.89 145.99,420.35 145.38,420.75 144.99,421.41 144.54,421.98 143.55,421.94 
		143.38,422.85 142.72,423.18 142.05,423.5 141.35,423.79 140.73,424.16 140.21,424.65 139.99,425.51 139.38,425.91 138.61,426.1 
		138.14,426.65 137.55,427.07 137.19,427.75 136.84,428.43 136.08,428.65 135.19,428.71 134.92,429.5 134.43,430.02 133.58,430.15 
		133.13,430.71 132.75,431.36 132.43,432.08 131.58,432.21 131.29,432.95 130.65,433.32 129.98,433.66 129.7,434.39 129.06,434.76 
		128.81,435.55 128,435.75 127.71,436.49 127.11,436.91 126.78,437.6 126.36,438.21 125.79,438.65 125.12,438.99 124.43,439.31 
		124.21,440.11 123.47,440.39 123.16,441.1 122.54,441.5 121.95,441.93 121.41,442.41 120.81,442.84 120.13,443.19 120.04,444.14 
		119.37,444.49 118.82,444.98 118.15,445.34 118.14,446.34 117.65,446.87 116.81,447.07 116,447.32 116.03,448.34 115.37,448.72 
		114.59,448.99 114.19,449.6 113.91,450.32 113.13,450.62 113.25,451.61 112.26,451.82 111.85,452.49 	"/>
</g>
</svg>
