<?xml version="1.0" encoding="utf-8"?>
<!-- Generator: Adobe Illustrator 28.3.0, SVG Export Plug-In . SVG Version: 6.00 Build 0)  -->
<svg version="1.1" id="Capa_1" xmlns="http://www.w3.org/2000/svg" xmlns:xlink="http://www.w3.org/1999/xlink" x="0px" y="0px"
	 viewBox="0 0 157.69 302.53" style="enable-background:new 0 0 157.69 302.53;" xml:space="preserve">
<style type="text/css">
	.st0{fill:#1E78FF;}
	.st1{fill:#F29463;}
	.st2{fill:#78ADF5;}
	.st3{fill:#167EC4;}
	.st4{fill:#B0B0AF;}
</style>
<g>
	<path class="st0" d="M83.3,256.98c-1.09-6.06-1.33-12.17-1.26-18.32c0.08-7.37-0.05-14.74-0.09-22.11
		c-0.01-1.36-0.12-2.7-0.78-3.93c-0.51-0.95-1.25-1.46-2.37-1.44c-1.13,0.02-1.81,0.62-2.31,1.55c-0.48,0.9-0.52,1.88-0.58,2.86
		c-0.47,7.73-0.54,15.46-0.32,23.19c0.14,5.04,0.19,10.07-0.85,15.04c-3.83,0.52-7.42-0.92-11.12-1.4c0.02-2.46,0.07-4.92,0.06-7.37
		c-0.01-3.44,0.04-6.84,0.79-10.26c0.51-2.36,0.41-4.91,0.21-7.34c-0.49-5.81,0.08-11.54,0.8-17.27c0.15-1.22,0.38-2.27-0.98-3.2
		c-7.39-5.03-9.57-12.69-10.48-21.02c-0.21-1.93,1.27-4.61-0.88-5.65c-1.54-0.75-3.84,0.05-5.8,0.21
		c-17.15,1.42-35.54-9.96-41.12-25.96c-4.76-13.65-1.71-25.92,7.92-36.58c4.45-4.92,9.92-8.45,16.1-10.77
		c1.97-0.74,2.54-1.68,2.49-3.75c-0.17-6.52,1.29-12.68,4.82-18.27c5.71-9.05,16.22-13.62,27.2-9.04c0.44,0.19,0.91,0.32,1.44,0.51
		c0.85-2.07-0.6-3.91-0.31-5.83c1.07-0.26,2.15-0.8,3.2-0.74c7.71,0.45,15.36-1.12,23.07-0.71c-0.31,2.29-0.61,4.58-0.91,6.83
		c1.03,0.79,1.74-0.06,2.45-0.33c9.41-3.48,18.91-0.8,25.04,7.18c4.44,5.78,6.36,12.39,6.26,19.65c-0.04,3.38-0.01,3.4,3.15,4.69
		c5.65,2.32,10.65,5.58,14.93,9.96c14.72,15.03,14.16,37.85-1.53,51.9c-9.09,8.14-19.85,12.05-32.16,11.19
		c-1.1-0.08-2.21-0.2-3.31-0.27c-2.46-0.14-2.54-0.13-2.46,2.29c0.16,4.85-0.41,9.57-2.23,14.1c-1.59,3.96-3.82,7.48-7.4,9.9
		c-1.42,0.96-1.95,1.98-1.67,3.65c1.23,7.2,0.17,14.54,0.94,21.71c0.79,7.35,0.1,14.73,1.17,22.03
		C90.73,255.04,87.08,256.23,83.3,256.98z"/>
	<path class="st1" d="M65.74,48.62c-0.68-5.86-1.84-11.6-4.01-17.13c-1.95-4.97-4.03-9.76-8.54-13.03c-0.79-0.57-1.6-1.33-1.28-2.45
		c0.38-1.3,1.55-1.43,2.68-1.49c3.48-0.17,6.28,1.41,8.38,3.92c7.1,8.51,11.93,17.97,11.55,29.45
		C71.66,48.94,68.68,48.58,65.74,48.62z"/>
	<path class="st1" d="M96.74,269.59c0.98,1.26,1.97,2.5,2.93,3.78c3.15,4.19,7.07,7.13,12.4,7.95c1.33,0.2,2.66,0.58,3.71,1.51
		c1.52,1.34,1.35,3.26-0.39,4.3c-0.97,0.58-2.06,0.75-3.19,0.8c-2.6,0.12-5.17-0.19-7.69-0.78c-4.55-1.06-9.1-2.13-13.62-3.3
		c-3.82-0.99-4.96-2.98-3.8-6.82c0.34-1.14,0.15-2.17,0.12-3.25c0.19-0.77,0.73-1.17,1.46-1.41
		C91.37,271.46,94.05,270.52,96.74,269.59z"/>
	<path class="st1" d="M83.29,47.1c-0.35-11.22,4.58-20.37,11.46-28.67c2.18-2.62,5.09-4.22,8.73-3.89c0.88,0.08,1.78,0.25,2.15,1.15
		c0.45,1.06-0.09,1.91-0.89,2.58c-8.38,6.95-10.3,16.87-12.28,26.76c-0.14,0.72-0.23,1.45-0.34,2.17
		C89.18,47.17,86.24,47.14,83.29,47.1z"/>
	<path class="st1" d="M70.17,274.64c-0.08,1.01,0.41,1.89,0.66,2.83c0.83,3.17-0.31,5.38-3.44,6.18c-5.69,1.46-11.42,2.8-17.17,4.03
		c-2.14,0.46-4.4,0.49-6.58-0.04c-1.36-0.33-2.64-1.01-2.75-2.58c-0.11-1.54,0.95-2.45,2.29-2.99c0.79-0.31,1.62-0.63,2.46-0.75
		c5.32-0.75,9.21-3.69,12.35-7.85c0.44-0.59,0.94-1.13,1.41-1.7c0.89-0.08,1.62,0.29,2.4,0.7C64.4,273.83,67.22,274.5,70.17,274.64z
		"/>
	<path class="st2" d="M65.33,64.11c-0.04-1.74-0.32-3.48,0.01-5.21c1.31,0.12,2.61,0.24,3.9,0.56c2.19,0.54,4.27,0.2,6.05-1.32
		c2.42,0.19,4.84,0.39,7.25-0.14c3.22,0.47,6.45,0.24,9.68,0.15c0.52,1.76,0.07,3.54,0.05,5.31c-0.85,0.02-1.75-0.12-2.56,0.08
		c-4.91,1.22-10.02,0.05-14.93,1.3c-0.68,0.17-1.5,0.08-2.18-0.12C70.22,63.98,67.77,64.15,65.33,64.11z"/>
	<path class="st3" d="M65.33,64.11c2.44,0.05,4.89-0.13,7.28,0.59c0.68,0.21,1.5,0.3,2.18,0.12c4.91-1.25,10.02-0.08,14.93-1.3
		c0.81-0.2,1.7-0.06,2.56-0.08c0.44,1.99,0.25,3.96-0.16,5.92c-7.71-0.41-15.35,1.16-23.07,0.71c-1.05-0.06-2.13,0.48-3.2,0.74
		C65.45,68.6,64.76,66.4,65.33,64.11z"/>
	<path class="st4" d="M75.29,58.14c-1.78,1.51-3.86,1.86-6.05,1.32c-1.29-0.32-2.59-0.44-3.9-0.56c-0.3-3.44,0.28-6.85,0.39-10.28
		c2.95-0.03,5.93,0.33,8.79-0.74C74.98,51.28,75.26,54.7,75.29,58.14z"/>
	<path class="st4" d="M92.23,58.14c-3.23,0.09-6.46,0.32-9.68-0.15c0.25-3.63-0.06-7.3,0.75-10.89c2.94,0.03,5.89,0.06,8.83,0.1
		C92.16,50.85,92.19,54.49,92.23,58.14z"/>
	<path class="st3" d="M83.3,256.98c3.78-0.74,7.44-1.94,11.1-3.12c0.99,2.83,1.14,5.75,0.88,8.71c-3.49,0.77-6.71,2.46-10.29,2.9
		C83.98,262.72,83.3,259.92,83.3,256.98z"/>
	<path class="st4" d="M70.17,274.64c-2.94-0.14-5.76-0.81-8.38-2.17c-0.77-0.4-1.5-0.78-2.4-0.7c1.61-2.01,2.14-4.48,2.88-6.86
		c3.31,0.73,6.61,1.46,9.92,2.19C71.49,269.61,71.55,272.32,70.17,274.64z"/>
	<path class="st3" d="M63.62,252.42c3.71,0.48,7.29,1.92,11.12,1.4c0.23,2.3,0.09,4.55-0.96,6.68c-3.71-0.26-7.36-0.91-11-1.58
		C62.36,256.66,62.84,254.52,63.62,252.42z"/>
	<path class="st4" d="M84.98,265.46c3.58-0.44,6.8-2.13,10.29-2.9c0.49,2.34,0.98,4.68,1.47,7.03c-2.69,0.93-5.37,1.86-8.06,2.78
		c-0.72,0.25-1.27,0.64-1.46,1.41C86.47,271.01,85.73,268.24,84.98,265.46z"/>
	<path class="st2" d="M62.77,258.91c3.65,0.67,7.3,1.32,11,1.58c-0.39,2.24-0.57,4.53-1.6,6.61c-3.31-0.73-6.61-1.46-9.92-2.19
		C62.16,262.89,62.3,260.89,62.77,258.91z"/>
</g>
</svg>
